<svg width="597" height="519" viewBox="0 0 597 519" fill="none" xmlns="http://www.w3.org/2000/svg">
<g filter="url(#filter0_d_407_24412)">
<rect x="-179.869" y="0.34375" width="241.2" height="433.817" rx="1.51698" fill="white" shape-rendering="crispEdges"/>
<rect x="-179.49" y="0.722996" width="240.442" height="433.059" rx="1.13774" stroke="#DDDDDD" stroke-width="0.758491" shape-rendering="crispEdges"/>
<path d="M-167.732 122.547H49.1961" stroke="#DDDDDD" stroke-width="0.758491"/>
<path d="M-167.732 345.84H49.1961" stroke="#DDDDDD" stroke-width="0.758491"/>
<rect width="105.43" height="30.1359" transform="translate(-56.2344 351.906)" fill="#F4F4F4"/>
<path d="M-28.8939 361.409V369.112H-29.8183V361.409H-28.8939ZM-28.5621 370.925V371.707H-35.6967V368.33H-34.7722V370.925H-28.5621ZM-34.5826 362.143C-33.0064 362.143 -31.8212 363.21 -31.8212 364.727C-31.8212 366.268 -33.0064 367.322 -34.5826 367.322C-36.1589 367.322 -37.344 366.268 -37.344 364.727C-37.344 363.21 -36.1589 362.143 -34.5826 362.143ZM-34.5826 362.961C-35.6492 362.961 -36.4433 363.696 -36.4314 364.727C-36.4433 365.782 -35.6492 366.505 -34.5826 366.505C-33.5397 366.505 -32.7338 365.782 -32.7338 364.727C-32.7338 363.696 -33.5397 362.961 -34.5826 362.961ZM-18.8468 362.037V362.854C-18.8468 363.737 -18.8468 364.81 -19.1193 366.244H-17.5787V367.026H-27.2257V366.244H-20.0556C-19.7712 364.786 -19.7712 363.755 -19.7712 362.854V362.795H-26.005V362.037H-18.8468ZM-18.5268 370.913V371.696H-25.9458V368.211H-25.0214V370.913H-18.5268ZM-5.48404 362.463V363.518C-5.4959 364.81 -5.4959 366.256 -5.87514 368.377L-6.82326 368.271C-6.42031 366.256 -6.42031 364.774 -6.42031 363.518V363.234H-12.9149V362.463H-5.48404ZM-4.33446 369.669V370.439H-13.9341V369.669H-10.1654V365.9H-9.2528V369.669H-4.33446ZM5.38087 361.409V367.619H4.49201V364.834H3.05799V367.548H2.16913V361.61H3.05799V364.063H4.49201V361.409H5.38087ZM5.38087 368.105V371.933H4.46831V368.863H-1.72999V368.105H5.38087ZM1.0551 362.179C1.0551 364.691 -0.367074 366.599 -3.0455 367.737L-3.5077 367.038C-1.32111 366.143 -0.0826394 364.721 0.095132 362.949H-3.08105V362.179H1.0551ZM13.3156 363.601C13.3156 364.857 14.3823 366.019 15.9348 366.481L15.4963 367.192C14.2815 366.831 13.3334 366.048 12.8771 365.035C12.4149 366.149 11.4372 366.997 10.1869 367.405L9.72466 366.671C11.289 366.197 12.4031 364.988 12.4031 363.601V363.4H10.0209V362.629H12.4031V361.349H13.3393V362.629H15.6978V363.4H13.3156V363.601ZM17.9614 361.397V364.004H19.5495V364.786H17.9614V367.524H17.037V361.397H17.9614ZM18.151 368.093V368.851H15.1645C15.3185 369.953 16.8651 370.902 18.554 371.174L18.2103 371.897C16.6637 371.642 15.2652 370.878 14.6667 369.823C14.0623 370.872 12.6757 371.619 11.1468 371.885L10.7913 371.174C12.492 370.902 14.0208 369.971 14.1808 368.851H11.2061V368.093H18.151ZM28.8026 361.397V371.933H27.8663V361.397H28.8026ZM25.6857 362.546C25.6738 365.58 24.2635 368.259 20.7318 369.953L20.2222 369.195C23.0724 367.844 24.5242 365.823 24.7376 363.305H20.7081V362.546H25.6857Z" fill="#1E1E1E"/>
<rect width="216.929" height="30.1359" transform="translate(-167.732 388.109)" fill="#F4F4F4"/>
</g>
<g filter="url(#filter1_d_407_24412)">
<rect x="73.4668" y="0.34375" width="241.2" height="433.817" rx="1.51698" fill="white" shape-rendering="crispEdges"/>
<rect x="73.846" y="0.722996" width="240.442" height="433.059" rx="1.13774" stroke="#DDDDDD" stroke-width="0.758491" shape-rendering="crispEdges"/>
<path d="M89.6093 25.4805L90.0004 23.1102H87.8434L87.4523 25.4805H86.5872L86.9783 23.1102H85.7102L85.8524 22.2569H87.1205L87.476 20.1236H86.2198L86.3502 19.2703H87.6064L87.9975 16.9H88.8627L88.4716 19.2703H90.6285L91.0196 16.9H91.8848L91.4937 19.2703H92.7736L92.6314 20.1236H91.3633L91.0078 22.2569H92.264L92.1218 23.1102H90.8655L90.4745 25.4805H89.6093ZM87.9857 22.2569H90.1426L90.4982 20.1236H88.3412L87.9857 22.2569ZM93.5648 25.4805L93.553 24.6983L96.4803 21.6169C97.4995 20.5384 97.9854 19.9577 97.9854 19.1637C97.9854 18.2867 97.2388 17.7059 96.2788 17.7059C95.2596 17.7059 94.6078 18.3578 94.6078 19.3177H93.6004C93.5885 17.8007 94.7618 16.7815 96.3144 16.7815C97.8669 16.7815 98.9809 17.8244 98.9809 19.1637C98.9809 20.1236 98.5306 20.8703 97.0136 22.4347L95.0463 24.4612V24.5324H99.135V25.4805H93.5648Z" fill="#333333"/>
<path d="M96.1809 38.6144C96.1809 43.592 92.9247 46.9933 87.2835 48.4451L86.2672 46.3919C90.5085 45.3134 92.9247 43.2083 93.3395 40.6676H87.3664V38.6144H96.1809ZM101.967 37.5359V48.0718H99.3127V37.5359H101.967ZM101.967 48.8392V56.1604H89.3782V48.8392H101.967ZM92.0122 50.9132V54.0864H99.3749V50.9132H92.0122ZM124.543 39.1536V40.9372C124.543 43.3016 124.543 45.9563 123.776 49.9591L121.121 49.6895C121.837 46.1222 121.868 43.4675 121.889 41.2483H110.772V39.1536H124.543ZM126.202 51.9294V54.0864H108.988V51.9294H115.148V45.4378H117.782V51.9294H126.202ZM143.349 37.5359V48.5903H140.84V44.0275H139.139V48.5073H136.65V37.8677H139.139V41.8705H140.84V37.5359H143.349ZM143.349 49.3162V56.3885H140.715V51.4524H130.18V49.3162H143.349ZM135.365 38.8218C135.365 43.5712 133.083 46.7652 128.168 48.7147L126.923 46.7444C130.48 45.4378 132.264 43.4883 132.668 40.9372H127.836V38.8218H135.365Z" fill="#333333"/>
<path d="M91.8729 66.7223V67.2793C91.8611 67.9667 91.8611 69.0214 91.6003 70.3962L90.6641 70.3251C90.9189 69.0629 90.9426 68.1681 90.9604 67.5045H86.6227V66.7223H91.8729ZM89.1589 69.057V71.3206C90.3263 71.2732 91.5352 71.1903 92.6314 71.0362L92.6907 71.7236C90.4863 72.1028 87.9382 72.1502 86.0657 72.1502L85.9709 71.3799C86.6524 71.3739 87.4227 71.368 88.2345 71.3443V69.057H89.1589ZM94.2906 65.9045V69.3414H95.8313V70.1355H94.2906V73.8331H93.3425V65.9045H94.2906ZM94.6343 75.4331V76.2153H87.5946V73.122H88.5308V75.4331H94.6343ZM105.096 65.9045V76.4641H104.172V65.9045H105.096ZM101.896 66.8882V70.6332H97.9617V73.122C99.7098 73.122 101.268 73.045 103.153 72.7428L103.247 73.525C101.304 73.8331 99.7039 73.9042 97.8906 73.9042H97.0136V69.8747H100.96V67.6585H96.9899V66.8882H101.896ZM115.215 66.9711V68.0259C115.203 69.3177 115.203 70.7636 114.823 72.885L113.875 72.7783C114.278 70.7636 114.278 69.2822 114.278 68.0259V67.7415H107.784V66.9711H115.215ZM116.364 74.1768V74.9472H106.764V74.1768H110.533V70.4081H111.446V74.1768H116.364ZM126.079 65.9164V72.1265H125.191V69.3414H123.757V72.0554H122.868V66.1178H123.757V68.5711H125.191V65.9164H126.079ZM126.079 72.6124V76.4404H125.167V73.3709H118.969V72.6124H126.079ZM121.754 66.6867C121.754 69.1992 120.332 71.1073 117.653 72.245L117.191 71.5458C119.377 70.651 120.616 69.2288 120.794 67.4571H117.618V66.6867H121.754Z" fill="#333333"/>
<path d="M89.2182 93.599C87.3101 93.599 86.2198 91.999 86.2198 89.1903C86.2198 86.4052 87.3338 84.7815 89.2182 84.7815C91.1026 84.7815 92.2166 86.4052 92.2166 89.1903C92.2166 91.999 91.1144 93.599 89.2182 93.599ZM89.2182 92.6509C90.4507 92.6509 91.1737 91.4065 91.1737 89.1903C91.1737 86.974 90.4507 85.7059 89.2182 85.7059C87.9857 85.7059 87.2509 86.974 87.2509 89.1903C87.2509 91.4065 87.9738 92.6509 89.2182 92.6509ZM96.5514 84.9V93.4805H95.4729V86.0141H95.4255L93.3397 87.4007V86.3222L95.4729 84.9H96.5514ZM101.526 93.599C99.6181 93.599 98.5277 91.999 98.5277 89.1903C98.5277 86.4052 99.6418 84.7815 101.526 84.7815C103.411 84.7815 104.525 86.4052 104.525 89.1903C104.525 91.999 103.422 93.599 101.526 93.599ZM101.526 92.6509C102.759 92.6509 103.482 91.4065 103.482 89.1903C103.482 86.974 102.759 85.7059 101.526 85.7059C100.294 85.7059 99.5588 86.974 99.5588 89.1903C99.5588 91.4065 100.282 92.6509 101.526 92.6509ZM109.523 88.728V89.6643H105.766V88.728H109.523ZM113.763 93.599C111.855 93.599 110.765 91.999 110.765 89.1903C110.765 86.4052 111.879 84.7815 113.763 84.7815C115.647 84.7815 116.761 86.4052 116.761 89.1903C116.761 91.999 115.659 93.599 113.763 93.599ZM113.763 92.6509C114.996 92.6509 115.718 91.4065 115.718 89.1903C115.718 86.974 114.996 85.7059 113.763 85.7059C112.53 85.7059 111.796 86.974 111.796 89.1903C111.796 91.4065 112.519 92.6509 113.763 92.6509ZM120.871 93.599C118.963 93.599 117.873 91.999 117.873 89.1903C117.873 86.4052 118.987 84.7815 120.871 84.7815C122.755 84.7815 123.869 86.4052 123.869 89.1903C123.869 91.999 122.767 93.599 120.871 93.599ZM120.871 92.6509C122.104 92.6509 122.826 91.4065 122.826 89.1903C122.826 86.974 122.104 85.7059 120.871 85.7059C119.638 85.7059 118.904 86.974 118.904 89.1903C118.904 91.4065 119.627 92.6509 120.871 92.6509ZM127.979 93.599C126.071 93.599 124.981 91.999 124.981 89.1903C124.981 86.4052 126.095 84.7815 127.979 84.7815C129.863 84.7815 130.977 86.4052 130.977 89.1903C130.977 91.999 129.875 93.599 127.979 93.599ZM127.979 92.6509C129.212 92.6509 129.934 91.4065 129.934 89.1903C129.934 86.974 129.212 85.7059 127.979 85.7059C126.746 85.7059 126.012 86.974 126.012 89.1903C126.012 91.4065 126.735 92.6509 127.979 92.6509ZM135.087 93.599C133.179 93.599 132.089 91.999 132.089 89.1903C132.089 86.4052 133.203 84.7815 135.087 84.7815C136.971 84.7815 138.085 86.4052 138.085 89.1903C138.085 91.999 136.983 93.599 135.087 93.599ZM135.087 92.6509C136.32 92.6509 137.043 91.4065 137.043 89.1903C137.043 86.974 136.32 85.7059 135.087 85.7059C133.854 85.7059 133.12 86.974 133.12 89.1903C133.12 91.4065 133.843 92.6509 135.087 92.6509ZM143.084 88.728V89.6643H139.327V88.728H143.084ZM147.324 93.599C145.416 93.599 144.325 91.999 144.325 89.1903C144.325 86.4052 145.439 84.7815 147.324 84.7815C149.208 84.7815 150.322 86.4052 150.322 89.1903C150.322 91.999 149.22 93.599 147.324 93.599ZM147.324 92.6509C148.556 92.6509 149.279 91.4065 149.279 89.1903C149.279 86.974 148.556 85.7059 147.324 85.7059C146.091 85.7059 145.357 86.974 145.357 89.1903C145.357 91.4065 146.079 92.6509 147.324 92.6509ZM154.432 93.599C152.524 93.599 151.433 91.999 151.433 89.1903C151.433 86.4052 152.547 84.7815 154.432 84.7815C156.316 84.7815 157.43 86.4052 157.43 89.1903C157.43 91.999 156.328 93.599 154.432 93.599ZM154.432 92.6509C155.664 92.6509 156.387 91.4065 156.387 89.1903C156.387 86.974 155.664 85.7059 154.432 85.7059C153.199 85.7059 152.465 86.974 152.465 89.1903C152.465 91.4065 153.187 92.6509 154.432 92.6509ZM161.54 93.599C159.632 93.599 158.541 91.999 158.541 89.1903C158.541 86.4052 159.656 84.7815 161.54 84.7815C163.424 84.7815 164.538 86.4052 164.538 89.1903C164.538 91.999 163.436 93.599 161.54 93.599ZM161.54 92.6509C162.772 92.6509 163.495 91.4065 163.495 89.1903C163.495 86.974 162.772 85.7059 161.54 85.7059C160.307 85.7059 159.573 86.974 159.573 89.1903C159.573 91.4065 160.295 92.6509 161.54 92.6509ZM168.648 93.599C166.74 93.599 165.649 91.999 165.649 89.1903C165.649 86.4052 166.764 84.7815 168.648 84.7815C170.532 84.7815 171.646 86.4052 171.646 89.1903C171.646 91.999 170.544 93.599 168.648 93.599ZM168.648 92.6509C169.88 92.6509 170.603 91.4065 170.603 89.1903C170.603 86.974 169.88 85.7059 168.648 85.7059C167.415 85.7059 166.681 86.974 166.681 89.1903C166.681 91.4065 167.403 92.6509 168.648 92.6509Z" fill="#333333"/>
<path d="M89.55 103.611C89.55 105.045 90.6404 106.361 92.1692 106.882L91.6596 107.617C90.4922 107.19 89.5737 106.319 89.1115 105.223C88.6612 106.461 87.7249 107.439 86.4924 107.913L85.9946 107.167C87.5709 106.574 88.6256 105.164 88.6375 103.54V102.45H89.55V103.611ZM94.2669 101.905V104.654H95.855V105.436H94.2669V108.316H93.3425V101.905H94.2669ZM90.8893 108.589C93.0581 108.589 94.3617 109.288 94.3617 110.497C94.3617 111.729 93.0581 112.417 90.8893 112.417C88.7204 112.417 87.3931 111.729 87.3931 110.497C87.3931 109.288 88.7204 108.589 90.8893 108.589ZM90.8893 109.335C89.3012 109.335 88.3175 109.774 88.3293 110.497C88.3175 111.243 89.3012 111.67 90.8893 111.682C92.4892 111.67 93.461 111.243 93.461 110.497C93.461 109.774 92.4892 109.335 90.8893 109.335ZM100.996 103.125V103.884H97.7128V105.91H100.842V106.657H97.7128V109.039C99.2772 109.033 100.243 108.992 101.399 108.778L101.482 109.549C100.249 109.786 99.2298 109.833 97.4995 109.833H96.824V103.125H100.996ZM105.428 101.905V112.44H104.527V106.918H103.082V111.907H102.181V102.13H103.082V106.147H104.527V101.905H105.428ZM110.803 110.343C110.388 110.343 110.033 109.999 110.044 109.572C110.033 109.158 110.388 108.814 110.803 108.814C111.218 108.814 111.561 109.158 111.561 109.572C111.561 109.999 111.218 110.343 110.803 110.343ZM110.803 105.578C110.388 105.578 110.033 105.235 110.044 104.808C110.033 104.393 110.388 104.05 110.803 104.05C111.218 104.05 111.561 104.393 111.561 104.808C111.561 105.235 111.218 105.578 110.803 105.578ZM119.093 103.611C119.093 105.045 120.184 106.361 121.712 106.882L121.203 107.617C120.035 107.19 119.117 106.319 118.655 105.223C118.204 106.461 117.268 107.439 116.036 107.913L115.538 107.167C117.114 106.574 118.169 105.164 118.181 103.54V102.45H119.093V103.611ZM123.81 101.905V104.654H125.398V105.436H123.81V108.316H122.886V101.905H123.81ZM120.432 108.589C122.601 108.589 123.905 109.288 123.905 110.497C123.905 111.729 122.601 112.417 120.432 112.417C118.264 112.417 116.936 111.729 116.936 110.497C116.936 109.288 118.264 108.589 120.432 108.589ZM120.432 109.335C118.844 109.335 117.861 109.774 117.873 110.497C117.861 111.243 118.844 111.67 120.432 111.682C122.032 111.67 123.004 111.243 123.004 110.497C123.004 109.774 122.032 109.335 120.432 109.335ZM134.177 101.905V104.488H135.765V105.27H134.177V107.889H133.253V101.905H134.177ZM131.108 102.627V103.386H127.363V106.491C129.478 106.503 130.681 106.426 132.091 106.147L132.21 106.906C130.729 107.202 129.472 107.261 127.256 107.261H126.438V102.627H131.108ZM134.177 108.435V112.298H127.529V108.435H134.177ZM128.441 109.193V111.54H133.253V109.193H128.441ZM143.025 104.168C143.025 105.59 144.151 106.87 145.727 107.368L145.253 108.115C144.026 107.7 143.048 106.835 142.574 105.721C142.112 106.924 141.122 107.872 139.872 108.328L139.386 107.581C140.962 107.024 142.088 105.661 142.088 104.168V103.552H139.623V102.793H145.454V103.552H143.025V104.168ZM147.931 101.916V109.643H147.007V101.916H147.931ZM148.263 111.433V112.215H141.128V108.909H142.053V111.433H148.263ZM158.547 101.905V108.577H157.658V105.555H156.248V108.198H155.371V102.118H156.248V104.784H157.658V101.905H158.547ZM154.944 103.173V103.919H149.54V103.173H151.792V101.987H152.716V103.173H154.944ZM152.254 104.488C153.593 104.488 154.506 105.187 154.518 106.29C154.506 107.368 153.593 108.079 152.254 108.079C150.927 108.079 149.99 107.368 150.002 106.29C149.99 105.187 150.927 104.488 152.254 104.488ZM152.254 105.176C151.413 105.176 150.832 105.626 150.832 106.29C150.832 106.941 151.413 107.38 152.254 107.38C153.095 107.38 153.676 106.941 153.676 106.29C153.676 105.626 153.095 105.176 152.254 105.176ZM155.063 108.755C157.279 108.755 158.606 109.418 158.606 110.603C158.606 111.753 157.279 112.417 155.063 112.417C152.847 112.417 151.519 111.753 151.531 110.603C151.519 109.418 152.847 108.755 155.063 108.755ZM155.063 109.489C153.427 109.478 152.444 109.881 152.456 110.603C152.444 111.291 153.427 111.694 155.063 111.694C156.698 111.694 157.67 111.291 157.682 110.603C157.67 109.881 156.698 109.478 155.063 109.489ZM172.491 106.835V107.605H168.141V108.731C170.132 108.814 171.305 109.466 171.317 110.58C171.305 111.753 169.954 112.417 167.691 112.417C165.403 112.417 164.052 111.753 164.052 110.58C164.052 109.466 165.22 108.814 167.229 108.731V107.605H162.891V106.835H172.491ZM167.691 109.442C165.996 109.454 164.989 109.869 165 110.58C164.989 111.279 165.996 111.694 167.691 111.694C169.362 111.694 170.381 111.279 170.381 110.58C170.381 109.869 169.362 109.454 167.691 109.442ZM171.637 102.402V103.161H168.295C168.354 104.346 170.097 105.264 171.957 105.46L171.614 106.195C169.889 105.987 168.271 105.217 167.691 104.038C167.116 105.217 165.504 105.987 163.768 106.195L163.436 105.46C165.261 105.264 167.015 104.346 167.086 103.161H163.768V102.402H171.637Z" fill="#3586FF"/>
<path d="M85.6035 122.547H302.532" stroke="#DDDDDD" stroke-width="0.758491"/>
<rect x="85.6035" y="146.82" width="69.3057" height="24.0679" rx="12.034" fill="#F4F4F4"/>
<circle cx="97.7398" cy="158.853" r="6.06793" fill="#FF6535"/>
<path d="M116.916 161.682V162.464H107.268V161.682H111.618V159.122H112.554V161.682H116.916ZM112.554 155.282C112.554 156.965 114.64 158.411 116.453 158.707L116.074 159.442C114.462 159.128 112.762 158.103 112.092 156.633C111.411 158.109 109.716 159.158 108.134 159.49L107.743 158.743C109.52 158.435 111.594 156.965 111.594 155.282V155.022H108.062V154.239H116.086V155.022H112.554V155.282ZM126.275 153.28V163.815H125.351V153.28H126.275ZM117.695 161.007C118.596 161.001 119.627 160.995 120.693 160.959V159.81C119.431 159.673 118.607 158.956 118.619 157.902C118.607 156.716 119.627 155.946 121.144 155.946C122.661 155.946 123.692 156.716 123.692 157.902C123.692 158.944 122.874 159.662 121.63 159.798V160.924C122.649 160.882 123.68 160.805 124.652 160.675L124.723 161.386C122.376 161.765 119.793 161.801 117.837 161.801L117.695 161.007ZM124.379 154.583V155.342H117.92V154.583H120.693V153.291H121.63V154.583H124.379ZM121.144 156.669C120.172 156.669 119.484 157.167 119.484 157.902C119.484 158.636 120.172 159.11 121.144 159.099C122.127 159.11 122.803 158.636 122.803 157.902C122.803 157.167 122.127 156.669 121.144 156.669ZM131.523 154.986C131.523 156.42 132.613 157.736 134.142 158.257L133.632 158.992C132.465 158.565 131.546 157.694 131.084 156.598C130.634 157.836 129.698 158.814 128.465 159.288L127.967 158.542C129.543 157.949 130.598 156.539 130.61 154.915V153.825H131.523V154.986ZM136.239 153.28V156.029H137.828V156.811H136.239V159.691H135.315V153.28H136.239ZM132.862 159.964C135.031 159.964 136.334 160.663 136.334 161.872C136.334 163.104 135.031 163.792 132.862 163.792C130.693 163.792 129.366 163.104 129.366 161.872C129.366 160.663 130.693 159.964 132.862 159.964ZM132.862 160.71C131.274 160.71 130.29 161.149 130.302 161.872C130.29 162.618 131.274 163.045 132.862 163.057C134.462 163.045 135.434 162.618 135.434 161.872C135.434 161.149 134.462 160.71 132.862 160.71ZM146.607 153.28V155.863H148.195V156.645H146.607V159.264H145.682V153.28H146.607ZM143.537 154.002V154.761H139.792V157.866C141.908 157.878 143.11 157.801 144.521 157.522L144.639 158.281C143.158 158.577 141.902 158.636 139.685 158.636H138.868V154.002H143.537ZM146.607 159.81V163.673H139.958V159.81H146.607ZM140.871 160.568V162.915H145.682V160.568H140.871Z" fill="#FF6535"/>
<path d="M165.48 158.103V159.039H161.723V158.103H165.48ZM170.609 158.103V159.039H166.852V158.103H170.609ZM174.965 162.855L174.953 162.073L177.88 158.992C178.899 157.913 179.385 157.333 179.385 156.539C179.385 155.662 178.639 155.081 177.679 155.081C176.659 155.081 176.007 155.733 176.007 156.693H175C174.988 155.176 176.162 154.157 177.714 154.157C179.267 154.157 180.381 155.199 180.381 156.539C180.381 157.499 179.93 158.245 178.413 159.81L176.446 161.836V161.907H180.535V162.855H174.965ZM184.775 162.974C182.867 162.974 181.776 161.374 181.776 158.565C181.776 155.78 182.89 154.157 184.775 154.157C186.659 154.157 187.773 155.78 187.773 158.565C187.773 161.374 186.671 162.974 184.775 162.974ZM184.775 162.026C186.007 162.026 186.73 160.781 186.73 158.565C186.73 156.349 186.007 155.081 184.775 155.081C183.542 155.081 182.807 156.349 182.807 158.565C182.807 160.781 183.53 162.026 184.775 162.026ZM191.93 154.157C193.412 154.168 195.047 155.057 195.047 158.222C195.047 161.267 193.803 162.974 191.788 162.974C190.283 162.974 189.216 162.05 189.003 160.687H190.058C190.247 161.457 190.828 162.026 191.788 162.026C193.186 162.026 194.04 160.817 194.052 158.731H193.933C193.435 159.442 192.653 159.869 191.74 159.869C190.2 159.869 188.932 158.696 188.932 157.036C188.932 155.436 190.105 154.145 191.93 154.157ZM191.93 155.093C190.804 155.093 189.963 155.97 189.975 157.025C189.975 158.091 190.769 158.933 191.895 158.933C193.009 158.933 193.886 158.008 193.886 157.001C193.886 156.017 193.068 155.093 191.93 155.093ZM199.251 154.157C200.733 154.168 202.368 155.057 202.368 158.222C202.368 161.267 201.124 162.974 199.109 162.974C197.604 162.974 196.537 162.05 196.324 160.687H197.379C197.569 161.457 198.149 162.026 199.109 162.026C200.508 162.026 201.361 160.817 201.373 158.731H201.254C200.757 159.442 199.974 159.869 199.062 159.869C197.521 159.869 196.253 158.696 196.253 157.036C196.253 155.436 197.426 154.145 199.251 154.157ZM199.251 155.093C198.126 155.093 197.284 155.97 197.296 157.025C197.296 158.091 198.09 158.933 199.216 158.933C200.33 158.933 201.207 158.008 201.207 157.001C201.207 156.017 200.389 155.093 199.251 155.093ZM204.143 162.927C203.728 162.927 203.373 162.583 203.385 162.156C203.373 161.741 203.728 161.398 204.143 161.398C204.558 161.398 204.902 161.741 204.902 162.156C204.902 162.583 204.558 162.927 204.143 162.927ZM208.869 162.974C206.961 162.974 205.871 161.374 205.871 158.565C205.871 155.78 206.985 154.157 208.869 154.157C210.754 154.157 211.868 155.78 211.868 158.565C211.868 161.374 210.765 162.974 208.869 162.974ZM208.869 162.026C210.102 162.026 210.825 160.781 210.825 158.565C210.825 156.349 210.102 155.081 208.869 155.081C207.637 155.081 206.902 156.349 206.902 158.565C206.902 160.781 207.625 162.026 208.869 162.026ZM215.965 162.974C214.413 162.974 213.239 162.014 213.18 160.699H214.211C214.294 161.469 215.041 162.038 215.965 162.038C217.079 162.038 217.885 161.22 217.885 160.141C217.885 159.027 217.044 158.21 215.894 158.198C215.171 158.186 214.614 158.411 214.294 158.968H213.263L213.868 154.275H218.513V155.223H214.756L214.436 157.736H214.519C214.899 157.439 215.479 157.238 216.084 157.238C217.719 157.238 218.928 158.447 218.928 160.118C218.928 161.777 217.672 162.974 215.965 162.974ZM220.703 162.927C220.288 162.927 219.933 162.583 219.945 162.156C219.933 161.741 220.288 161.398 220.703 161.398C221.118 161.398 221.462 161.741 221.462 162.156C221.462 162.583 221.118 162.927 220.703 162.927ZM224.931 154.275V162.855H223.853V155.389H223.805L221.719 156.776V155.697L223.853 154.275H224.931ZM229.953 154.157C231.435 154.168 233.07 155.057 233.07 158.222C233.07 161.267 231.826 162.974 229.811 162.974C228.306 162.974 227.239 162.05 227.026 160.687H228.081C228.27 161.457 228.851 162.026 229.811 162.026C231.21 162.026 232.063 160.817 232.075 158.731H231.956C231.458 159.442 230.676 159.869 229.764 159.869C228.223 159.869 226.955 158.696 226.955 157.036C226.955 155.436 228.128 154.145 229.953 154.157ZM229.953 155.093C228.827 155.093 227.986 155.97 227.998 157.025C227.998 158.091 228.792 158.933 229.918 158.933C231.032 158.933 231.909 158.008 231.909 157.001C231.909 156.017 231.091 155.093 229.953 155.093Z" fill="#666666"/>
<rect x="85.6035" y="176.957" width="69.3057" height="24.0679" rx="12.034" fill="#F4F4F4"/>
<circle cx="97.7398" cy="188.99" r="6.06793" fill="#999999"/>
<path d="M116.003 183.416V189.697H115.067V186.936H112.945V186.166H115.067V183.416H116.003ZM112.507 190.029C114.699 190.029 116.039 190.74 116.039 191.985C116.039 193.229 114.699 193.94 112.507 193.952C110.314 193.94 108.975 193.229 108.975 191.985C108.975 190.74 110.314 190.029 112.507 190.029ZM112.507 190.752C110.895 190.752 109.888 191.214 109.899 191.985C109.888 192.743 110.895 193.206 112.507 193.206C114.119 193.206 115.114 192.743 115.114 191.985C115.114 191.214 114.119 190.752 112.507 190.752ZM110.931 185.348C110.931 186.723 111.985 188.026 113.526 188.56L113.04 189.306C111.855 188.88 110.936 187.997 110.492 186.901C110.03 188.139 109.052 189.129 107.802 189.603L107.316 188.856C108.88 188.287 109.994 186.865 109.994 185.36V184.969H107.612V184.187H113.289V184.969H110.931V185.348ZM127.283 191.831V192.601H117.636V191.831H121.973V189.555H118.773V184.163H119.71V186.071H125.185V184.163H126.098V189.555H122.886V191.831H127.283ZM119.71 188.797H125.185V186.829H119.71V188.797ZM133.288 184.4C133.288 185.881 135.232 187.173 137.128 187.434L136.749 188.192C135.114 187.92 133.496 187.013 132.814 185.715C132.139 187.019 130.515 187.92 128.88 188.192L128.501 187.434C130.397 187.173 132.329 185.905 132.329 184.4V183.795H133.288V184.4ZM137.602 189.354V190.136H133.241V193.952H132.329V190.136H128.003V189.354H137.602ZM142.162 185.158C142.162 186.533 143.312 187.754 144.876 188.228L144.402 188.963C143.17 188.572 142.18 187.724 141.7 186.64C141.238 187.801 140.242 188.708 138.986 189.14L138.5 188.406C140.088 187.908 141.226 186.604 141.226 185.158V184.886H138.761V184.127H144.592V184.886H142.162V185.158ZM147.069 183.416V189.117H146.144V183.416H147.069ZM141.167 189.638V190.918H146.144V189.638H147.069V193.81H140.242V189.638H141.167ZM141.167 193.051H146.144V191.665H141.167V193.051Z" fill="#666666"/>
<rect x="85.6035" y="207.094" width="69.3057" height="24.0679" rx="12.034" fill="#F4F4F4"/>
<circle cx="97.7398" cy="219.127" r="6.06793" fill="#999999"/>
<path d="M110.788 215.26C110.788 216.694 111.879 218.009 113.407 218.531L112.898 219.265C111.731 218.839 110.812 217.968 110.35 216.871C109.899 218.11 108.963 219.088 107.731 219.562L107.233 218.815C108.809 218.222 109.864 216.812 109.876 215.188V214.098H110.788V215.26ZM115.505 213.553V216.302H117.093V217.085H115.505V219.965H114.581V213.553H115.505ZM112.128 220.237C114.296 220.237 115.6 220.936 115.6 222.145C115.6 223.378 114.296 224.065 112.128 224.065C109.959 224.065 108.631 223.378 108.631 222.145C108.631 220.936 109.959 220.237 112.128 220.237ZM112.128 220.984C110.539 220.984 109.556 221.422 109.568 222.145C109.556 222.892 110.539 223.319 112.128 223.33C113.727 223.319 114.699 222.892 114.699 222.145C114.699 221.422 113.727 220.984 112.128 220.984ZM127.235 218.649V219.419H122.886V220.664H126.062V223.947H118.809V220.664H121.973V219.419H117.636V218.649H127.235ZM126.323 213.897V214.667H124.699V216.883H126.287V217.654H118.572V216.883H120.16V214.667H118.536V213.897H126.323ZM119.733 221.399V223.188H125.149V221.399H119.733ZM121.084 216.883H123.775V214.667H121.084V216.883ZM137.01 213.553V224.089H136.121V213.553H137.01ZM134.877 213.814V223.544H134V218.116H132.222V217.357H134V213.814H134.877ZM131.096 216.563C131.096 218.388 131.914 220.202 133.371 221.043L132.803 221.73C131.766 221.108 131.031 219.971 130.669 218.625C130.284 220.077 129.52 221.316 128.465 221.979L127.872 221.28C129.342 220.403 130.195 218.483 130.195 216.563V215.568H128.169V214.797H133.028V215.568H131.096V216.563ZM146.607 213.553V216.765H148.195V217.547H146.607V221.327H145.682V213.553H146.607ZM147.093 223.082V223.864H140.017V220.522H140.93V223.082H147.093ZM141.333 214.3C142.909 214.3 144.094 215.366 144.106 216.895C144.094 218.424 142.909 219.491 141.333 219.491C139.757 219.491 138.56 218.424 138.571 216.895C138.56 215.366 139.757 214.3 141.333 214.3ZM141.333 215.117C140.29 215.117 139.472 215.852 139.484 216.895C139.472 217.938 140.29 218.673 141.333 218.673C142.399 218.673 143.193 217.938 143.193 216.895C143.193 215.852 142.399 215.117 141.333 215.117Z" fill="#666666"/>
<rect x="85.6035" y="237.23" width="69.3057" height="24.0679" rx="12.034" fill="#F4F4F4"/>
<circle cx="97.7398" cy="249.263" r="6.06793" fill="#999999"/>
<path d="M116.287 243.69V254.226H115.399V243.69H116.287ZM114.154 243.974V253.692H113.265V250.042H111.31V249.272H113.265V247.399H111.488C110.972 249.183 109.817 250.759 107.825 251.95L107.257 251.275C109.55 249.918 110.699 248.015 110.883 245.811H107.731V245.041H111.808C111.808 245.58 111.76 246.113 111.665 246.629H113.265V243.974H114.154ZM127.437 245.325V246.084H125.872V247.565H127.437V248.359H125.872V249.959H124.948V243.69H125.872V245.325H127.437ZM125.872 250.445V254.226H124.948V251.215H118.975V250.445H125.872ZM120.598 244.33C122.198 244.318 123.36 245.349 123.372 246.807C123.36 248.288 122.198 249.307 120.598 249.307C118.999 249.307 117.825 248.288 117.837 246.807C117.825 245.349 118.999 244.318 120.598 244.33ZM120.598 245.124C119.532 245.124 118.738 245.811 118.75 246.807C118.738 247.814 119.532 248.513 120.598 248.501C121.677 248.513 122.459 247.814 122.459 246.807C122.459 245.811 121.677 245.124 120.598 245.124ZM131.084 246.937C131.084 248.632 131.949 250.362 133.383 251.132L132.85 251.832C131.801 251.263 131.043 250.172 130.657 248.904C130.278 250.255 129.526 251.429 128.477 252.069L127.92 251.358C129.354 250.528 130.195 248.679 130.207 246.937V246.416H128.204V245.645H130.207V244.081H131.096V245.645H133.063V246.416H131.084V246.937ZM137.01 243.69V254.226H136.121V243.69H137.01ZM134.877 243.95V253.68H134V248.644H132.34V247.85H134V243.95H134.877ZM147.104 243.69V249.082H146.168V247.98H143.359V247.245H146.168V245.977H143.513C142.85 247.642 141.214 248.762 138.88 249.319L138.548 248.549C141.131 247.95 142.636 246.688 142.814 244.993H139.081V244.223H143.833C143.833 244.573 143.798 244.91 143.739 245.23H146.168V243.69H147.104ZM147.104 249.556V252.128H141.226V253.36H147.46V254.131H140.302V251.417H146.168V250.315H140.278V249.556H147.104Z" fill="#666666"/>
<rect x="85.6035" y="267.363" width="69.3057" height="24.0679" rx="12.034" fill="#F4F4F4"/>
<circle cx="97.7398" cy="279.396" r="6.06793" fill="#999999"/>
<path d="M116.868 278.836V279.606H107.268V278.836H116.868ZM112.068 280.53C114.332 280.53 115.683 281.23 115.695 282.438C115.683 283.659 114.332 284.335 112.068 284.335C109.793 284.335 108.43 283.659 108.43 282.438C108.43 281.23 109.793 280.53 112.068 280.53ZM112.068 281.265C110.374 281.277 109.366 281.692 109.378 282.438C109.366 283.173 110.374 283.588 112.068 283.588C113.739 283.588 114.759 283.173 114.759 282.438C114.759 281.692 113.739 281.277 112.068 281.265ZM116.015 274.368V275.138H112.673C112.708 276.335 114.462 277.248 116.335 277.461L115.991 278.208C114.267 277.988 112.649 277.218 112.068 276.039C111.493 277.218 109.882 277.988 108.145 278.208L107.814 277.461C109.651 277.248 111.416 276.335 111.464 275.138H108.145V274.368H116.015ZM126.358 273.834V281.798H125.41V280.317H123.087V279.559H125.41V273.834H126.358ZM126.619 283.351V284.133H119.141V280.91H120.077V283.351H126.619ZM117.564 278.006C118.916 278.006 120.616 277.988 122.293 277.876C122.501 276.708 122.536 275.837 122.542 275.233H118.513V274.474H123.467V274.889C123.467 275.47 123.467 276.459 123.241 277.793C123.656 277.763 124.059 277.716 124.45 277.662L124.521 278.338C123.538 278.504 122.507 278.605 121.499 278.67V281.099H120.575V278.717C119.532 278.765 118.548 278.776 117.695 278.776L117.564 278.006ZM136.737 273.834V281.561H135.801V277.52H133.632V276.75H135.801V273.834H136.737ZM137.034 283.351V284.133H129.97V280.862H130.906V283.351H137.034ZM131.665 276.003C131.665 277.366 132.72 278.693 134.26 279.215L133.774 279.962C132.583 279.535 131.665 278.646 131.214 277.556C130.758 278.77 129.786 279.742 128.536 280.21L128.05 279.452C129.603 278.907 130.729 277.52 130.729 276.003V275.458H128.346V274.688H134.023V275.458H131.665V276.003ZM143.537 274.439V275.197H139.768V277.97C141.831 277.982 143.075 277.905 144.521 277.615L144.639 278.362C143.134 278.682 141.842 278.741 139.674 278.729H138.856V274.439H143.537ZM146.607 273.822V276.062H148.195V276.833H146.607V279.144H145.682V273.822H146.607ZM146.607 279.665V282.261H140.823V283.458H146.998V284.216H139.911V281.526H145.682V280.424H139.887V279.665H146.607Z" fill="#666666"/>
<rect x="85.6035" y="297.5" width="69.3057" height="24.0679" rx="12.034" fill="#F4F4F4"/>
<circle cx="97.7398" cy="309.533" r="6.06793" fill="#999999"/>
<path d="M115.979 303.959V314.495H115.043V303.959H115.979ZM112.862 305.109C112.85 308.143 111.44 310.821 107.908 312.516L107.399 311.757C110.249 310.406 111.701 308.386 111.914 305.867H107.885V305.109H112.862ZM123.04 304.919V305.701H119.034V307.882H122.803V308.641H119.034V311.189C120.93 311.189 122.264 311.112 123.846 310.845L123.952 311.615C122.305 311.888 120.918 311.947 118.927 311.959H118.098V304.919H123.04ZM125.789 303.959V308.202H127.555V308.996H125.789V314.495H124.865V303.959H125.789ZM131.523 305.666C131.523 307.1 132.613 308.415 134.142 308.937L133.632 309.672C132.465 309.245 131.546 308.374 131.084 307.278C130.634 308.516 129.698 309.494 128.465 309.968L127.967 309.221C129.543 308.629 130.598 307.218 130.61 305.595V304.504H131.523V305.666ZM136.239 303.959V306.709H137.828V307.491H136.239V310.371H135.315V303.959H136.239ZM132.862 310.643C135.031 310.643 136.334 311.343 136.334 312.551C136.334 313.784 135.031 314.471 132.862 314.471C130.693 314.471 129.366 313.784 129.366 312.551C129.366 311.343 130.693 310.643 132.862 310.643ZM132.862 311.39C131.274 311.39 130.29 311.829 130.302 312.551C130.29 313.298 131.274 313.725 132.862 313.737C134.462 313.725 135.434 313.298 135.434 312.551C135.434 311.829 134.462 311.39 132.862 311.39ZM146.607 303.959V306.543H148.195V307.325H146.607V309.944H145.682V303.959H146.607ZM143.537 304.682V305.441H139.792V308.546C141.908 308.558 143.11 308.481 144.521 308.202L144.639 308.961C143.158 309.257 141.902 309.316 139.685 309.316H138.868V304.682H143.537ZM146.607 310.489V314.353H139.958V310.489H146.607ZM140.871 311.248V313.594H145.682V311.248H140.871Z" fill="#666666"/>
<path d="M85.6035 345.84H302.532" stroke="#DDDDDD" stroke-width="0.758491"/>
<rect width="105.43" height="30.1359" transform="translate(85.6035 351.906)" fill="#F4F4F4"/>
<path d="M108.765 363.103C108.765 364.537 109.855 365.853 111.384 366.374L110.874 367.109C109.707 366.682 108.789 365.811 108.326 364.715C107.876 365.954 106.94 366.931 105.707 367.405L105.209 366.659C106.786 366.066 107.84 364.656 107.852 363.032V361.942H108.765V363.103ZM113.482 361.397V364.146H115.07V364.928H113.482V367.808H112.557V361.397H113.482ZM110.104 368.081C112.273 368.081 113.577 368.78 113.577 369.989C113.577 371.222 112.273 371.909 110.104 371.909C107.935 371.909 106.608 371.222 106.608 369.989C106.608 368.78 107.935 368.081 110.104 368.081ZM110.104 368.828C108.516 368.828 107.532 369.266 107.544 369.989C107.532 370.736 108.516 371.162 110.104 371.174C111.704 371.162 112.676 370.736 112.676 369.989C112.676 369.266 111.704 368.828 110.104 368.828ZM118.741 364.395C118.741 366.066 119.559 367.879 120.957 368.709L120.424 369.432C119.411 368.816 118.682 367.69 118.314 366.41C117.923 367.808 117.141 369.011 116.086 369.657L115.494 368.958C116.951 368.105 117.84 366.232 117.84 364.431V362.392H118.741V364.395ZM124.643 361.397V371.933H123.742V361.397H124.643ZM122.462 361.622V371.399H121.585V365.971H119.796V365.177H121.585V361.622H122.462ZM135.626 369.811V370.582H125.979V369.811H130.317V367.536H127.117V362.143H128.053V364.051H133.529V362.143H134.441V367.536H131.23V369.811H135.626ZM128.053 366.777H133.529V364.81H128.053V366.777ZM145.057 361.397V371.933H144.121V361.397H145.057ZM141.94 362.546C141.928 365.58 140.518 368.259 136.986 369.953L136.477 369.195C139.327 367.844 140.779 365.823 140.992 363.305H136.963V362.546H141.94ZM150.162 361.989L147.389 372.264H146.465L149.226 361.989H150.162ZM155.931 362.38C155.931 363.862 157.875 365.154 159.771 365.414L159.392 366.173C157.756 365.9 156.139 364.994 155.457 363.696C154.782 365 153.158 365.9 151.522 366.173L151.143 365.414C153.039 365.154 154.971 363.886 154.971 362.38V361.776H155.931V362.38ZM160.245 367.334V368.116H155.884V371.933H154.971V368.116H150.645V367.334H160.245ZM169.747 361.397V367.678H168.811V364.917H166.689V364.146H168.811V361.397H169.747ZM166.251 368.01C168.443 368.01 169.783 368.721 169.783 369.965C169.783 371.21 168.443 371.921 166.251 371.933C164.058 371.921 162.719 371.21 162.719 369.965C162.719 368.721 164.058 368.01 166.251 368.01ZM166.251 368.733C164.639 368.733 163.632 369.195 163.644 369.965C163.632 370.724 164.639 371.186 166.251 371.186C167.863 371.186 168.858 370.724 168.858 369.965C168.858 369.195 167.863 368.733 166.251 368.733ZM164.675 363.328C164.675 364.703 165.729 366.007 167.27 366.54L166.784 367.287C165.599 366.86 164.681 365.977 164.236 364.881C163.774 366.119 162.796 367.109 161.546 367.583L161.06 366.837C162.624 366.268 163.738 364.845 163.738 363.34V362.949H161.356V362.167H167.033V362.949H164.675V363.328Z" fill="#1E1E1E"/>
<rect width="105.43" height="30.1359" transform="translate(197.102 351.906)" fill="#F4F4F4"/>
<path d="M224.442 361.409V369.112H223.518V361.409H224.442ZM224.774 370.925V371.707H217.639V368.33H218.564V370.925H224.774ZM218.753 362.143C220.33 362.143 221.515 363.21 221.515 364.727C221.515 366.268 220.33 367.322 218.753 367.322C217.177 367.322 215.992 366.268 215.992 364.727C215.992 363.21 217.177 362.143 218.753 362.143ZM218.753 362.961C217.687 362.961 216.893 363.696 216.904 364.727C216.893 365.782 217.687 366.505 218.753 366.505C219.796 366.505 220.602 365.782 220.602 364.727C220.602 363.696 219.796 362.961 218.753 362.961ZM234.489 362.037V362.854C234.489 363.737 234.489 364.81 234.217 366.244H235.757V367.026H226.11V366.244H233.28C233.565 364.786 233.565 363.755 233.565 362.854V362.795H227.331V362.037H234.489ZM234.809 370.913V371.696H227.39V368.211H228.315V370.913H234.809ZM247.852 362.463V363.518C247.84 364.81 247.84 366.256 247.461 368.377L246.513 368.271C246.916 366.256 246.916 364.774 246.916 363.518V363.234H240.421V362.463H247.852ZM249.001 369.669V370.439H239.402V369.669H243.171V365.9H244.083V369.669H249.001ZM258.717 361.409V367.619H257.828V364.834H256.394V367.548H255.505V361.61H256.394V364.063H257.828V361.409H258.717ZM258.717 368.105V371.933H257.804V368.863H251.606V368.105H258.717ZM254.391 362.179C254.391 364.691 252.969 366.599 250.29 367.737L249.828 367.038C252.015 366.143 253.253 364.721 253.431 362.949H250.255V362.179H254.391ZM266.652 363.601C266.652 364.857 267.718 366.019 269.271 366.481L268.832 367.192C267.617 366.831 266.669 366.048 266.213 365.035C265.751 366.149 264.773 366.997 263.523 367.405L263.061 366.671C264.625 366.197 265.739 364.988 265.739 363.601V363.4H263.357V362.629H265.739V361.349H266.675V362.629H269.034V363.4H266.652V363.601ZM271.297 361.397V364.004H272.885V364.786H271.297V367.524H270.373V361.397H271.297ZM271.487 368.093V368.851H268.5C268.654 369.953 270.201 370.902 271.89 371.174L271.546 371.897C270 371.642 268.601 370.878 268.003 369.823C267.398 370.872 266.012 371.619 264.483 371.885L264.127 371.174C265.828 370.902 267.357 369.971 267.517 368.851H264.542V368.093H271.487ZM282.139 361.397V371.933H281.202V361.397H282.139ZM279.022 362.546C279.01 365.58 277.599 368.259 274.068 369.953L273.558 369.195C276.408 367.844 277.86 365.823 278.074 363.305H274.044V362.546H279.022Z" fill="#1E1E1E"/>
<rect width="216.929" height="30.1359" transform="translate(85.6035 388.109)" fill="#F4F4F4"/>
<path d="M175.515 399.306C175.515 400.74 176.605 402.056 178.134 402.577L177.624 403.312C176.457 402.886 175.539 402.014 175.076 400.918C174.626 402.157 173.69 403.134 172.457 403.609L171.959 402.862C173.536 402.269 174.59 400.859 174.602 399.235V398.145H175.515V399.306ZM180.232 397.6V400.349H181.82V401.132H180.232V404.011H179.307V397.6H180.232ZM176.854 404.284C179.023 404.284 180.327 404.983 180.327 406.192C180.327 407.425 179.023 408.112 176.854 408.112C174.685 408.112 173.358 407.425 173.358 406.192C173.358 404.983 174.685 404.284 176.854 404.284ZM176.854 405.031C175.266 405.031 174.282 405.469 174.294 406.192C174.282 406.939 175.266 407.365 176.854 407.377C178.454 407.365 179.426 406.939 179.426 406.192C179.426 405.469 178.454 405.031 176.854 405.031ZM190.599 397.6V400.183H192.187V400.966H190.599V403.585H189.674V397.6H190.599ZM187.529 398.323V399.081H183.784V402.186C185.9 402.198 187.103 402.121 188.513 401.843L188.632 402.601C187.15 402.897 185.894 402.957 183.678 402.957H182.86V398.323H187.529ZM190.599 404.13V407.994H183.95V404.13H190.599ZM184.863 404.888V407.235H189.674V404.888H184.863ZM198.866 398.098C200.406 398.098 201.485 398.927 201.485 400.183C201.485 401.268 200.631 402.056 199.363 402.21V403.241C200.347 403.2 201.348 403.111 202.267 402.969L202.338 403.668C200.11 404.071 197.586 404.094 195.76 404.094L195.642 403.324C196.46 403.33 197.42 403.324 198.427 403.289V402.222C197.123 402.08 196.246 401.286 196.258 400.183C196.246 398.927 197.325 398.098 198.866 398.098ZM198.866 398.821C197.846 398.821 197.123 399.366 197.135 400.183C197.123 400.977 197.846 401.523 198.866 401.535C199.897 401.523 200.596 400.977 200.608 400.183C200.596 399.366 199.897 398.821 198.866 398.821ZM203.879 397.612V401.179H205.455V401.973H203.879V405.671H202.942V397.612H203.879ZM204.258 407.117V407.899H197.183V404.971H198.119V407.117H204.258ZM215.668 406.05V406.832H206.021V406.05H208.735V404.047H207.23V400.8H213.535V399.152H207.206V398.382H214.447V401.57H208.154V403.277H214.696V404.047H213.049V406.05H215.668ZM209.647 406.05H212.136V404.047H209.647V406.05Z" fill="#1E1E1E"/>
</g>
<g filter="url(#filter2_d_407_24412)">
<rect x="326.803" y="0.34375" width="241.2" height="433.817" rx="1.51698" fill="white" shape-rendering="crispEdges"/>
<rect x="327.182" y="0.722996" width="240.442" height="433.059" rx="1.13774" stroke="#DDDDDD" stroke-width="0.758491" shape-rendering="crispEdges"/>
<path d="M342.945 25.4805L343.336 23.1102H341.179L340.788 25.4805H339.923L340.314 23.1102H339.046L339.188 22.2569H340.456L340.812 20.1236H339.556L339.686 19.2703H340.942L341.333 16.9H342.199L341.807 19.2703H343.964L344.356 16.9H345.221L344.83 19.2703H346.11L345.967 20.1236H344.699L344.344 22.2569H345.6L345.458 23.1102H344.201L343.81 25.4805H342.945ZM341.322 22.2569H343.479L343.834 20.1236H341.677L341.322 22.2569ZM349.864 25.599C348.157 25.599 346.936 24.6864 346.877 23.3235H347.956C348.015 24.1413 348.833 24.6509 349.852 24.6509C350.978 24.6509 351.807 24.0346 351.807 23.1457C351.807 22.2095 351.061 21.5458 349.721 21.5458H349.022V20.6095H349.721C350.764 20.6095 351.487 20.0288 351.487 19.14C351.487 18.2867 350.859 17.7059 349.887 17.7059C348.975 17.7059 348.133 18.2155 348.086 19.057H347.055C347.114 17.6941 348.37 16.7815 349.899 16.7815C351.535 16.7815 352.53 17.8481 352.518 19.0807C352.53 20.0525 351.961 20.7755 351.061 21.0243V21.0836C352.175 21.2614 352.862 22.0554 352.85 23.1457C352.862 24.5561 351.57 25.599 349.864 25.599Z" fill="#333333"/>
<path d="M348.086 50.4984C352.275 50.5191 354.64 51.5561 354.66 53.4642C354.64 55.393 352.275 56.3885 348.086 56.3885C343.855 56.3885 341.47 55.393 341.47 53.4642C341.47 51.5561 343.855 50.5191 348.086 50.4984ZM348.086 52.4272C345.41 52.4272 344.187 52.759 344.187 53.4642C344.187 54.1901 345.41 54.4805 348.086 54.4597C350.741 54.4805 351.964 54.1901 351.985 53.4642C351.964 52.759 350.741 52.4272 348.086 52.4272ZM355.822 38.8632V40.8543H340.329V38.8632H346.779V37.37H349.434V38.8632H355.822ZM348.107 41.3728C352.192 41.3728 354.453 42.2853 354.453 44.0897C354.453 45.6556 352.68 46.5578 349.434 46.7444V47.7192H356.714V49.7725H339.499V47.7192H346.779V46.7444C343.544 46.5578 341.739 45.6556 341.76 44.0897C341.739 42.2853 344.041 41.3728 348.107 41.3728ZM348.107 43.1564C345.721 43.1564 344.581 43.426 344.581 44.0897C344.581 44.6912 345.721 44.9815 348.107 44.9815C350.512 44.9815 351.612 44.6912 351.612 44.0897C351.612 43.426 350.512 43.1564 348.107 43.1564ZM378.128 37.5151V47.0141H375.473V37.5151H378.128ZM372.404 38.1996C372.383 43.3846 369.5 46.2052 363.527 47.4081L362.594 45.2719C367.25 44.4112 369.189 42.6068 369.48 40.3358H363.61V38.1996H372.404ZM378.128 47.7607V52.8627H368.173V54.1486H378.647V56.2019H365.497V50.9547H375.453V49.814H365.456V47.7607H378.128ZM397.722 46.4333V48.5073H380.467V46.4333H387.809V44.8156H382.561V38.3447H395.648V40.398H385.195V42.7416H395.752V44.8156H390.401V46.4333H397.722ZM389.053 49.4614C393.139 49.4614 395.607 50.7058 395.628 52.9457C395.607 55.1441 393.139 56.4093 389.053 56.4093C384.926 56.4093 382.437 55.1441 382.437 52.9457C382.437 50.7058 384.926 49.4614 389.053 49.4614ZM389.053 51.4732C386.44 51.4732 385.112 51.9709 385.133 52.9457C385.112 53.9412 386.44 54.3975 389.053 54.3975C391.604 54.3975 392.952 53.9412 392.973 52.9457C392.952 51.9709 391.604 51.4732 389.053 51.4732Z" fill="#333333"/>
<path d="M345.209 66.7223V67.2793C345.197 67.9667 345.197 69.0214 344.936 70.3962L344 70.3251C344.255 69.0629 344.279 68.1681 344.296 67.5045H339.959V66.7223H345.209ZM342.495 69.057V71.3206C343.662 71.2732 344.871 71.1903 345.967 71.0362L346.027 71.7236C343.822 72.1028 341.274 72.1502 339.402 72.1502L339.307 71.3799C339.988 71.3739 340.759 71.368 341.57 71.3443V69.057H342.495ZM347.627 65.9045V69.3414H349.167V70.1355H347.627V73.8331H346.678V65.9045H347.627ZM347.97 75.4331V76.2153H340.93V73.122H341.867V75.4331H347.97ZM358.432 65.9045V76.4641H357.508V65.9045H358.432ZM355.232 66.8882V70.6332H351.298V73.122C353.046 73.122 354.604 73.045 356.489 72.7428L356.583 73.525C354.64 73.8331 353.04 73.9042 351.227 73.9042H350.35V69.8747H354.296V67.6585H350.326V66.8882H355.232ZM368.55 66.9711V68.0259C368.539 69.3177 368.539 70.7636 368.159 72.885L367.211 72.7783C367.614 70.7636 367.614 69.2822 367.614 68.0259V67.7415H361.12V66.9711H368.55ZM369.7 74.1768V74.9472H360.1V74.1768H363.869V70.4081H364.782V74.1768H369.7ZM379.415 65.9164V72.1265H378.527V69.3414H377.093V72.0554H376.204V66.1178H377.093V68.5711H378.527V65.9164H379.415ZM379.415 72.6124V76.4404H378.503V73.3709H372.305V72.6124H379.415ZM375.09 66.6867C375.09 69.1992 373.667 71.1073 370.989 72.245L370.527 71.5458C372.713 70.651 373.952 69.2288 374.13 67.4571H370.953V66.6867H375.09Z" fill="#333333"/>
<path d="M342.554 93.599C340.646 93.599 339.556 91.999 339.556 89.1903C339.556 86.4052 340.67 84.7815 342.554 84.7815C344.439 84.7815 345.553 86.4052 345.553 89.1903C345.553 91.999 344.45 93.599 342.554 93.599ZM342.554 92.6509C343.787 92.6509 344.51 91.4065 344.51 89.1903C344.51 86.974 343.787 85.7059 342.554 85.7059C341.322 85.7059 340.587 86.974 340.587 89.1903C340.587 91.4065 341.31 92.6509 342.554 92.6509ZM349.887 84.9V93.4805H348.809V86.0141H348.761L346.676 87.4007V86.3222L348.809 84.9H349.887ZM354.862 93.599C352.954 93.599 351.864 91.999 351.864 89.1903C351.864 86.4052 352.978 84.7815 354.862 84.7815C356.746 84.7815 357.86 86.4052 357.86 89.1903C357.86 91.999 356.758 93.599 354.862 93.599ZM354.862 92.6509C356.095 92.6509 356.818 91.4065 356.818 89.1903C356.818 86.974 356.095 85.7059 354.862 85.7059C353.63 85.7059 352.895 86.974 352.895 89.1903C352.895 91.4065 353.618 92.6509 354.862 92.6509ZM362.859 88.728V89.6643H359.102V88.728H362.859ZM367.099 93.599C365.191 93.599 364.101 91.999 364.101 89.1903C364.101 86.4052 365.215 84.7815 367.099 84.7815C368.983 84.7815 370.097 86.4052 370.097 89.1903C370.097 91.999 368.995 93.599 367.099 93.599ZM367.099 92.6509C368.331 92.6509 369.054 91.4065 369.054 89.1903C369.054 86.974 368.331 85.7059 367.099 85.7059C365.866 85.7059 365.132 86.974 365.132 89.1903C365.132 91.4065 365.855 92.6509 367.099 92.6509ZM374.207 93.599C372.299 93.599 371.209 91.999 371.209 89.1903C371.209 86.4052 372.323 84.7815 374.207 84.7815C376.091 84.7815 377.205 86.4052 377.205 89.1903C377.205 91.999 376.103 93.599 374.207 93.599ZM374.207 92.6509C375.439 92.6509 376.162 91.4065 376.162 89.1903C376.162 86.974 375.439 85.7059 374.207 85.7059C372.974 85.7059 372.24 86.974 372.24 89.1903C372.24 91.4065 372.963 92.6509 374.207 92.6509ZM381.315 93.599C379.407 93.599 378.317 91.999 378.317 89.1903C378.317 86.4052 379.431 84.7815 381.315 84.7815C383.199 84.7815 384.313 86.4052 384.313 89.1903C384.313 91.999 383.211 93.599 381.315 93.599ZM381.315 92.6509C382.547 92.6509 383.27 91.4065 383.27 89.1903C383.27 86.974 382.547 85.7059 381.315 85.7059C380.082 85.7059 379.348 86.974 379.348 89.1903C379.348 91.4065 380.071 92.6509 381.315 92.6509ZM388.423 93.599C386.515 93.599 385.425 91.999 385.425 89.1903C385.425 86.4052 386.539 84.7815 388.423 84.7815C390.307 84.7815 391.421 86.4052 391.421 89.1903C391.421 91.999 390.319 93.599 388.423 93.599ZM388.423 92.6509C389.656 92.6509 390.378 91.4065 390.378 89.1903C390.378 86.974 389.656 85.7059 388.423 85.7059C387.19 85.7059 386.456 86.974 386.456 89.1903C386.456 91.4065 387.179 92.6509 388.423 92.6509ZM396.42 88.728V89.6643H392.663V88.728H396.42ZM400.66 93.599C398.752 93.599 397.661 91.999 397.661 89.1903C397.661 86.4052 398.775 84.7815 400.66 84.7815C402.544 84.7815 403.658 86.4052 403.658 89.1903C403.658 91.999 402.556 93.599 400.66 93.599ZM400.66 92.6509C401.892 92.6509 402.615 91.4065 402.615 89.1903C402.615 86.974 401.892 85.7059 400.66 85.7059C399.427 85.7059 398.692 86.974 398.692 89.1903C398.692 91.4065 399.415 92.6509 400.66 92.6509ZM407.768 93.599C405.86 93.599 404.769 91.999 404.769 89.1903C404.769 86.4052 405.883 84.7815 407.768 84.7815C409.652 84.7815 410.766 86.4052 410.766 89.1903C410.766 91.999 409.664 93.599 407.768 93.599ZM407.768 92.6509C409 92.6509 409.723 91.4065 409.723 89.1903C409.723 86.974 409 85.7059 407.768 85.7059C406.535 85.7059 405.8 86.974 405.8 89.1903C405.8 91.4065 406.523 92.6509 407.768 92.6509ZM414.876 93.599C412.968 93.599 411.877 91.999 411.877 89.1903C411.877 86.4052 412.991 84.7815 414.876 84.7815C416.76 84.7815 417.874 86.4052 417.874 89.1903C417.874 91.999 416.772 93.599 414.876 93.599ZM414.876 92.6509C416.108 92.6509 416.831 91.4065 416.831 89.1903C416.831 86.974 416.108 85.7059 414.876 85.7059C413.643 85.7059 412.908 86.974 412.908 89.1903C412.908 91.4065 413.631 92.6509 414.876 92.6509ZM421.984 93.599C420.076 93.599 418.985 91.999 418.985 89.1903C418.985 86.4052 420.099 84.7815 421.984 84.7815C423.868 84.7815 424.982 86.4052 424.982 89.1903C424.982 91.999 423.88 93.599 421.984 93.599ZM421.984 92.6509C423.216 92.6509 423.939 91.4065 423.939 89.1903C423.939 86.974 423.216 85.7059 421.984 85.7059C420.751 85.7059 420.016 86.974 420.016 89.1903C420.016 91.4065 420.739 92.6509 421.984 92.6509Z" fill="#333333"/>
<path d="M342.886 103.611C342.886 105.045 343.976 106.361 345.505 106.882L344.996 107.617C343.828 107.19 342.91 106.319 342.447 105.223C341.997 106.461 341.061 107.439 339.828 107.913L339.331 107.167C340.907 106.574 341.962 105.164 341.973 103.54V102.45H342.886V103.611ZM347.603 101.905V104.654H349.191V105.436H347.603V108.316H346.678V101.905H347.603ZM344.225 108.589C346.394 108.589 347.698 109.288 347.698 110.497C347.698 111.729 346.394 112.417 344.225 112.417C342.056 112.417 340.729 111.729 340.729 110.497C340.729 109.288 342.056 108.589 344.225 108.589ZM344.225 109.335C342.637 109.335 341.653 109.774 341.665 110.497C341.653 111.243 342.637 111.67 344.225 111.682C345.825 111.67 346.797 111.243 346.797 110.497C346.797 109.774 345.825 109.335 344.225 109.335ZM354.332 103.125V103.884H351.049V105.91H354.178V106.657H351.049V109.039C352.613 109.033 353.579 108.992 354.735 108.778L354.818 109.549C353.585 109.786 352.566 109.833 350.835 109.833H350.16V103.125H354.332ZM358.764 101.905V112.44H357.863V106.918H356.417V111.907H355.517V102.13H356.417V106.147H357.863V101.905H358.764ZM364.139 110.343C363.724 110.343 363.369 109.999 363.38 109.572C363.369 109.158 363.724 108.814 364.139 108.814C364.554 108.814 364.897 109.158 364.897 109.572C364.897 109.999 364.554 110.343 364.139 110.343ZM364.139 105.578C363.724 105.578 363.369 105.235 363.38 104.808C363.369 104.393 363.724 104.05 364.139 104.05C364.554 104.05 364.897 104.393 364.897 104.808C364.897 105.235 364.554 105.578 364.139 105.578ZM372.429 103.611C372.429 105.045 373.52 106.361 375.048 106.882L374.539 107.617C373.371 107.19 372.453 106.319 371.991 105.223C371.54 106.461 370.604 107.439 369.372 107.913L368.874 107.167C370.45 106.574 371.505 105.164 371.517 103.54V102.45H372.429V103.611ZM377.146 101.905V104.654H378.734V105.436H377.146V108.316H376.222V101.905H377.146ZM373.768 108.589C375.937 108.589 377.241 109.288 377.241 110.497C377.241 111.729 375.937 112.417 373.768 112.417C371.6 112.417 370.272 111.729 370.272 110.497C370.272 109.288 371.6 108.589 373.768 108.589ZM373.768 109.335C372.18 109.335 371.197 109.774 371.209 110.497C371.197 111.243 372.18 111.67 373.768 111.682C375.368 111.67 376.34 111.243 376.34 110.497C376.34 109.774 375.368 109.335 373.768 109.335ZM387.513 101.905V104.488H389.101V105.27H387.513V107.889H386.589V101.905H387.513ZM384.444 102.627V103.386H380.699V106.491C382.814 106.503 384.017 106.426 385.427 106.147L385.546 106.906C384.064 107.202 382.808 107.261 380.592 107.261H379.774V102.627H384.444ZM387.513 108.435V112.298H380.865V108.435H387.513ZM381.777 109.193V111.54H386.589V109.193H381.777ZM396.361 104.168C396.361 105.59 397.486 106.87 399.063 107.368L398.589 108.115C397.362 107.7 396.384 106.835 395.91 105.721C395.448 106.924 394.458 107.872 393.208 108.328L392.722 107.581C394.298 107.024 395.424 105.661 395.424 104.168V103.552H392.959V102.793H398.79V103.552H396.361V104.168ZM401.267 101.916V109.643H400.343V101.916H401.267ZM401.599 111.433V112.215H394.464V108.909H395.389V111.433H401.599ZM411.883 101.905V108.577H410.994V105.555H409.584V108.198H408.707V102.118H409.584V104.784H410.994V101.905H411.883ZM408.28 103.173V103.919H402.876V103.173H405.128V101.987H406.052V103.173H408.28ZM405.59 104.488C406.929 104.488 407.842 105.187 407.854 106.29C407.842 107.368 406.929 108.079 405.59 108.079C404.263 108.079 403.326 107.368 403.338 106.29C403.326 105.187 404.263 104.488 405.59 104.488ZM405.59 105.176C404.749 105.176 404.168 105.626 404.168 106.29C404.168 106.941 404.749 107.38 405.59 107.38C406.431 107.38 407.012 106.941 407.012 106.29C407.012 105.626 406.431 105.176 405.59 105.176ZM408.399 108.755C410.615 108.755 411.942 109.418 411.942 110.603C411.942 111.753 410.615 112.417 408.399 112.417C406.183 112.417 404.855 111.753 404.867 110.603C404.855 109.418 406.183 108.755 408.399 108.755ZM408.399 109.489C406.763 109.478 405.78 109.881 405.791 110.603C405.78 111.291 406.763 111.694 408.399 111.694C410.034 111.694 411.006 111.291 411.018 110.603C411.006 109.881 410.034 109.478 408.399 109.489ZM425.827 106.835V107.605H421.477V108.731C423.468 108.814 424.641 109.466 424.653 110.58C424.641 111.753 423.29 112.417 421.027 112.417C418.739 112.417 417.388 111.753 417.388 110.58C417.388 109.466 418.556 108.814 420.564 108.731V107.605H416.227V106.835H425.827ZM421.027 109.442C419.332 109.454 418.325 109.869 418.336 110.58C418.325 111.279 419.332 111.694 421.027 111.694C422.698 111.694 423.717 111.279 423.717 110.58C423.717 109.869 422.698 109.454 421.027 109.442ZM424.973 102.402V103.161H421.631C421.69 104.346 423.433 105.264 425.293 105.46L424.95 106.195C423.225 105.987 421.607 105.217 421.027 104.038C420.452 105.217 418.84 105.987 417.104 106.195L416.772 105.46C418.597 105.264 420.351 104.346 420.422 103.161H417.104V102.402H424.973Z" fill="#3586FF"/>
<path d="M338.939 122.547H555.868" stroke="#DDDDDD" stroke-width="0.758491"/>
<rect x="338.939" y="146.82" width="69.3057" height="24.0679" rx="12.034" fill="#F4F4F4"/>
<circle cx="351.076" cy="158.853" r="6.06793" fill="#FF6535"/>
<path d="M370.251 161.682V162.464H360.604V161.682H364.954V159.122H365.89V161.682H370.251ZM365.89 155.282C365.89 156.965 367.976 158.411 369.789 158.707L369.41 159.442C367.798 159.128 366.098 158.103 365.428 156.633C364.746 158.109 363.052 159.158 361.47 159.49L361.078 158.743C362.856 158.435 364.93 156.965 364.93 155.282V155.022H361.398V154.239H369.422V155.022H365.89V155.282ZM379.611 153.28V163.815H378.687V153.28H379.611ZM371.031 161.007C371.932 161.001 372.963 160.995 374.029 160.959V159.81C372.767 159.673 371.943 158.956 371.955 157.902C371.943 156.716 372.963 155.946 374.48 155.946C375.997 155.946 377.028 156.716 377.028 157.902C377.028 158.944 376.21 159.662 374.965 159.798V160.924C375.985 160.882 377.016 160.805 377.988 160.675L378.059 161.386C375.712 161.765 373.128 161.801 371.173 161.801L371.031 161.007ZM377.715 154.583V155.342H371.256V154.583H374.029V153.291H374.965V154.583H377.715ZM374.48 156.669C373.508 156.669 372.82 157.167 372.82 157.902C372.82 158.636 373.508 159.11 374.48 159.099C375.463 159.11 376.139 158.636 376.139 157.902C376.139 157.167 375.463 156.669 374.48 156.669ZM384.859 154.986C384.859 156.42 385.949 157.736 387.478 158.257L386.968 158.992C385.801 158.565 384.882 157.694 384.42 156.598C383.97 157.836 383.033 158.814 381.801 159.288L381.303 158.542C382.879 157.949 383.934 156.539 383.946 154.915V153.825H384.859V154.986ZM389.575 153.28V156.029H391.164V156.811H389.575V159.691H388.651V153.28H389.575ZM386.198 159.964C388.367 159.964 389.67 160.663 389.67 161.872C389.67 163.104 388.367 163.792 386.198 163.792C384.029 163.792 382.702 163.104 382.702 161.872C382.702 160.663 384.029 159.964 386.198 159.964ZM386.198 160.71C384.61 160.71 383.626 161.149 383.638 161.872C383.626 162.618 384.61 163.045 386.198 163.057C387.798 163.045 388.77 162.618 388.77 161.872C388.77 161.149 387.798 160.71 386.198 160.71ZM399.943 153.28V155.863H401.531V156.645H399.943V159.264H399.018V153.28H399.943ZM396.873 154.002V154.761H393.128V157.866C395.244 157.878 396.446 157.801 397.857 157.522L397.975 158.281C396.494 158.577 395.238 158.636 393.021 158.636H392.204V154.002H396.873ZM399.943 159.81V163.673H393.294V159.81H399.943ZM394.207 160.568V162.915H399.018V160.568H394.207Z" fill="#FF6535"/>
<path d="M418.816 158.103V159.039H415.059V158.103H418.816ZM423.945 158.103V159.039H420.188V158.103H423.945ZM428.301 162.855L428.289 162.073L431.216 158.992C432.235 157.913 432.721 157.333 432.721 156.539C432.721 155.662 431.974 155.081 431.014 155.081C429.995 155.081 429.343 155.733 429.343 156.693H428.336C428.324 155.176 429.497 154.157 431.05 154.157C432.603 154.157 433.717 155.199 433.717 156.539C433.717 157.499 433.266 158.245 431.749 159.81L429.782 161.836V161.907H433.871V162.855H428.301ZM438.111 162.974C436.203 162.974 435.112 161.374 435.112 158.565C435.112 155.78 436.226 154.157 438.111 154.157C439.995 154.157 441.109 155.78 441.109 158.565C441.109 161.374 440.007 162.974 438.111 162.974ZM438.111 162.026C439.343 162.026 440.066 160.781 440.066 158.565C440.066 156.349 439.343 155.081 438.111 155.081C436.878 155.081 436.143 156.349 436.143 158.565C436.143 160.781 436.866 162.026 438.111 162.026ZM445.266 154.157C446.747 154.168 448.383 155.057 448.383 158.222C448.383 161.267 447.139 162.974 445.124 162.974C443.619 162.974 442.552 162.05 442.339 160.687H443.394C443.583 161.457 444.164 162.026 445.124 162.026C446.522 162.026 447.376 160.817 447.387 158.731H447.269C446.771 159.442 445.989 159.869 445.076 159.869C443.536 159.869 442.268 158.696 442.268 157.036C442.268 155.436 443.441 154.145 445.266 154.157ZM445.266 155.093C444.14 155.093 443.299 155.97 443.311 157.025C443.311 158.091 444.105 158.933 445.231 158.933C446.345 158.933 447.222 158.008 447.222 157.001C447.222 156.017 446.404 155.093 445.266 155.093ZM452.587 154.157C454.069 154.168 455.704 155.057 455.704 158.222C455.704 161.267 454.46 162.974 452.445 162.974C450.94 162.974 449.873 162.05 449.66 160.687H450.715C450.904 161.457 451.485 162.026 452.445 162.026C453.844 162.026 454.697 160.817 454.709 158.731H454.59C454.093 159.442 453.31 159.869 452.398 159.869C450.857 159.869 449.589 158.696 449.589 157.036C449.589 155.436 450.762 154.145 452.587 154.157ZM452.587 155.093C451.462 155.093 450.62 155.97 450.632 157.025C450.632 158.091 451.426 158.933 452.552 158.933C453.666 158.933 454.543 158.008 454.543 157.001C454.543 156.017 453.725 155.093 452.587 155.093ZM457.479 162.927C457.064 162.927 456.709 162.583 456.721 162.156C456.709 161.741 457.064 161.398 457.479 161.398C457.894 161.398 458.238 161.741 458.238 162.156C458.238 162.583 457.894 162.927 457.479 162.927ZM462.205 162.974C460.297 162.974 459.207 161.374 459.207 158.565C459.207 155.78 460.321 154.157 462.205 154.157C464.089 154.157 465.203 155.78 465.203 158.565C465.203 161.374 464.101 162.974 462.205 162.974ZM462.205 162.026C463.438 162.026 464.161 160.781 464.161 158.565C464.161 156.349 463.438 155.081 462.205 155.081C460.973 155.081 460.238 156.349 460.238 158.565C460.238 160.781 460.961 162.026 462.205 162.026ZM469.491 162.974C467.998 162.95 466.362 162.073 466.362 158.897C466.362 155.863 467.606 154.157 469.621 154.157C471.126 154.157 472.181 155.081 472.406 156.432H471.352C471.15 155.674 470.581 155.105 469.621 155.105C468.211 155.105 467.369 156.313 467.369 158.376H467.476C467.974 157.665 468.756 157.238 469.68 157.238C471.209 157.238 472.477 158.423 472.477 160.082C472.477 161.694 471.292 162.986 469.491 162.974ZM469.491 162.038C470.605 162.038 471.434 161.161 471.446 160.094C471.434 159.039 470.64 158.174 469.515 158.174C468.389 158.174 467.524 159.087 467.512 160.106C467.512 161.113 468.341 162.038 469.491 162.038ZM474.157 162.927C473.743 162.927 473.387 162.583 473.399 162.156C473.387 161.741 473.743 161.398 474.157 161.398C474.572 161.398 474.916 161.741 474.916 162.156C474.916 162.583 474.572 162.927 474.157 162.927ZM479.026 162.974C477.319 162.974 476.098 162.061 476.039 160.699H477.117C477.177 161.516 477.994 162.026 479.014 162.026C480.14 162.026 480.969 161.41 480.969 160.521C480.969 159.584 480.223 158.921 478.883 158.921H478.184V157.985H478.883C479.926 157.985 480.649 157.404 480.649 156.515C480.649 155.662 480.021 155.081 479.049 155.081C478.137 155.081 477.295 155.591 477.248 156.432H476.217C476.276 155.069 477.532 154.157 479.061 154.157C480.697 154.157 481.692 155.223 481.68 156.456C481.692 157.428 481.123 158.15 480.223 158.399V158.459C481.337 158.636 482.024 159.43 482.012 160.521C482.024 161.931 480.732 162.974 479.026 162.974ZM486.24 162.974C484.332 162.974 483.242 161.374 483.242 158.565C483.242 155.78 484.356 154.157 486.24 154.157C488.125 154.157 489.239 155.78 489.239 158.565C489.239 161.374 488.136 162.974 486.24 162.974ZM486.24 162.026C487.473 162.026 488.196 160.781 488.196 158.565C488.196 156.349 487.473 155.081 486.24 155.081C485.008 155.081 484.273 156.349 484.273 158.565C484.273 160.781 484.996 162.026 486.24 162.026Z" fill="#666666"/>
<rect x="338.939" y="176.957" width="69.3057" height="24.0679" rx="12.034" fill="#F4F4F4"/>
<circle cx="351.076" cy="188.99" r="6.06793" fill="#FF6535"/>
<path d="M369.339 183.416V189.697H368.403V186.936H366.281V186.166H368.403V183.416H369.339ZM365.843 190.029C368.035 190.029 369.374 190.74 369.374 191.985C369.374 193.229 368.035 193.94 365.843 193.952C363.65 193.94 362.311 193.229 362.311 191.985C362.311 190.74 363.65 190.029 365.843 190.029ZM365.843 190.752C364.231 190.752 363.224 191.214 363.235 191.985C363.224 192.743 364.231 193.206 365.843 193.206C367.455 193.206 368.45 192.743 368.45 191.985C368.45 191.214 367.455 190.752 365.843 190.752ZM364.266 185.348C364.266 186.723 365.321 188.026 366.862 188.56L366.376 189.306C365.191 188.88 364.272 187.997 363.828 186.901C363.366 188.139 362.388 189.129 361.138 189.603L360.652 188.856C362.216 188.287 363.33 186.865 363.33 185.36V184.969H360.948V184.187H366.625V184.969H364.266V185.348ZM380.619 191.831V192.601H370.972V191.831H375.309V189.555H372.109V184.163H373.046V186.071H378.521V184.163H379.433V189.555H376.222V191.831H380.619ZM373.046 188.797H378.521V186.829H373.046V188.797ZM386.624 184.4C386.624 185.881 388.568 187.173 390.464 187.434L390.085 188.192C388.45 187.92 386.832 187.013 386.15 185.715C385.475 187.019 383.851 187.92 382.216 188.192L381.836 187.434C383.733 187.173 385.664 185.905 385.664 184.4V183.795H386.624V184.4ZM390.938 189.354V190.136H386.577V193.952H385.664V190.136H381.339V189.354H390.938ZM395.498 185.158C395.498 186.533 396.648 187.754 398.212 188.228L397.738 188.963C396.506 188.572 395.516 187.724 395.036 186.64C394.574 187.801 393.578 188.708 392.322 189.14L391.836 188.406C393.424 187.908 394.562 186.604 394.562 185.158V184.886H392.097V184.127H397.928V184.886H395.498V185.158ZM400.405 183.416V189.117H399.48V183.416H400.405ZM394.503 189.638V190.918H399.48V189.638H400.405V193.81H393.578V189.638H394.503ZM394.503 193.051H399.48V191.665H394.503V193.051Z" fill="#FF6535"/>
<path d="M418.816 188.24V189.176H415.059V188.24H418.816ZM423.945 188.24V189.176H420.188V188.24H423.945ZM428.301 192.992L428.289 192.21L431.216 189.129C432.235 188.05 432.721 187.469 432.721 186.675C432.721 185.798 431.974 185.218 431.014 185.218C429.995 185.218 429.343 185.869 429.343 186.829H428.336C428.324 185.312 429.497 184.293 431.05 184.293C432.603 184.293 433.717 185.336 433.717 186.675C433.717 187.635 433.266 188.382 431.749 189.946L429.782 191.973V192.044H433.871V192.992H428.301ZM438.111 193.111C436.203 193.111 435.112 191.511 435.112 188.702C435.112 185.917 436.226 184.293 438.111 184.293C439.995 184.293 441.109 185.917 441.109 188.702C441.109 191.511 440.007 193.111 438.111 193.111ZM438.111 192.163C439.343 192.163 440.066 190.918 440.066 188.702C440.066 186.486 439.343 185.218 438.111 185.218C436.878 185.218 436.143 186.486 436.143 188.702C436.143 190.918 436.866 192.163 438.111 192.163ZM445.266 184.293C446.747 184.305 448.383 185.194 448.383 188.358C448.383 191.404 447.139 193.111 445.124 193.111C443.619 193.111 442.552 192.186 442.339 190.823H443.394C443.583 191.594 444.164 192.163 445.124 192.163C446.522 192.163 447.376 190.954 447.387 188.868H447.269C446.771 189.579 445.989 190.006 445.076 190.006C443.536 190.006 442.268 188.832 442.268 187.173C442.268 185.573 443.441 184.281 445.266 184.293ZM445.266 185.23C444.14 185.23 443.299 186.107 443.311 187.161C443.311 188.228 444.105 189.069 445.231 189.069C446.345 189.069 447.222 188.145 447.222 187.138C447.222 186.154 446.404 185.23 445.266 185.23ZM452.587 184.293C454.069 184.305 455.704 185.194 455.704 188.358C455.704 191.404 454.46 193.111 452.445 193.111C450.94 193.111 449.873 192.186 449.66 190.823H450.715C450.904 191.594 451.485 192.163 452.445 192.163C453.844 192.163 454.697 190.954 454.709 188.868H454.59C454.093 189.579 453.31 190.006 452.398 190.006C450.857 190.006 449.589 188.832 449.589 187.173C449.589 185.573 450.762 184.281 452.587 184.293ZM452.587 185.23C451.462 185.23 450.62 186.107 450.632 187.161C450.632 188.228 451.426 189.069 452.552 189.069C453.666 189.069 454.543 188.145 454.543 187.138C454.543 186.154 453.725 185.23 452.587 185.23ZM457.479 193.063C457.064 193.063 456.709 192.72 456.721 192.293C456.709 191.878 457.064 191.534 457.479 191.534C457.894 191.534 458.238 191.878 458.238 192.293C458.238 192.72 457.894 193.063 457.479 193.063ZM462.205 193.111C460.297 193.111 459.207 191.511 459.207 188.702C459.207 185.917 460.321 184.293 462.205 184.293C464.089 184.293 465.203 185.917 465.203 188.702C465.203 191.511 464.101 193.111 462.205 193.111ZM462.205 192.163C463.438 192.163 464.161 190.918 464.161 188.702C464.161 186.486 463.438 185.218 462.205 185.218C460.973 185.218 460.238 186.486 460.238 188.702C460.238 190.918 460.961 192.163 462.205 192.163ZM466.54 192.992L470.475 185.419V185.36H465.935V184.412H471.577V185.407L467.654 192.992H466.54ZM472.095 193.063C471.681 193.063 471.325 192.72 471.337 192.293C471.325 191.878 471.681 191.534 472.095 191.534C472.51 191.534 472.854 191.878 472.854 192.293C472.854 192.72 472.51 193.063 472.095 193.063ZM476.821 193.111C474.913 193.111 473.823 191.511 473.823 188.702C473.823 185.917 474.937 184.293 476.821 184.293C478.706 184.293 479.82 185.917 479.82 188.702C479.82 191.511 478.717 193.111 476.821 193.111ZM476.821 192.163C478.054 192.163 478.777 190.918 478.777 188.702C478.777 186.486 478.054 185.218 476.821 185.218C475.589 185.218 474.854 186.486 474.854 188.702C474.854 190.918 475.577 192.163 476.821 192.163ZM480.907 191.238V190.361L484.771 184.412H486.086V190.302H487.283V191.238H486.086V192.992H485.067V191.238H480.907ZM482.057 190.302H485.067V185.763H484.96L482.057 190.231V190.302Z" fill="#666666"/>
<rect x="338.939" y="207.094" width="69.3057" height="24.0679" rx="12.034" fill="#F4F4F4"/>
<circle cx="351.076" cy="219.127" r="6.06793" fill="#FF6535"/>
<path d="M364.124 215.26C364.124 216.694 365.215 218.009 366.743 218.531L366.234 219.265C365.066 218.839 364.148 217.968 363.686 216.871C363.235 218.11 362.299 219.088 361.067 219.562L360.569 218.815C362.145 218.222 363.2 216.812 363.212 215.188V214.098H364.124V215.26ZM368.841 213.553V216.302H370.429V217.085H368.841V219.965H367.917V213.553H368.841ZM365.463 220.237C367.632 220.237 368.936 220.936 368.936 222.145C368.936 223.378 367.632 224.065 365.463 224.065C363.295 224.065 361.967 223.378 361.967 222.145C361.967 220.936 363.295 220.237 365.463 220.237ZM365.463 220.984C363.875 220.984 362.892 221.422 362.904 222.145C362.892 222.892 363.875 223.319 365.463 223.33C367.063 223.319 368.035 222.892 368.035 222.145C368.035 221.422 367.063 220.984 365.463 220.984ZM380.571 218.649V219.419H376.222V220.664H379.398V223.947H372.145V220.664H375.309V219.419H370.972V218.649H380.571ZM379.659 213.897V214.667H378.035V216.883H379.623V217.654H371.908V216.883H373.496V214.667H371.872V213.897H379.659ZM373.069 221.399V223.188H378.485V221.399H373.069ZM374.42 216.883H377.111V214.667H374.42V216.883ZM390.346 213.553V224.089H389.457V213.553H390.346ZM388.213 213.814V223.544H387.336V218.116H385.558V217.357H387.336V213.814H388.213ZM384.432 216.563C384.432 218.388 385.25 220.202 386.707 221.043L386.139 221.73C385.102 221.108 384.367 219.971 384.005 218.625C383.62 220.077 382.856 221.316 381.801 221.979L381.208 221.28C382.678 220.403 383.531 218.483 383.531 216.563V215.568H381.505V214.797H386.364V215.568H384.432V216.563ZM399.943 213.553V216.765H401.531V217.547H399.943V221.327H399.018V213.553H399.943ZM400.428 223.082V223.864H393.353V220.522H394.266V223.082H400.428ZM394.669 214.3C396.245 214.3 397.43 215.366 397.442 216.895C397.43 218.424 396.245 219.491 394.669 219.491C393.092 219.491 391.895 218.424 391.907 216.895C391.895 215.366 393.092 214.3 394.669 214.3ZM394.669 215.117C393.626 215.117 392.808 215.852 392.82 216.895C392.808 217.938 393.626 218.673 394.669 218.673C395.735 218.673 396.529 217.938 396.529 216.895C396.529 215.852 395.735 215.117 394.669 215.117Z" fill="#FF6535"/>
<path d="M418.816 218.376V219.313H415.059V218.376H418.816ZM423.945 218.376V219.313H420.188V218.376H423.945ZM428.301 223.129L428.289 222.347L431.216 219.265C432.235 218.187 432.721 217.606 432.721 216.812C432.721 215.935 431.974 215.354 431.014 215.354C429.995 215.354 429.343 216.006 429.343 216.966H428.336C428.324 215.449 429.497 214.43 431.05 214.43C432.603 214.43 433.717 215.473 433.717 216.812C433.717 217.772 433.266 218.519 431.749 220.083L429.782 222.11V222.181H433.871V223.129H428.301ZM438.111 223.247C436.203 223.247 435.112 221.647 435.112 218.839C435.112 216.054 436.226 214.43 438.111 214.43C439.995 214.43 441.109 216.054 441.109 218.839C441.109 221.647 440.007 223.247 438.111 223.247ZM438.111 222.299C439.343 222.299 440.066 221.055 440.066 218.839C440.066 216.622 439.343 215.354 438.111 215.354C436.878 215.354 436.143 216.622 436.143 218.839C436.143 221.055 436.866 222.299 438.111 222.299ZM445.266 214.43C446.747 214.442 448.383 215.331 448.383 218.495C448.383 221.541 447.139 223.247 445.124 223.247C443.619 223.247 442.552 222.323 442.339 220.96H443.394C443.583 221.73 444.164 222.299 445.124 222.299C446.522 222.299 447.376 221.09 447.387 219.005H447.269C446.771 219.716 445.989 220.142 445.076 220.142C443.536 220.142 442.268 218.969 442.268 217.31C442.268 215.71 443.441 214.418 445.266 214.43ZM445.266 215.366C444.14 215.366 443.299 216.243 443.311 217.298C443.311 218.365 444.105 219.206 445.231 219.206C446.345 219.206 447.222 218.282 447.222 217.274C447.222 216.291 446.404 215.366 445.266 215.366ZM452.587 214.43C454.069 214.442 455.704 215.331 455.704 218.495C455.704 221.541 454.46 223.247 452.445 223.247C450.94 223.247 449.873 222.323 449.66 220.96H450.715C450.904 221.73 451.485 222.299 452.445 222.299C453.844 222.299 454.697 221.09 454.709 219.005H454.59C454.093 219.716 453.31 220.142 452.398 220.142C450.857 220.142 449.589 218.969 449.589 217.31C449.589 215.71 450.762 214.418 452.587 214.43ZM452.587 215.366C451.462 215.366 450.62 216.243 450.632 217.298C450.632 218.365 451.426 219.206 452.552 219.206C453.666 219.206 454.543 218.282 454.543 217.274C454.543 216.291 453.725 215.366 452.587 215.366ZM457.479 223.2C457.064 223.2 456.709 222.856 456.721 222.43C456.709 222.015 457.064 221.671 457.479 221.671C457.894 221.671 458.238 222.015 458.238 222.43C458.238 222.856 457.894 223.2 457.479 223.2ZM462.205 223.247C460.297 223.247 459.207 221.647 459.207 218.839C459.207 216.054 460.321 214.43 462.205 214.43C464.089 214.43 465.203 216.054 465.203 218.839C465.203 221.647 464.101 223.247 462.205 223.247ZM462.205 222.299C463.438 222.299 464.161 221.055 464.161 218.839C464.161 216.622 463.438 215.354 462.205 215.354C460.973 215.354 460.238 216.622 460.238 218.839C460.238 221.055 460.961 222.299 462.205 222.299ZM466.54 223.129L470.475 215.556V215.497H465.935V214.548H471.577V215.544L467.654 223.129H466.54ZM472.095 223.2C471.681 223.2 471.325 222.856 471.337 222.43C471.325 222.015 471.681 221.671 472.095 221.671C472.51 221.671 472.854 222.015 472.854 222.43C472.854 222.856 472.51 223.2 472.095 223.2ZM476.963 223.247C475.257 223.247 474.036 222.335 473.977 220.972H475.055C475.115 221.79 475.932 222.299 476.952 222.299C478.077 222.299 478.907 221.683 478.907 220.794C478.907 219.858 478.16 219.194 476.821 219.194H476.122V218.258H476.821C477.864 218.258 478.587 217.677 478.587 216.788C478.587 215.935 477.959 215.354 476.987 215.354C476.075 215.354 475.233 215.864 475.186 216.705H474.155C474.214 215.343 475.47 214.43 476.999 214.43C478.634 214.43 479.63 215.497 479.618 216.729C479.63 217.701 479.061 218.424 478.16 218.673V218.732C479.274 218.91 479.962 219.704 479.95 220.794C479.962 222.204 478.67 223.247 476.963 223.247ZM484.403 214.548V223.129H483.325V215.663H483.277L481.192 217.049V215.971L483.325 214.548H484.403Z" fill="#666666"/>
<rect x="338.939" y="237.23" width="69.3057" height="24.0679" rx="12.034" fill="#F4F4F4"/>
<circle cx="351.076" cy="249.263" r="6.06793" fill="#999999"/>
<path d="M369.623 243.69V254.226H368.734V243.69H369.623ZM367.49 243.974V253.692H366.601V250.042H364.646V249.272H366.601V247.399H364.823C364.308 249.183 363.152 250.759 361.161 251.95L360.593 251.275C362.886 249.918 364.035 248.015 364.219 245.811H361.067V245.041H365.143C365.143 245.58 365.096 246.113 365.001 246.629H366.601V243.974H367.49ZM380.773 245.325V246.084H379.208V247.565H380.773V248.359H379.208V249.959H378.284V243.69H379.208V245.325H380.773ZM379.208 250.445V254.226H378.284V251.215H372.311V250.445H379.208ZM373.934 244.33C375.534 244.318 376.696 245.349 376.708 246.807C376.696 248.288 375.534 249.307 373.934 249.307C372.334 249.307 371.161 248.288 371.173 246.807C371.161 245.349 372.334 244.318 373.934 244.33ZM373.934 245.124C372.868 245.124 372.074 245.811 372.086 246.807C372.074 247.814 372.868 248.513 373.934 248.501C375.013 248.513 375.795 247.814 375.795 246.807C375.795 245.811 375.013 245.124 373.934 245.124ZM384.42 246.937C384.42 248.632 385.285 250.362 386.719 251.132L386.186 251.832C385.137 251.263 384.379 250.172 383.993 248.904C383.614 250.255 382.862 251.429 381.813 252.069L381.256 251.358C382.69 250.528 383.531 248.679 383.543 246.937V246.416H381.54V245.645H383.543V244.081H384.432V245.645H386.399V246.416H384.42V246.937ZM390.346 243.69V254.226H389.457V243.69H390.346ZM388.213 243.95V253.68H387.336V248.644H385.676V247.85H387.336V243.95H388.213ZM400.44 243.69V249.082H399.504V247.98H396.695V247.245H399.504V245.977H396.849C396.186 247.642 394.55 248.762 392.215 249.319L391.884 248.549C394.467 247.95 395.972 246.688 396.15 244.993H392.417V244.223H397.169C397.169 244.573 397.134 244.91 397.075 245.23H399.504V243.69H400.44ZM400.44 249.556V252.128H394.562V253.36H400.796V254.131H393.638V251.417H399.504V250.315H393.614V249.556H400.44Z" fill="#666666"/>
<rect x="338.939" y="267.363" width="69.3057" height="24.0679" rx="12.034" fill="#F4F4F4"/>
<circle cx="351.076" cy="279.396" r="6.06793" fill="#999999"/>
<path d="M370.204 278.836V279.606H360.604V278.836H370.204ZM365.404 280.53C367.668 280.53 369.019 281.23 369.031 282.438C369.019 283.659 367.668 284.335 365.404 284.335C363.129 284.335 361.766 283.659 361.766 282.438C361.766 281.23 363.129 280.53 365.404 280.53ZM365.404 281.265C363.709 281.277 362.702 281.692 362.714 282.438C362.702 283.173 363.709 283.588 365.404 283.588C367.075 283.588 368.094 283.173 368.094 282.438C368.094 281.692 367.075 281.277 365.404 281.265ZM369.351 274.368V275.138H366.009C366.044 276.335 367.798 277.248 369.671 277.461L369.327 278.208C367.603 277.988 365.985 277.218 365.404 276.039C364.829 277.218 363.218 277.988 361.481 278.208L361.15 277.461C362.987 277.248 364.752 276.335 364.8 275.138H361.481V274.368H369.351ZM379.694 273.834V281.798H378.746V280.317H376.423V279.559H378.746V273.834H379.694ZM379.955 283.351V284.133H372.477V280.91H373.413V283.351H379.955ZM370.9 278.006C372.251 278.006 373.952 277.988 375.629 277.876C375.837 276.708 375.872 275.837 375.878 275.233H371.849V274.474H376.802V274.889C376.802 275.47 376.802 276.459 376.577 277.793C376.992 277.763 377.395 277.716 377.786 277.662L377.857 278.338C376.874 278.504 375.842 278.605 374.835 278.67V281.099H373.911V278.717C372.868 278.765 371.884 278.776 371.031 278.776L370.9 278.006ZM390.073 273.834V281.561H389.137V277.52H386.968V276.75H389.137V273.834H390.073ZM390.369 283.351V284.133H383.306V280.862H384.242V283.351H390.369ZM385.001 276.003C385.001 277.366 386.056 278.693 387.596 279.215L387.11 279.962C385.919 279.535 385.001 278.646 384.55 277.556C384.094 278.77 383.122 279.742 381.872 280.21L381.386 279.452C382.939 278.907 384.065 277.52 384.065 276.003V275.458H381.682V274.688H387.359V275.458H385.001V276.003ZM396.873 274.439V275.197H393.104V277.97C395.166 277.982 396.411 277.905 397.857 277.615L397.975 278.362C396.47 278.682 395.178 278.741 393.01 278.729H392.192V274.439H396.873ZM399.943 273.822V276.062H401.531V276.833H399.943V279.144H399.018V273.822H399.943ZM399.943 279.665V282.261H394.159V283.458H400.334V284.216H393.247V281.526H399.018V280.424H393.223V279.665H399.943Z" fill="#666666"/>
<rect x="338.939" y="297.5" width="69.3057" height="24.0679" rx="12.034" fill="#F4F4F4"/>
<circle cx="351.076" cy="309.533" r="6.06793" fill="#999999"/>
<path d="M369.315 303.959V314.495H368.379V303.959H369.315ZM366.198 305.109C366.186 308.143 364.776 310.821 361.244 312.516L360.735 311.757C363.585 310.406 365.037 308.386 365.25 305.867H361.221V305.109H366.198ZM376.376 304.919V305.701H372.37V307.882H376.139V308.641H372.37V311.189C374.266 311.189 375.6 311.112 377.182 310.845L377.288 311.615C375.641 311.888 374.254 311.947 372.263 311.959H371.434V304.919H376.376ZM379.125 303.959V308.202H380.891V308.996H379.125V314.495H378.201V303.959H379.125ZM384.859 305.666C384.859 307.1 385.949 308.415 387.478 308.937L386.968 309.672C385.801 309.245 384.882 308.374 384.42 307.278C383.97 308.516 383.033 309.494 381.801 309.968L381.303 309.221C382.879 308.629 383.934 307.218 383.946 305.595V304.504H384.859V305.666ZM389.575 303.959V306.709H391.164V307.491H389.575V310.371H388.651V303.959H389.575ZM386.198 310.643C388.367 310.643 389.67 311.343 389.67 312.551C389.67 313.784 388.367 314.471 386.198 314.471C384.029 314.471 382.702 313.784 382.702 312.551C382.702 311.343 384.029 310.643 386.198 310.643ZM386.198 311.39C384.61 311.39 383.626 311.829 383.638 312.551C383.626 313.298 384.61 313.725 386.198 313.737C387.798 313.725 388.77 313.298 388.77 312.551C388.77 311.829 387.798 311.39 386.198 311.39ZM399.943 303.959V306.543H401.531V307.325H399.943V309.944H399.018V303.959H399.943ZM396.873 304.682V305.441H393.128V308.546C395.244 308.558 396.446 308.481 397.857 308.202L397.975 308.961C396.494 309.257 395.238 309.316 393.021 309.316H392.204V304.682H396.873ZM399.943 310.489V314.353H393.294V310.489H399.943ZM394.207 311.248V313.594H399.018V311.248H394.207Z" fill="#666666"/>
<path d="M338.939 345.84H555.868" stroke="#DDDDDD" stroke-width="0.758491"/>
<rect width="105.43" height="30.1359" transform="translate(338.939 351.906)" fill="#F4F4F4"/>
<path d="M362.101 363.103C362.101 364.537 363.191 365.853 364.72 366.374L364.21 367.109C363.043 366.682 362.125 365.811 361.662 364.715C361.212 365.954 360.276 366.931 359.043 367.405L358.545 366.659C360.122 366.066 361.176 364.656 361.188 363.032V361.942H362.101V363.103ZM366.818 361.397V364.146H368.406V364.928H366.818V367.808H365.893V361.397H366.818ZM363.44 368.081C365.609 368.081 366.913 368.78 366.913 369.989C366.913 371.222 365.609 371.909 363.44 371.909C361.271 371.909 359.944 371.222 359.944 369.989C359.944 368.78 361.271 368.081 363.44 368.081ZM363.44 368.828C361.852 368.828 360.868 369.266 360.88 369.989C360.868 370.736 361.852 371.162 363.44 371.174C365.04 371.162 366.012 370.736 366.012 369.989C366.012 369.266 365.04 368.828 363.44 368.828ZM372.077 364.395C372.077 366.066 372.895 367.879 374.293 368.709L373.76 369.432C372.746 368.816 372.018 367.69 371.65 366.41C371.259 367.808 370.477 369.011 369.422 369.657L368.83 368.958C370.287 368.105 371.176 366.232 371.176 364.431V362.392H372.077V364.395ZM377.979 361.397V371.933H377.078V361.397H377.979ZM375.798 361.622V371.399H374.921V365.971H373.132V365.177H374.921V361.622H375.798ZM388.962 369.811V370.582H379.315V369.811H383.653V367.536H380.453V362.143H381.389V364.051H386.865V362.143H387.777V367.536H384.565V369.811H388.962ZM381.389 366.777H386.865V364.81H381.389V366.777ZM398.393 361.397V371.933H397.457V361.397H398.393ZM395.276 362.546C395.264 365.58 393.854 368.259 390.322 369.953L389.813 369.195C392.663 367.844 394.115 365.823 394.328 363.305H390.299V362.546H395.276ZM403.498 361.989L400.725 372.264H399.801L402.562 361.989H403.498ZM409.267 362.38C409.267 363.862 411.211 365.154 413.107 365.414L412.728 366.173C411.092 365.9 409.475 364.994 408.793 363.696C408.118 365 406.494 365.9 404.858 366.173L404.479 365.414C406.375 365.154 408.307 363.886 408.307 362.38V361.776H409.267V362.38ZM413.581 367.334V368.116H409.22V371.933H408.307V368.116H403.981V367.334H413.581ZM423.083 361.397V367.678H422.147V364.917H420.025V364.146H422.147V361.397H423.083ZM419.587 368.01C421.779 368.01 423.119 368.721 423.119 369.965C423.119 371.21 421.779 371.921 419.587 371.933C417.394 371.921 416.055 371.21 416.055 369.965C416.055 368.721 417.394 368.01 419.587 368.01ZM419.587 368.733C417.975 368.733 416.968 369.195 416.98 369.965C416.968 370.724 417.975 371.186 419.587 371.186C421.199 371.186 422.194 370.724 422.194 369.965C422.194 369.195 421.199 368.733 419.587 368.733ZM418.011 363.328C418.011 364.703 419.065 366.007 420.606 366.54L420.12 367.287C418.935 366.86 418.017 365.977 417.572 364.881C417.11 366.119 416.132 367.109 414.882 367.583L414.396 366.837C415.96 366.268 417.074 364.845 417.074 363.34V362.949H414.692V362.167H420.369V362.949H418.011V363.328Z" fill="#1E1E1E"/>
<rect width="105.43" height="30.1359" transform="translate(450.438 351.906)" fill="#F4F4F4"/>
<path d="M477.778 361.409V369.112H476.854V361.409H477.778ZM478.11 370.925V371.707H470.975V368.33H471.9V370.925H478.11ZM472.089 362.143C473.665 362.143 474.851 363.21 474.851 364.727C474.851 366.268 473.665 367.322 472.089 367.322C470.513 367.322 469.328 366.268 469.328 364.727C469.328 363.21 470.513 362.143 472.089 362.143ZM472.089 362.961C471.023 362.961 470.229 363.696 470.24 364.727C470.229 365.782 471.023 366.505 472.089 366.505C473.132 366.505 473.938 365.782 473.938 364.727C473.938 363.696 473.132 362.961 472.089 362.961ZM487.825 362.037V362.854C487.825 363.737 487.825 364.81 487.553 366.244H489.093V367.026H479.446V366.244H486.616C486.901 364.786 486.901 363.755 486.901 362.854V362.795H480.667V362.037H487.825ZM488.145 370.913V371.696H480.726V368.211H481.651V370.913H488.145ZM501.188 362.463V363.518C501.176 364.81 501.176 366.256 500.797 368.377L499.849 368.271C500.252 366.256 500.252 364.774 500.252 363.518V363.234H493.757V362.463H501.188ZM502.337 369.669V370.439H492.738V369.669H496.507V365.9H497.419V369.669H502.337ZM512.053 361.409V367.619H511.164V364.834H509.73V367.548H508.841V361.61H509.73V364.063H511.164V361.409H512.053ZM512.053 368.105V371.933H511.14V368.863H504.942V368.105H512.053ZM507.727 362.179C507.727 364.691 506.305 366.599 503.626 367.737L503.164 367.038C505.351 366.143 506.589 364.721 506.767 362.949H503.591V362.179H507.727ZM519.988 363.601C519.988 364.857 521.054 366.019 522.607 366.481L522.168 367.192C520.953 366.831 520.005 366.048 519.549 365.035C519.087 366.149 518.109 366.997 516.859 367.405L516.397 366.671C517.961 366.197 519.075 364.988 519.075 363.601V363.4H516.693V362.629H519.075V361.349H520.011V362.629H522.37V363.4H519.988V363.601ZM524.633 361.397V364.004H526.221V364.786H524.633V367.524H523.709V361.397H524.633ZM524.823 368.093V368.851H521.836C521.99 369.953 523.537 370.902 525.226 371.174L524.882 371.897C523.336 371.642 521.937 370.878 521.339 369.823C520.734 370.872 519.348 371.619 517.819 371.885L517.463 371.174C519.164 370.902 520.693 369.971 520.853 368.851H517.878V368.093H524.823ZM535.474 361.397V371.933H534.538V361.397H535.474ZM532.358 362.546C532.346 365.58 530.935 368.259 527.404 369.953L526.894 369.195C529.744 367.844 531.196 365.823 531.409 363.305H527.38V362.546H532.358Z" fill="#1E1E1E"/>
<rect width="216.929" height="30.1359" transform="translate(338.939 388.109)" fill="#F4F4F4"/>
<path d="M428.851 399.306C428.851 400.74 429.941 402.056 431.47 402.577L430.96 403.312C429.793 402.886 428.875 402.014 428.412 400.918C427.962 402.157 427.026 403.134 425.793 403.609L425.295 402.862C426.872 402.269 427.926 400.859 427.938 399.235V398.145H428.851V399.306ZM433.568 397.6V400.349H435.156V401.132H433.568V404.011H432.643V397.6H433.568ZM430.19 404.284C432.359 404.284 433.663 404.983 433.663 406.192C433.663 407.425 432.359 408.112 430.19 408.112C428.021 408.112 426.694 407.425 426.694 406.192C426.694 404.983 428.021 404.284 430.19 404.284ZM430.19 405.031C428.602 405.031 427.618 405.469 427.63 406.192C427.618 406.939 428.602 407.365 430.19 407.377C431.79 407.365 432.762 406.939 432.762 406.192C432.762 405.469 431.79 405.031 430.19 405.031ZM443.935 397.6V400.183H445.523V400.966H443.935V403.585H443.01V397.6H443.935ZM440.865 398.323V399.081H437.12V402.186C439.236 402.198 440.439 402.121 441.849 401.843L441.968 402.601C440.486 402.897 439.23 402.957 437.014 402.957H436.196V398.323H440.865ZM443.935 404.13V407.994H437.286V404.13H443.935ZM438.199 404.888V407.235H443.01V404.888H438.199ZM452.201 398.098C453.742 398.098 454.821 398.927 454.821 400.183C454.821 401.268 453.967 402.056 452.699 402.21V403.241C453.683 403.2 454.684 403.111 455.603 402.969L455.674 403.668C453.446 404.071 450.921 404.094 449.096 404.094L448.978 403.324C449.796 403.33 450.756 403.324 451.763 403.289V402.222C450.459 402.08 449.582 401.286 449.594 400.183C449.582 398.927 450.661 398.098 452.201 398.098ZM452.201 398.821C451.182 398.821 450.459 399.366 450.471 400.183C450.459 400.977 451.182 401.523 452.201 401.535C453.233 401.523 453.932 400.977 453.944 400.183C453.932 399.366 453.233 398.821 452.201 398.821ZM457.215 397.612V401.179H458.791V401.973H457.215V405.671H456.278V397.612H457.215ZM457.594 407.117V407.899H450.519V404.971H451.455V407.117H457.594ZM469.004 406.05V406.832H459.357V406.05H462.071V404.047H460.566V400.8H466.871V399.152H460.542V398.382H467.783V401.57H461.49V403.277H468.032V404.047H466.385V406.05H469.004ZM462.983 406.05H465.472V404.047H462.983V406.05Z" fill="#1E1E1E"/>
</g>
<defs>
<filter id="filter0_d_407_24412" x="-206.158" y="0.34375" width="295.592" height="518.122" filterUnits="userSpaceOnUse" color-interpolation-filters="sRGB">
<feFlood flood-opacity="0" result="BackgroundImageFix"/>
<feColorMatrix in="SourceAlpha" type="matrix" values="0 0 0 0 0 0 0 0 0 0 0 0 0 0 0 0 0 0 127 0" result="hardAlpha"/>
<feOffset dx="0.906509" dy="57.1101"/>
<feGaussianBlur stdDeviation="13.5976"/>
<feComposite in2="hardAlpha" operator="out"/>
<feColorMatrix type="matrix" values="0 0 0 0 0 0 0 0 0 0 0 0 0 0 0 0 0 0 0.05 0"/>
<feBlend mode="normal" in2="BackgroundImageFix" result="effect1_dropShadow_407_24412"/>
<feBlend mode="normal" in="SourceGraphic" in2="effect1_dropShadow_407_24412" result="shape"/>
</filter>
<filter id="filter1_d_407_24412" x="47.178" y="0.34375" width="295.592" height="518.122" filterUnits="userSpaceOnUse" color-interpolation-filters="sRGB">
<feFlood flood-opacity="0" result="BackgroundImageFix"/>
<feColorMatrix in="SourceAlpha" type="matrix" values="0 0 0 0 0 0 0 0 0 0 0 0 0 0 0 0 0 0 127 0" result="hardAlpha"/>
<feOffset dx="0.906509" dy="57.1101"/>
<feGaussianBlur stdDeviation="13.5976"/>
<feComposite in2="hardAlpha" operator="out"/>
<feColorMatrix type="matrix" values="0 0 0 0 0 0 0 0 0 0 0 0 0 0 0 0 0 0 0.05 0"/>
<feBlend mode="normal" in2="BackgroundImageFix" result="effect1_dropShadow_407_24412"/>
<feBlend mode="normal" in="SourceGraphic" in2="effect1_dropShadow_407_24412" result="shape"/>
</filter>
<filter id="filter2_d_407_24412" x="300.514" y="0.34375" width="295.592" height="518.122" filterUnits="userSpaceOnUse" color-interpolation-filters="sRGB">
<feFlood flood-opacity="0" result="BackgroundImageFix"/>
<feColorMatrix in="SourceAlpha" type="matrix" values="0 0 0 0 0 0 0 0 0 0 0 0 0 0 0 0 0 0 127 0" result="hardAlpha"/>
<feOffset dx="0.906509" dy="57.1101"/>
<feGaussianBlur stdDeviation="13.5976"/>
<feComposite in2="hardAlpha" operator="out"/>
<feColorMatrix type="matrix" values="0 0 0 0 0 0 0 0 0 0 0 0 0 0 0 0 0 0 0.05 0"/>
<feBlend mode="normal" in2="BackgroundImageFix" result="effect1_dropShadow_407_24412"/>
<feBlend mode="normal" in="SourceGraphic" in2="effect1_dropShadow_407_24412" result="shape"/>
</filter>
</defs>
</svg>
