<svg width="718" height="389" viewBox="0 0 718 389" fill="none" xmlns="http://www.w3.org/2000/svg">
<g filter="url(#filter0_d_407_24160)">
<rect x="29.4082" y="5.35547" width="657.184" height="328.646" rx="40" fill="white"/>
<rect x="30.4082" y="6.35547" width="655.184" height="326.646" rx="39" stroke="url(#paint0_linear_407_24160)" stroke-width="2"/>
<path d="M83.3708 55.1343V56.6797C83.3708 58.7283 83.3708 61.0284 82.7059 64.4966L80.4058 64.263C81.0257 61.1722 81.0527 58.8721 81.0707 56.9493H71.4388V55.1343H83.3708ZM84.8084 66.2038V68.0726H69.8934V66.2038H75.2304V60.5792H77.5126V66.2038H84.8084ZM99.6652 53.7327V63.3106H97.4908V59.3572H96.0173V63.2387H93.8609V54.0202H96.0173V57.4884H97.4908V53.7327H99.6652ZM99.6652 63.9396V70.0673H97.383V65.7905H88.2543V63.9396H99.6652ZM92.7468 54.8468C92.7468 58.9619 90.7701 61.7293 86.5112 63.4184L85.433 61.7113C88.5149 60.5792 90.0603 58.89 90.4107 56.6797H86.2237V54.8468H92.7468ZM120.34 61.1902V63.059H105.389V61.1902H120.34ZM118.633 58.2251V60.0401H107.204V54.146H118.543V55.9969H109.486V58.2251H118.633ZM112.828 64.0474C116.369 64.0474 118.507 65.1256 118.525 67.0484C118.507 68.9891 116.369 70.0673 112.828 70.0673C109.252 70.0673 107.096 68.9891 107.096 67.0484C107.096 65.1256 109.252 64.0474 112.828 64.0474ZM112.828 65.7905C110.564 65.7905 109.414 66.2217 109.432 67.0484C109.414 67.9109 110.564 68.3242 112.828 68.3242C115.039 68.3242 116.207 67.9109 116.225 67.0484C116.207 66.2217 115.039 65.7905 112.828 65.7905ZM136.059 62.484V64.3169H121.09V62.484H127.434V61.298H122.959V56.8055H131.944V55.7992H122.923V54.0202H134.244V58.4587H125.241V59.5369H134.55V61.298H129.716V62.484H136.059ZM134.334 65.2514V69.9954H132.016V67.0484H122.762V65.2514H134.334Z" fill="#1E1E1E"/>
<path d="M70.6507 107.842L71.4414 107.038L74.0675 109.621L79.5034 104.214L80.3082 105.004L74.0675 111.231L70.6507 107.842ZM96.8633 107.009V107.941H85.4126V107.009H96.8633ZM86.7963 111.302C86.7892 109.862 88.42 109.043 91.1309 109.043C93.8206 109.043 95.4372 109.862 95.4513 111.302C95.4372 112.756 93.8206 113.561 91.1309 113.561C88.42 113.561 86.7892 112.756 86.7963 111.302ZM86.8669 105.809V101.545H95.4372V102.477H87.954V104.906H95.5219V105.809H86.8669ZM87.9258 111.302C87.9117 112.184 89.1189 112.685 91.1309 112.685C93.1217 112.685 94.3289 112.184 94.3359 111.302C94.3289 110.426 93.1217 109.918 91.1309 109.904C89.1189 109.918 87.9117 110.426 87.9258 111.302ZM109.242 107.955V108.873H97.7494V107.955H102.945V106.628H99.246V103.564H106.644V102.265H99.2037V101.362H107.76V104.397H100.347V105.739H108.028V106.628H104.032V107.955H109.242ZM99.0342 110.737V109.833H107.83V113.476H106.715V110.737H99.0342ZM115.903 108.93C118.48 108.93 120.04 109.777 120.04 111.245C120.04 112.728 118.48 113.575 115.903 113.589C113.319 113.575 111.745 112.728 111.738 111.245C111.745 109.777 113.319 108.93 115.903 108.93ZM110.651 107.617V101.828H111.738V103.748H115.395V101.828H116.496V107.617H110.651ZM111.738 106.713H115.395V104.623H111.738V106.713ZM112.854 111.245C112.839 112.149 114.011 112.685 115.903 112.685C117.802 112.685 118.96 112.149 118.967 111.245C118.96 110.349 117.802 109.819 115.903 109.805C114.011 109.819 112.839 110.349 112.854 111.245ZM118.826 108.591V101.037H119.927V104.2H121.819V105.146H119.927V108.591H118.826ZM124.202 101.686V103.635H127.704V101.686H128.791V104.129H131.756V101.037H132.871V107.899H131.756V105.061H128.791V107.433H123.101V101.686H124.202ZM124.202 106.529H127.704V104.51H124.202V106.529ZM124.781 113.42V108.506H125.896V110.045H131.756V108.506H132.857V113.42H124.781ZM125.896 112.502H131.756V110.935H125.896V112.502ZM140.534 101.263C143.323 101.263 144.961 102.032 144.968 103.423C144.961 104.849 143.323 105.619 140.534 105.626C137.732 105.619 136.087 104.849 136.087 103.423C136.087 102.032 137.732 101.263 140.534 101.263ZM134.816 107.377V106.473H146.253V107.377H134.816ZM136.2 109.311V108.464H144.784V111.273H137.329V112.572H145.166V113.448H136.228V110.455H143.697V109.311H136.2ZM137.245 103.423C137.231 104.299 138.452 104.779 140.534 104.779C142.617 104.779 143.831 104.299 143.838 103.423C143.831 102.597 142.617 102.103 140.534 102.096C138.452 102.103 137.231 102.597 137.245 103.423ZM154.943 103.409C154.943 105.16 156.214 106.812 158.05 107.475L157.428 108.337C156.052 107.793 154.95 106.706 154.414 105.336C153.884 106.854 152.741 108.054 151.258 108.647L150.665 107.744C152.55 107.052 153.849 105.294 153.856 103.367V101.814H154.943V103.409ZM152.938 113.321V109.381H154.054V112.389H161.339V113.321H152.938ZM157.146 104.934V104.002H159.942V101.051H161.057V110.455H159.942V104.934H157.146ZM168.438 101.955V102.887H164.626V104.454H168.297V105.329H164.626V107.066C166.454 107.059 167.598 106.988 168.946 106.727L169.059 107.645C167.584 107.934 166.398 107.991 164.358 107.998H163.567V101.955H168.438ZM165.205 110.214V109.311H173.662V113.589H172.575V110.214H165.205ZM169.808 108.577V101.291H170.838V104.327H172.603V101.051H173.662V108.661H172.603V105.23H170.838V108.577H169.808ZM181.622 103.211V104.115H175.325V103.211H177.937V101.418H179.038V103.211H181.622ZM175.777 107.814C175.777 106.148 176.913 104.969 178.473 104.962C180.055 104.969 181.184 106.148 181.198 107.814C181.184 109.501 180.055 110.687 178.473 110.695C176.913 110.687 175.777 109.501 175.777 107.814ZM176.765 107.814C176.765 108.93 177.478 109.727 178.473 109.72C179.476 109.727 180.21 108.93 180.21 107.814C180.21 106.713 179.476 105.908 178.473 105.894C177.478 105.908 176.765 106.713 176.765 107.814ZM182.271 112.968V101.348H183.316V106.332H184.982V101.037H186.041V113.589H184.982V107.249H183.316V112.968H182.271ZM197.527 102.816C197.52 104.496 199.758 105.922 201.947 106.247L201.537 107.122C199.582 106.791 197.669 105.746 196.906 104.235C196.144 105.746 194.231 106.791 192.303 107.122L191.866 106.247C194.047 105.922 196.278 104.496 196.285 102.816V102.731H192.261V101.828H201.537V102.731H197.527V102.816ZM191.188 109.113V108.195H202.624V109.113H197.429V113.589H196.341V109.113H191.188ZM207.266 104.609C207.266 106.607 208.241 108.76 209.907 109.749L209.271 110.61C208.057 109.876 207.189 108.534 206.751 107.002C206.292 108.675 205.36 110.116 204.104 110.878L203.398 110.045C205.134 109.028 206.193 106.805 206.193 104.652V102.223H207.266V104.609ZM208.523 106.487V105.541H210.655V101.305H211.7V112.954H210.655V106.487H208.523ZM213.225 113.589V101.037H214.298V113.589H213.225ZM227.383 111.048V111.979H215.89V111.048H218.742V107.666C217.669 107.108 217.019 106.205 217.019 105.061C217.019 103.12 218.925 101.842 221.608 101.828C224.291 101.842 226.197 103.12 226.197 105.061C226.197 106.183 225.568 107.073 224.531 107.631V111.048H227.383ZM218.092 105.061C218.085 106.466 219.547 107.405 221.608 107.405C223.648 107.405 225.124 106.466 225.124 105.061C225.124 103.656 223.648 102.731 221.608 102.745C219.547 102.731 218.085 103.656 218.092 105.061ZM219.829 111.048H223.415V108.061C222.872 108.202 222.265 108.28 221.608 108.28C220.966 108.28 220.366 108.21 219.829 108.068V111.048Z" fill="#1E1E1E"/>
<rect x="70.0654" y="129.618" width="187.575" height="103.835" fill="white"/>
<rect x="70.0654" y="129.618" width="187.575" height="103.835" stroke="#3586FF" stroke-width="1.31437"/>
<path fill-rule="evenodd" clip-rule="evenodd" d="M163.852 157.051C158.41 157.051 153.994 161.467 153.994 166.909C153.994 172.35 158.41 176.766 163.852 176.766C169.293 176.766 173.71 172.35 173.71 166.909C173.71 161.467 169.293 157.051 163.852 157.051ZM170.121 171.67C168.712 169.955 165.291 169.373 163.852 169.373C162.413 169.373 158.992 169.955 157.582 171.67C156.577 170.349 155.966 168.703 155.966 166.909C155.966 162.561 159.505 159.022 163.852 159.022C168.199 159.022 171.738 162.561 171.738 166.909C171.738 168.703 171.127 170.349 170.121 171.67ZM160.402 164.444C160.402 162.532 161.939 160.994 163.852 160.994C165.764 160.994 167.302 162.532 167.302 164.444C167.302 166.357 165.764 167.894 163.852 167.894C161.939 167.894 160.402 166.357 160.402 164.444Z" fill="#3586FF"/>
<path d="M142.337 192.088C142.337 193.937 143.8 195.615 145.849 196.278L145.233 197.217C143.638 196.678 142.368 195.546 141.752 194.091C141.151 195.654 139.865 196.886 138.24 197.479L137.608 196.54C139.657 195.816 141.12 194.029 141.12 192.088V191.503H137.916V190.517H145.494V191.503H142.337V192.088ZM148.714 189.547V197.833H147.512V189.547H148.714ZM148.714 198.557V203.24H147.512V199.559H139.503V198.557H148.714ZM162.218 189.547V196.986H161.017V193.89H158.244V192.874H161.017V189.547H162.218ZM154.625 197.649V199.358H161.017V197.649H162.218V203.055H153.408V197.649H154.625ZM154.625 202.069H161.017V200.329H154.625V202.069ZM155.641 191.78C155.641 193.536 157.012 195.261 159.014 195.954L158.383 196.894C156.835 196.332 155.641 195.184 155.056 193.767C154.463 195.354 153.2 196.624 151.575 197.217L150.943 196.262C152.961 195.538 154.424 193.721 154.424 191.78V191.38H151.328V190.379H158.706V191.38H155.641V191.78ZM176.847 196.062V197.079H164.355V196.062H176.847ZM175.384 193.767V194.753H165.942V190.101H175.291V191.118H167.128V193.767H175.384ZM170.594 198.28C173.535 198.28 175.291 199.173 175.307 200.745C175.291 202.331 173.535 203.209 170.594 203.209C167.636 203.209 165.865 202.331 165.865 200.745C165.865 199.173 167.636 198.28 170.594 198.28ZM170.594 199.22C168.391 199.235 167.082 199.79 167.097 200.745C167.082 201.715 168.391 202.254 170.594 202.254C172.765 202.254 174.09 201.715 174.09 200.745C174.09 199.79 172.765 199.235 170.594 199.22ZM190.352 197.094V198.095H177.814V197.094H183.482V195.646H179.446V192.304H187.517V190.887H179.4V189.901H188.734V193.213H180.648V194.676H189.027V195.646H184.668V197.094H190.352ZM188.811 199.143V203.117H187.595V200.128H179.215V199.143H188.811Z" fill="#3586FF"/>
<rect x="263.883" y="129.29" width="188.233" height="104.492" fill="white"/>
<rect x="263.883" y="129.29" width="188.233" height="104.492" stroke="#DDDDDD" stroke-width="0.657184"/>
<path d="M355.209 160.991L357.18 162.963H365.885V172.82H350.112V160.991H355.209ZM356.027 159.02H350.112C349.028 159.02 348.15 159.907 348.15 160.991L348.141 172.82C348.141 173.905 349.028 174.792 350.112 174.792H365.885C366.969 174.792 367.856 173.905 367.856 172.82V162.963C367.856 161.878 366.969 160.991 365.885 160.991H357.998L356.027 159.02Z" fill="#666666"/>
<path d="M327.406 189.562V199.682H326.19V195.985H322.647C322.015 196.794 320.999 197.279 319.828 197.279C317.78 197.279 316.27 195.862 316.27 193.86C316.27 191.857 317.78 190.44 319.828 190.425C320.991 190.432 321.985 190.91 322.631 191.703H326.19V189.562H327.406ZM327.791 201.931V202.947H318.611V198.619H319.828V201.931H327.791ZM319.828 191.503C318.427 191.518 317.425 192.489 317.425 193.86C317.425 195.23 318.427 196.201 319.828 196.201C321.168 196.201 322.2 195.23 322.2 193.86C322.2 192.489 321.168 191.518 319.828 191.503ZM323.186 192.704C323.301 193.059 323.371 193.444 323.371 193.86C323.371 194.26 323.301 194.637 323.186 194.984H326.19V192.704H323.186ZM336.321 190.379V194.152H331.33V196.139C333.764 196.139 335.528 196.054 337.661 195.692L337.784 196.694C335.581 197.063 333.749 197.14 331.207 197.14H330.144V193.197H335.135V191.364H330.114V190.379H336.321ZM340.233 189.562V193.074H342.313V194.091H340.233V197.88H339.032V189.562H340.233ZM340.233 198.604V203.24H339.032V199.589H331.269V198.604H340.233ZM354.354 189.547V203.271H353.137V196.062H350.133V195.061H353.137V189.547H354.354ZM347.731 194.014C347.731 196.278 349.271 198.496 351.304 199.405L350.611 200.344C349.055 199.628 347.761 198.134 347.161 196.324C346.56 198.234 345.282 199.836 343.726 200.591L343.033 199.651C345.035 198.711 346.545 196.37 346.545 194.014V192.92H343.402V191.934H346.545V189.809H347.746V191.934H350.842V192.92H347.731V194.014ZM372.768 196.324V197.294H360.276V196.324H365.929V194.722H361.863V190.194H371.212V191.164H363.049V193.736H371.305V194.722H367.1V196.324H372.768ZM366.515 198.296C369.456 198.296 371.212 199.189 371.228 200.76C371.212 202.346 369.456 203.224 366.515 203.24C363.557 203.224 361.786 202.346 361.786 200.76C361.786 199.189 363.557 198.296 366.515 198.296ZM366.515 199.25C364.312 199.25 363.003 199.82 363.018 200.76C363.003 201.715 364.312 202.269 366.515 202.269C368.686 202.269 370.011 201.715 370.011 200.76C370.011 199.82 368.686 199.25 366.515 199.25ZM385.071 189.547V203.24H383.854V189.547H385.071ZM381.02 191.041C381.005 194.984 379.172 198.465 374.582 200.668L373.92 199.682C377.624 197.926 379.511 195.3 379.788 192.027H374.551V191.041H381.02ZM397.852 189.547V195.384H400.039V196.401H397.852V203.24H396.635V189.547H397.852ZM387.054 199.589C388.171 199.589 389.473 199.589 390.828 199.543V198.018C389.234 197.841 388.194 196.909 388.21 195.554C388.194 194.014 389.503 193.012 391.444 193.012C393.354 193.012 394.679 194.014 394.694 195.554C394.679 196.909 393.624 197.841 392.045 198.034V199.497C393.323 199.435 394.609 199.335 395.803 199.158L395.88 200.082C392.892 200.591 389.657 200.621 387.255 200.621L387.054 199.589ZM395.557 191.226V192.211H387.301V191.226H390.828V189.578H392.045V191.226H395.557ZM391.444 193.952C390.181 193.952 389.334 194.599 389.334 195.554C389.334 196.509 390.181 197.125 391.444 197.11C392.692 197.125 393.539 196.509 393.539 195.554C393.539 194.599 392.692 193.952 391.444 193.952Z" fill="#1E1E1E"/>
<rect x="458.032" y="129.29" width="188.233" height="104.492" fill="white"/>
<rect x="458.032" y="129.29" width="188.233" height="104.492" stroke="#DDDDDD" stroke-width="0.657184"/>
<path fill-rule="evenodd" clip-rule="evenodd" d="M544.262 175.778V158.034C544.262 156.95 545.149 156.072 546.233 156.072L556.091 156.062C557.175 156.062 558.063 156.95 558.063 158.034V161.977H556.091V160.991H546.233V172.821H556.091V171.835H558.063V175.778C558.063 176.862 557.175 177.75 556.091 177.75H546.233C545.149 177.75 544.262 176.862 544.262 175.778ZM556.091 175.778V174.792H546.233V175.778H556.091ZM546.233 158.034H556.091V159.02H546.233V158.034ZM561.217 164.491L559.837 163.111L554.859 168.089L552.542 165.772L551.162 167.152L554.859 170.849L561.217 164.491Z" fill="#666666"/>
<path d="M535.332 189.547V197.741H534.177V189.547H535.332ZM532.714 189.824V197.633H531.574V194.183H530.095C529.872 195.823 528.616 196.909 526.984 196.909C525.151 196.909 523.842 195.585 523.857 193.659C523.842 191.749 525.151 190.409 526.984 190.409C528.632 190.409 529.895 191.526 530.095 193.182H531.574V189.824H532.714ZM535.332 198.403V203.271H534.146V199.374H526.106V198.403H535.332ZM526.984 191.457C525.813 191.457 524.935 192.381 524.951 193.659C524.935 194.969 525.813 195.893 526.984 195.877C528.154 195.893 529.017 194.969 529.032 193.659C529.017 192.381 528.154 191.457 526.984 191.457ZM541.228 191.626C541.228 193.151 542.26 194.722 543.969 195.415L543.322 196.324C542.021 195.793 541.127 194.776 540.673 193.567C540.18 194.922 539.202 196.116 537.87 196.74L537.192 195.816C538.979 195.015 540.057 193.197 540.057 191.565V190.132H541.228V191.626ZM548.806 189.562V196.878H547.651V189.562H548.806ZM546.11 189.824V196.771H544.94V193.151H542.814V192.15H544.94V189.824H546.11ZM548.806 197.479V200.668H540.95V202.1H549.36V203.086H539.749V199.743H547.62V198.45H539.718V197.479H548.806ZM566.943 196.062V197.079H554.451V196.062H566.943ZM565.48 193.767V194.753H556.038V190.101H565.387V191.118H557.224V193.767H565.48ZM560.689 198.28C563.631 198.28 565.387 199.173 565.403 200.745C565.387 202.331 563.631 203.209 560.689 203.209C557.732 203.209 555.961 202.331 555.961 200.745C555.961 199.173 557.732 198.28 560.689 198.28ZM560.689 199.22C558.487 199.235 557.177 199.79 557.193 200.745C557.177 201.715 558.487 202.254 560.689 202.254C562.861 202.254 564.186 201.715 564.186 200.745C564.186 199.79 562.861 199.235 560.689 199.22ZM580.447 197.094V198.095H567.909V197.094H573.578V195.646H569.542V192.304H577.613V190.887H569.496V189.901H578.83V193.213H570.744V194.676H579.123V195.646H574.764V197.094H580.447ZM578.907 199.143V203.117H577.69V200.128H569.311V199.143H578.907Z" fill="#1E1E1E"/>
<rect x="69.4082" y="255.141" width="577.184" height="36.8023" rx="1.31437" fill="#777777"/>
<path d="M356.152 268.093V270.415H357.573V271.617H356.152V273.973H354.674V268.093H356.152ZM352.906 268.74V269.919H349.695V272.345C351.595 272.345 352.641 272.275 353.819 272.033L353.969 273.211C352.652 273.488 351.439 273.558 349.106 273.558H348.216V268.74H352.906ZM356.222 274.482V275.66H350.769V277.312H356.418V278.49H349.279V274.482H356.222ZM366.755 268.093V278.606H365.264V268.093H366.755ZM363.601 269.191C363.601 272.379 362.48 275.025 358.726 276.804L357.952 275.625C360.667 274.343 361.862 272.68 362.099 270.346H358.518V269.191H363.601Z" fill="white"/>
</g>
<defs>
<filter id="filter0_d_407_24160" x="0.408203" y="0.355469" width="717.184" height="388.645" filterUnits="userSpaceOnUse" color-interpolation-filters="sRGB">
<feFlood flood-opacity="0" result="BackgroundImageFix"/>
<feColorMatrix in="SourceAlpha" type="matrix" values="0 0 0 0 0 0 0 0 0 0 0 0 0 0 0 0 0 0 127 0" result="hardAlpha"/>
<feOffset dx="1" dy="25"/>
<feGaussianBlur stdDeviation="15"/>
<feComposite in2="hardAlpha" operator="out"/>
<feColorMatrix type="matrix" values="0 0 0 0 0 0 0 0 0 0 0 0 0 0 0 0 0 0 0.05 0"/>
<feBlend mode="normal" in2="BackgroundImageFix" result="effect1_dropShadow_407_24160"/>
<feBlend mode="normal" in="SourceGraphic" in2="effect1_dropShadow_407_24160" result="shape"/>
</filter>
<linearGradient id="paint0_linear_407_24160" x1="358" y1="5.35547" x2="358" y2="334.002" gradientUnits="userSpaceOnUse">
<stop stop-color="#F2F2F2"/>
<stop offset="1" stop-color="white"/>
</linearGradient>
</defs>
</svg>
