<svg width="798" height="213" viewBox="0 0 798 213" fill="none" xmlns="http://www.w3.org/2000/svg">
<g filter="url(#filter0_d_472_24040)">
<rect y="0.195312" width="180.884" height="67.8314" rx="33.9157" fill="#FFFCF8" shape-rendering="crispEdges"/>
<path d="M31.7913 43.6113L32.5994 38.6565H28.466L27.6578 43.6113H25.0346L25.8428 38.6565H23.1534L23.5773 36.0598H26.28L26.9424 31.9793H24.2662L24.6902 29.3826H27.3796L28.1877 24.4278H30.8109L30.0028 29.3826H34.1362L34.9444 24.4278H37.5411L36.7329 29.3826H39.4488L38.9984 31.9793H36.2957L35.6333 36.0598H38.3359L37.912 38.6565H35.1961L34.388 43.6113H31.7913ZM28.9031 36.0598H33.0366L33.699 31.9793H29.5656L28.9031 36.0598ZM60.3091 22.0166V45.9695H57.4739V33.7016H54.9303V44.8037H52.1481V22.4405H54.9303V31.2639H57.4739V22.0166H60.3091ZM40.3836 39.7958V24.6132H49.7899V39.7958H40.3836ZM43.1393 37.4641H47.0343V26.9449H43.1393V37.4641ZM84.1105 35.3709V37.7556H74.5982V45.943H71.6836V37.7556H62.2772V35.3709H84.1105ZM63.4166 31.4494C68.1198 30.8532 71.2729 28.3228 71.4848 25.6996H64.291V23.3679H82.0967V25.6996H74.9029C75.1016 28.3228 78.2282 30.8532 82.9711 31.4494L81.9113 33.7546C77.8308 33.1717 74.6512 31.3036 73.1939 28.7202C71.7233 31.3036 68.5702 33.1717 64.5295 33.7546L63.4166 31.4494ZM110.622 22.0431V36.0068H107.654V35.0264H103.176V33.2246H107.654V22.0431H110.622ZM90.511 30.681C95.1347 30.681 100.924 30.6412 106.065 30.1245L106.224 31.9793C104.038 32.2708 101.785 32.4695 99.5728 32.5755V36.0333H96.6582V32.6947C94.6047 32.7477 92.6307 32.761 90.829 32.7477L90.511 30.681ZM92.2068 26.0176C92.2068 23.8448 94.6047 22.4273 98.248 22.414C101.812 22.4273 104.223 23.8448 104.236 26.0176C104.223 28.2433 101.812 29.5946 98.248 29.5946C94.6047 29.5946 92.2068 28.2433 92.2068 26.0176ZM94.0086 38.7624V36.7487H110.622V42.1275H97.0027V43.6643H111.258V45.7576H94.1145V40.1933H107.707V38.7624H94.0086ZM95.0154 26.0176C94.9889 27.0244 96.2343 27.6471 98.248 27.6339C100.222 27.6471 101.481 27.0244 101.481 26.0176C101.481 25.0107 100.222 24.3615 98.248 24.3748C96.2343 24.3615 94.9889 25.0107 95.0154 26.0176ZM135.059 40.6437V43.0549H113.173V40.6437H118.234V34.5892C116.326 33.4896 115.174 31.7673 115.187 29.6476C115.174 25.8321 118.91 23.3149 124.063 23.3149C129.243 23.3149 133.006 25.8321 132.993 29.6476C133.006 31.7408 131.88 33.4234 130.025 34.523V40.6437H135.059ZM118.075 29.6476C118.062 32.0985 120.486 33.6618 124.063 33.6486C127.627 33.6618 130.104 32.0985 130.104 29.6476C130.104 27.1569 127.627 25.6334 124.063 25.6466C120.486 25.6334 118.062 27.1569 118.075 29.6476ZM121.149 40.6437H127.031V35.6491C126.117 35.8478 125.123 35.9538 124.063 35.9538C123.03 35.9538 122.049 35.8478 121.149 35.6623V40.6437ZM142.592 22.785C146.222 22.7982 148.924 25.0372 148.951 28.1903C148.924 31.3566 146.222 33.5824 142.592 33.5956C138.935 33.5824 136.233 31.3566 136.233 28.1903C136.233 25.0372 138.935 22.7982 142.592 22.785ZM139.094 28.1903C139.094 30.0451 140.578 31.2109 142.592 31.2109C144.605 31.2109 146.076 30.0451 146.089 28.1903C146.076 26.3753 144.605 25.2094 142.592 25.2227C140.578 25.2094 139.094 26.3753 139.094 28.1903ZM139.863 37.4641V35.1589H155.761V41.4121H142.804V43.3464H156.476V45.6781H139.916V39.2394H152.819V37.4641H139.863ZM152.793 34.1255V22.0166H155.761V34.1255H152.793Z" fill="#FF6535"/>
</g>
<g filter="url(#filter1_d_472_24040)">
<rect x="212.539" y="0.195312" width="209.147" height="67.8314" rx="33.9157" fill="#FFFCF8" shape-rendering="crispEdges"/>
<path d="M243.963 43.6113L244.771 38.6565H240.638L239.83 43.6113H237.207L238.015 38.6565H235.325L235.749 36.0598H238.452L239.114 31.9793H236.438L236.862 29.3826H239.551L240.36 24.4278H242.983L242.175 29.3826H246.308L247.116 24.4278H249.713L248.905 29.3826H251.621L251.17 31.9793H248.468L247.805 36.0598H250.508L250.084 38.6565H247.368L246.56 43.6113H243.963ZM241.075 36.0598H245.208L245.871 31.9793H241.737L241.075 36.0598ZM262.704 22.4935C268.003 22.4935 271.328 24.229 271.342 27.1569C271.328 30.0186 268.003 31.7276 262.704 31.7143C257.457 31.7276 254.066 30.0186 254.066 27.1569C254.066 24.229 257.457 22.4935 262.704 22.4935ZM251.814 35.7153V33.3306H273.647V35.7153H251.814ZM254.384 45.6781V37.6231H270.997V45.6781H254.384ZM257.139 27.1569C257.113 28.601 259.206 29.4224 262.704 29.4356C266.201 29.4224 268.294 28.601 268.294 27.1569C268.294 25.6334 266.201 24.7987 262.704 24.7987C259.206 24.7987 257.113 25.6334 257.139 27.1569ZM257.298 43.2934H268.136V39.9548H257.298V43.2934ZM283.22 25.4611C283.206 28.7202 285.114 31.7011 288.863 32.8802L287.273 35.1854C284.664 34.258 282.835 32.5092 281.815 30.2438C280.755 32.8537 278.755 34.9072 275.853 35.9273L274.29 33.5426C278.251 32.2443 280.239 29.0514 280.252 25.5936V23.3149H283.22V25.4611ZM278.265 41.3591C278.238 38.4445 281.351 36.7355 286.399 36.7487C291.473 36.7355 294.573 38.4445 294.587 41.3591C294.573 44.2737 291.473 45.943 286.399 45.943C281.351 45.943 278.238 44.2737 278.265 41.3591ZM281.179 41.3591C281.166 42.8164 283.074 43.6246 286.399 43.6378C289.751 43.6246 291.645 42.8164 291.645 41.3591C291.645 39.8488 289.751 39.0407 286.399 39.0274C283.074 39.0407 281.166 39.8488 281.179 41.3591ZM286.797 29.0647V26.6535H291.566V22.0166H294.507V36.1128H291.566V29.0647H286.797ZM322.794 22.0166V45.996H319.879V33.0127H315.004V40.1933H303.61V23.8713H306.578V29.8331H312.116V23.8713H315.004V30.6015H319.879V22.0166H322.794ZM306.578 37.8351H312.116V32.1383H306.578V37.8351ZM345.403 22.0431V39.5308H342.462V30.7605H338.222V28.3758H342.462V22.0431H345.403ZM325.292 34.364C329.107 33.1054 331.148 29.9788 331.148 26.786V26.15H326.166V23.7654H339.097V26.15H334.142V26.8125C334.142 29.6873 336.076 32.6682 339.786 33.8871L338.302 36.2453C335.626 35.3311 333.731 33.5029 332.684 31.2374C331.638 33.7546 329.637 35.7683 326.802 36.7487L325.292 34.364ZM329.69 45.4926V37.994H332.631V43.1079H346.012V45.4926H329.69ZM374.22 22.0166V45.9695H371.411V22.0166H374.22ZM353.181 39.1599C356.639 37.0534 358.163 32.7345 358.163 28.5612V26.9714H354.003V24.5867H364.866V26.9714H360.998V28.5612C360.998 32.602 362.442 36.656 365.873 38.63L364.124 40.8027C361.912 39.4911 360.441 37.2124 359.607 34.4832C358.759 37.4376 357.235 39.9548 354.983 41.3591L353.181 39.1599ZM363.117 32.7477V30.363H366.562V22.467H369.344V44.8037H366.562V32.7477H363.117ZM387.025 36.9872C392.231 37.0004 395.517 38.6432 395.53 41.4916C395.517 44.2737 392.231 45.943 387.025 45.943C381.871 45.943 378.546 44.2737 378.546 41.4916C378.546 38.6432 381.871 37.0004 387.025 36.9872ZM376.294 35.2649V32.8802H384.72V28.5347H387.634V32.8802H398.021V35.2649H376.294ZM378.784 25.4876V23.1559H395.371V25.1432C395.385 27.0377 395.385 29.0514 394.709 31.5024L391.794 31.2374C392.39 28.9189 392.43 27.2232 392.43 25.4876H378.784ZM381.514 41.4916C381.487 42.8959 383.567 43.6643 387.025 43.6643C390.496 43.6643 392.589 42.8959 392.616 41.4916C392.589 40.0343 390.496 39.2129 387.025 39.2129C383.567 39.2129 381.487 40.0343 381.514 41.4916Z" fill="#FF6535"/>
</g>
<g filter="url(#filter2_d_472_24040)">
<rect x="453.34" y="0.195312" width="180.884" height="67.8314" rx="33.9157" fill="#FFFCF8" shape-rendering="crispEdges"/>
<path d="M484.631 43.6113L485.439 38.6565H481.306L480.498 43.6113H477.874L478.683 38.6565H475.993L476.417 36.0598H479.12L479.782 31.9793H477.106L477.53 29.3826H480.219L481.028 24.4278H483.651L482.843 29.3826H486.976L487.784 24.4278H490.381L489.573 29.3826H492.289L491.838 31.9793H489.136L488.473 36.0598H491.176L490.752 38.6565H488.036L487.228 43.6113H484.631ZM481.743 36.0598H485.876L486.539 31.9793H482.405L481.743 36.0598ZM493.462 43.6113V24.4278H496.906V32.5622H505.836V24.4278H509.307V43.6113H505.836V35.4504H496.906V43.6113H493.462ZM511.885 43.6113V29.2237H515.276V43.6113H511.885ZM511.646 25.3287C511.646 24.3218 512.534 23.5004 513.607 23.5004C514.68 23.5004 515.568 24.3218 515.568 25.3287C515.568 26.3488 514.68 27.1702 513.607 27.1834C512.534 27.1702 511.646 26.3488 511.646 25.3287ZM526.412 34.2315V37.0137H517.774V34.2315H526.412ZM536.197 37.1726H539.35L540.979 39.3189C542.079 38.1795 542.728 36.4042 542.715 34.0195C542.728 29.6344 540.529 27.2629 537.389 27.2629C534.262 27.2629 532.05 29.6344 532.063 34.0195C532.05 38.4047 534.262 40.7762 537.389 40.7762C537.893 40.7762 538.369 40.7099 538.82 40.5907L536.197 37.1726ZM528.592 34.0195C528.579 27.8193 532.341 24.1628 537.389 24.1628C542.41 24.1628 546.199 27.8193 546.186 34.0195C546.199 37.5039 545.007 40.18 543.073 41.8626L545.736 45.2806H542.37L540.767 43.2536C539.734 43.6643 538.595 43.8763 537.389 43.8763C532.341 43.8763 528.579 40.2065 528.592 34.0195ZM557.507 37.5701V29.2237H560.873V43.6113H557.613V41.0677H557.454C556.792 42.6707 555.282 43.7968 553.136 43.7968C550.287 43.7968 548.326 41.8361 548.313 38.3915V29.2237H551.705V37.8616C551.705 39.6898 552.791 40.8557 554.434 40.8557C555.918 40.8557 557.507 39.7693 557.507 37.5701ZM562.629 39.5573C562.629 36.3248 565.318 35.3841 567.981 35.2119C568.988 35.1324 571.041 35.0397 571.677 35.0132L571.664 33.8606C571.664 32.4297 570.75 31.6084 569.067 31.6084C567.557 31.6084 566.63 32.2973 566.365 33.3306H563.106C563.344 30.8797 565.543 29.0382 569.147 29.0382C571.876 29.0382 575.029 30.1643 575.029 33.9931V43.6113H571.797V41.6241H571.691C571.055 42.8429 569.717 43.9028 567.451 43.9028C564.709 43.9028 562.629 42.4057 562.629 39.5573ZM565.888 39.5308C565.888 40.7762 566.908 41.4121 568.326 41.4121C570.379 41.4121 571.691 40.0608 571.691 38.4445L571.677 37.2654C571.068 37.2919 569.187 37.4111 568.511 37.4641C566.908 37.5966 565.888 38.2723 565.888 39.5308ZM580.786 24.4278V43.6113H577.395V24.4278H580.786ZM583.205 43.6113V29.2237H586.597V43.6113H583.205ZM582.966 25.3287C582.966 24.3218 583.854 23.5004 584.927 23.5004C586 23.5004 586.888 24.3218 586.888 25.3287C586.888 26.3488 586 27.1702 584.927 27.1834C583.854 27.1702 582.966 26.3488 582.966 25.3287ZM596.196 29.2237V31.8203H593.361V39.2924C593.361 40.6702 594.049 40.9484 594.897 40.9617C595.295 40.9749 595.957 40.9352 596.381 40.9087V43.6643C595.984 43.7306 595.335 43.8101 594.473 43.7968C591.93 43.8101 589.969 42.5515 589.996 39.8488V31.8203H587.929V29.2237H589.996V25.7791H593.361V29.2237H596.196ZM600.019 49.0166C599.343 49.0034 598.707 48.9901 598.27 48.9372V46.2345C598.681 46.2742 599.25 46.2742 599.701 46.2875C600.522 46.2742 601.211 46.2212 601.794 44.6712L602.085 43.9028L596.839 29.2237H600.416L603.755 40.0873H603.914L607.252 29.2237H610.829L605.053 45.3601C604.232 47.6521 602.721 49.0034 600.019 49.0166Z" fill="#FF6535"/>
</g>
<g filter="url(#filter3_d_472_24040)">
<rect y="100.812" width="184.275" height="67.8314" rx="33.9157" fill="#FFFCF8" shape-rendering="crispEdges"/>
<path d="M31.4866 144.229L32.2947 139.274H28.1613L27.3531 144.229H24.73L25.5381 139.274H22.8487L23.2726 136.677H25.9753L26.6377 132.596H23.9616L24.3855 130H27.0749L27.8831 125.045H30.5062L29.6981 130H33.8315L34.6397 125.045H37.2364L36.4282 130H39.1441L38.6937 132.596H35.991L35.3286 136.677H38.0313L37.6073 139.274H34.8914L34.0833 144.229H31.4866ZM28.5985 136.677H32.7319L33.3944 132.596H29.2609L28.5985 136.677ZM53.2477 131.51C52.8371 129.205 50.9955 127.88 48.6638 127.88C45.524 127.88 43.2983 130.291 43.3115 134.637C43.2983 139.048 45.5372 141.393 48.6638 141.393C50.9425 141.393 52.7841 140.122 53.2477 137.869H56.7188C56.1889 141.552 53.155 144.493 48.6108 144.493C43.55 144.493 39.8272 140.824 39.8405 134.637C39.8272 128.437 43.5897 124.78 48.6108 124.78C52.8503 124.78 56.1226 127.244 56.7188 131.51H53.2477ZM71.8028 131.51C71.3921 129.205 69.5506 127.88 67.2189 127.88C64.079 127.88 61.8533 130.291 61.8666 134.637C61.8533 139.048 64.0923 141.393 67.2189 141.393C69.4976 141.393 71.3391 140.122 71.8028 137.869H75.2739C74.7439 141.552 71.7101 144.493 67.1659 144.493C62.105 144.493 58.3823 140.824 58.3955 134.637C58.3823 128.437 62.1448 124.78 67.1659 124.78C71.4054 124.78 74.6777 127.244 75.2739 131.51H71.8028ZM77.4275 144.229V125.045H84.6346C89.033 125.045 91.378 127.509 91.3912 131.166C91.378 133.776 90.1856 135.71 87.9334 136.624L92.0802 144.229H88.2381L84.4756 137.207H80.8721V144.229H77.4275ZM80.8721 134.319H84.1047C86.7013 134.332 87.8672 133.219 87.8672 131.166C87.8672 129.125 86.7013 127.933 84.1047 127.933H80.8721V134.319ZM93.5449 125.045H97.7844L103.481 138.982H103.72L109.416 125.045H113.656V144.229H110.344V131.033H110.158L104.832 144.176H102.368L97.0424 130.98H96.8835V144.229H93.5449V125.045ZM135.364 122.634V146.587H132.423V122.634H135.364ZM115.518 139.936C117.426 139.923 119.585 139.923 121.851 139.857V137.657C119.161 137.233 117.399 135.591 117.399 133.312C117.399 130.609 119.797 128.821 123.282 128.807C126.806 128.821 129.243 130.609 129.243 133.312C129.243 135.577 127.481 137.207 124.792 137.644V139.751C126.898 139.658 129.018 139.486 131.019 139.221L131.231 141.42C125.971 142.308 120.248 142.374 115.942 142.374L115.518 139.936ZM116.021 127.721V125.389H121.851V122.713H124.792V125.389H130.595V127.721H116.021ZM120.208 133.312C120.181 134.69 121.467 135.498 123.282 135.485C125.15 135.498 126.421 134.69 126.408 133.312C126.421 131.921 125.15 131.073 123.282 131.06C121.467 131.073 120.181 131.921 120.208 133.312ZM158.132 122.66V140.784H155.164V138.691H150.474V136.624H155.164V122.66H158.132ZM137.942 133.418C142.353 133.391 148.302 133.352 153.389 132.702L153.548 134.822C151.574 135.153 149.534 135.365 147.507 135.511V140.122H144.566V135.67C142.327 135.763 140.194 135.776 138.313 135.776L137.942 133.418ZM139.77 127.774C139.77 125.244 142.208 123.521 145.758 123.535C149.242 123.521 151.693 125.244 151.72 127.774C151.693 130.344 149.242 131.974 145.758 131.987C142.208 131.974 139.77 130.344 139.77 127.774ZM141.121 146.11V139.035H144.062V143.725H158.688V146.11H141.121ZM142.552 127.774C142.552 129.072 143.837 129.828 145.758 129.841C147.586 129.828 148.898 129.072 148.911 127.774C148.898 126.476 147.586 125.694 145.758 125.707C143.837 125.694 142.552 126.476 142.552 127.774Z" fill="#FF6535"/>
</g>
<g filter="url(#filter4_d_472_24040)">
<rect x="216" y="101" width="207" height="68" rx="34" fill="#FFFCF8" shape-rendering="crispEdges"/>
<path d="M263.35 144.5L264.158 139.545H260.025L259.216 144.5H256.593L257.401 139.545H254.712L255.136 136.948H257.839L258.501 132.868H255.825L256.249 130.271H258.938L259.746 125.316H262.369L261.561 130.271H265.695L266.503 125.316H269.1L268.291 130.271H271.007L270.557 132.868H267.854L267.192 136.948H269.895L269.471 139.545H266.755L265.947 144.5H263.35ZM260.462 136.948H264.595L265.258 132.868H261.124L260.462 136.948ZM282.938 124.548V131.967H275.095V134.988C279.057 134.974 281.706 134.842 284.687 134.352L284.926 136.763C281.613 137.28 278.699 137.359 274.088 137.372H272.128V129.688H279.997V126.906H272.101V124.548H282.938ZM275.413 146.381V139.148H278.354V143.997H291.894V146.381H275.413ZM284.237 131.331V128.84H288.317V122.932H291.258V140.552H288.317V131.331H284.237ZM308.038 125.581V127.913H302.924C302.937 130.576 305.031 133.173 308.859 134.193L307.482 136.472C304.686 135.743 302.659 134.1 301.533 131.994C300.46 134.339 298.42 136.193 295.558 137.028L294.127 134.749C297.93 133.636 299.97 130.801 299.983 127.913H294.869V125.581H299.983V122.932H302.951V125.581H308.038ZM297.492 142.354C297.492 139.519 300.606 137.863 305.68 137.876C310.727 137.863 313.841 139.519 313.841 142.354C313.841 145.189 310.727 146.832 305.68 146.832C300.606 146.832 297.492 145.189 297.492 142.354ZM300.46 142.354C300.46 143.785 302.302 144.553 305.68 144.553C309.045 144.553 310.939 143.785 310.953 142.354C310.939 140.936 309.045 140.155 305.68 140.155C302.302 140.155 300.46 140.936 300.46 142.354ZM310.82 137.452V122.932H313.788V137.452H310.82ZM317.452 144.5V125.316H329.932V128.205H320.896V133.451H329.269V136.339H320.896V141.585H329.985V144.5H317.452ZM345.122 130.112L339.981 144.5H336.272L331.131 130.112H334.735L338.047 140.817H338.206L341.545 130.112H345.122ZM352.31 144.791C347.977 144.791 345.315 141.903 345.315 137.399C345.315 132.947 348.017 129.927 352.124 129.927C355.648 129.927 358.695 132.139 358.695 137.187V138.247H348.653C348.706 140.698 350.15 142.155 352.336 142.142C353.82 142.155 354.814 141.519 355.251 140.658H358.563C357.953 143.149 355.648 144.791 352.31 144.791ZM348.666 135.942H355.463C355.45 133.981 354.125 132.55 352.177 132.55C350.15 132.55 348.786 134.113 348.666 135.942ZM363.896 136.074V144.5H360.505V130.112H363.737V132.55H363.923C364.572 130.947 366.042 129.927 368.189 129.927C371.169 129.927 373.13 131.888 373.117 135.332V144.5H369.752V135.862C369.752 133.928 368.705 132.775 366.943 132.788C365.155 132.775 363.896 133.981 363.896 136.074ZM382.716 130.112V132.709H379.881V140.181C379.881 141.559 380.57 141.837 381.418 141.85C381.815 141.864 382.478 141.824 382.902 141.797V144.553C382.504 144.619 381.855 144.699 380.994 144.685C378.45 144.699 376.489 143.44 376.516 140.737V132.709H374.449V130.112H376.516V126.668H379.881V130.112H382.716Z" fill="#FF6535"/>
</g>
<g filter="url(#filter5_d_472_24040)">
<rect x="454.725" y="101" width="285" height="68" rx="34" fill="#FFFCF8" shape-rendering="crispEdges"/>
<path d="M490.074 144.5L490.883 139.545H486.749L485.941 144.5H483.318L484.126 139.545H481.437L481.861 136.948H484.563L485.226 132.868H482.549L482.973 130.271H485.663L486.471 125.316H489.094L488.286 130.271H492.419L493.228 125.316H495.824L495.016 130.271H497.732L497.282 132.868H494.579L493.916 136.948H496.619L496.195 139.545H493.479L492.671 144.5H490.074ZM487.186 136.948H491.32L491.982 132.868H487.849L487.186 136.948ZM510.087 124.495V134.908H498.746V124.495H510.087ZM500.151 144.5C504.39 143.93 507.04 142.062 507.517 139.969H501.131V137.637H517.161V139.969H510.802C511.279 142.009 513.982 143.944 518.168 144.526L517.108 146.779C513.359 146.249 510.524 144.646 509.146 142.486C507.768 144.646 504.96 146.222 501.237 146.726L500.151 144.5ZM501.634 132.55H507.199V126.853H501.634V132.55ZM513.876 136.419V122.905H516.817V128.284H520.156V130.722H516.817V136.419H513.876ZM542.394 134.537V136.869H532.908V138.962H539.744V146.567H523.131V138.962H529.993V136.869H520.56V134.537H542.394ZM521.594 131.278C526.628 130.92 529.424 129.317 529.768 127.357H522.707V125.025H529.993V122.879H532.908V125.025H540.247V127.357H533.133C533.464 129.317 536.299 130.92 541.307 131.278L540.459 133.451C536.14 133.12 532.948 131.848 531.451 129.821C529.94 131.848 526.747 133.12 522.468 133.451L521.594 131.278ZM526.045 144.182H536.882V141.32H526.045V144.182ZM556.63 125.29V127.622H543.249V125.29H548.601V122.693H551.542V125.29H556.63ZM544.494 133.053C544.481 130.377 546.76 128.576 550.032 128.576C553.291 128.576 555.636 130.377 555.649 133.053C555.636 135.716 553.291 137.478 550.032 137.478C546.76 137.478 544.481 135.716 544.494 133.053ZM547.012 142.672C547.012 140.035 550.125 138.499 555.199 138.512C560.26 138.499 563.373 140.035 563.386 142.672C563.373 145.268 560.26 146.832 555.199 146.832C550.125 146.832 547.012 145.268 547.012 142.672ZM547.25 133.053C547.237 134.458 548.336 135.279 550.032 135.279C551.728 135.279 552.894 134.458 552.894 133.053C552.894 131.623 551.728 130.775 550.032 130.775C548.336 130.775 547.237 131.623 547.25 133.053ZM550.112 142.672C550.098 143.917 551.966 144.593 555.199 144.579C558.405 144.593 560.233 143.917 560.233 142.672C560.233 141.4 558.405 140.764 555.199 140.764C551.966 140.764 550.098 141.4 550.112 142.672ZM556.762 135.438V133.08H560.313V130.722H556.789V128.337H560.313V122.905H563.254V138.247H560.313V135.438H556.762ZM592.124 122.905V137.664H589.288V122.905H592.124ZM571.297 131.914C574.503 131.927 579.789 131.861 583.698 131.252L583.883 133.239C582.413 133.557 580.81 133.769 579.193 133.901V137.558H576.358V134.074C574.583 134.14 572.914 134.153 571.589 134.14L571.297 131.914ZM572.384 127.304C572.384 125.104 574.503 123.753 577.656 123.753C580.77 123.753 582.903 125.104 582.903 127.304C582.903 129.476 580.77 130.881 577.656 130.881C574.503 130.881 572.384 129.476 572.384 127.304ZM575.06 127.304C575.073 128.297 576.04 128.801 577.656 128.814C579.233 128.801 580.266 128.297 580.28 127.304C580.266 126.323 579.233 125.793 577.656 125.793C576.04 125.793 575.073 126.323 575.06 127.304ZM575.325 146.567V138.459H578.239V140.287H589.182V138.459H592.124V146.567H575.325ZM578.239 144.262H589.182V142.539H578.239V144.262ZM580.995 136.631V134.617H584.811V123.329H587.593V137.637H584.811V136.631H580.995ZM602.65 128.655C602.624 132.934 604.77 137.253 608.479 139.042L606.678 141.4C604.081 140.088 602.213 137.558 601.193 134.511C600.146 137.77 598.186 140.473 595.443 141.85L593.641 139.492C597.497 137.664 599.696 133.08 599.709 128.655V124.839H602.65V128.655ZM609.91 146.858V122.905H612.851V132.285H616.534V134.802H612.851V146.858H609.91ZM636.653 122.905V146.885H633.685V122.905H636.653ZM617.496 133.106C617.482 127.94 620.119 124.654 623.749 124.654C627.339 124.654 629.989 127.94 630.002 133.106C629.989 138.313 627.339 141.585 623.749 141.585C620.119 141.585 617.482 138.313 617.496 133.106ZM620.331 133.106C620.331 136.789 621.722 138.922 623.749 138.936C625.763 138.922 627.141 136.789 627.141 133.106C627.141 129.45 625.763 127.304 623.749 127.304C621.722 127.304 620.331 129.45 620.331 133.106ZM658.838 135.465V137.796H642.039V124.787H658.626V127.171H645.033V130.059H658.069V132.365H645.033V135.465H658.838ZM639.363 143.944V141.532H661.249V143.944H639.363ZM688.237 122.905V146.858H685.429V122.905H688.237ZM667.199 140.049C670.657 137.942 672.181 133.623 672.181 129.45V127.86H668.021V125.475H678.884V127.86H675.016V129.45C675.016 133.491 676.46 137.545 679.891 139.519L678.142 141.691C675.93 140.38 674.459 138.101 673.625 135.372C672.777 138.326 671.253 140.843 669.001 142.248L667.199 140.049ZM677.135 133.636V131.252H680.58V123.356H683.362V145.692H680.58V133.636H677.135ZM701.043 137.876C706.249 137.889 709.535 139.532 709.548 142.38C709.535 145.162 706.249 146.832 701.043 146.832C695.889 146.832 692.564 145.162 692.564 142.38C692.564 139.532 695.889 137.889 701.043 137.876ZM690.312 136.154V133.769H698.738V129.423H701.652V133.769H712.039V136.154H690.312ZM692.802 126.376V124.045H709.389V126.032C709.402 127.926 709.402 129.94 708.727 132.391L705.812 132.126C706.408 129.808 706.448 128.112 706.448 126.376H692.802ZM695.531 142.38C695.505 143.785 697.585 144.553 701.043 144.553C704.514 144.553 706.607 143.785 706.634 142.38C706.607 140.923 704.514 140.102 701.043 140.102C697.585 140.102 695.505 140.923 695.531 142.38Z" fill="#FF6535"/>
</g>
<defs>
<filter id="filter0_d_472_24040" x="0" y="0.195312" width="238.883" height="111.832" filterUnits="userSpaceOnUse" color-interpolation-filters="sRGB">
<feFlood flood-opacity="0" result="BackgroundImageFix"/>
<feColorMatrix in="SourceAlpha" type="matrix" values="0 0 0 0 0 0 0 0 0 0 0 0 0 0 0 0 0 0 127 0" result="hardAlpha"/>
<feOffset dx="38" dy="24"/>
<feGaussianBlur stdDeviation="10"/>
<feComposite in2="hardAlpha" operator="out"/>
<feColorMatrix type="matrix" values="0 0 0 0 1 0 0 0 0 0.662 0 0 0 0 0.35 0 0 0 0.29 0"/>
<feBlend mode="normal" in2="BackgroundImageFix" result="effect1_dropShadow_472_24040"/>
<feBlend mode="normal" in="SourceGraphic" in2="effect1_dropShadow_472_24040" result="shape"/>
</filter>
<filter id="filter1_d_472_24040" x="212.539" y="0.195312" width="267.146" height="111.832" filterUnits="userSpaceOnUse" color-interpolation-filters="sRGB">
<feFlood flood-opacity="0" result="BackgroundImageFix"/>
<feColorMatrix in="SourceAlpha" type="matrix" values="0 0 0 0 0 0 0 0 0 0 0 0 0 0 0 0 0 0 127 0" result="hardAlpha"/>
<feOffset dx="38" dy="24"/>
<feGaussianBlur stdDeviation="10"/>
<feComposite in2="hardAlpha" operator="out"/>
<feColorMatrix type="matrix" values="0 0 0 0 1 0 0 0 0 0.662 0 0 0 0 0.35 0 0 0 0.29 0"/>
<feBlend mode="normal" in2="BackgroundImageFix" result="effect1_dropShadow_472_24040"/>
<feBlend mode="normal" in="SourceGraphic" in2="effect1_dropShadow_472_24040" result="shape"/>
</filter>
<filter id="filter2_d_472_24040" x="453.34" y="0.195312" width="238.883" height="111.832" filterUnits="userSpaceOnUse" color-interpolation-filters="sRGB">
<feFlood flood-opacity="0" result="BackgroundImageFix"/>
<feColorMatrix in="SourceAlpha" type="matrix" values="0 0 0 0 0 0 0 0 0 0 0 0 0 0 0 0 0 0 127 0" result="hardAlpha"/>
<feOffset dx="38" dy="24"/>
<feGaussianBlur stdDeviation="10"/>
<feComposite in2="hardAlpha" operator="out"/>
<feColorMatrix type="matrix" values="0 0 0 0 1 0 0 0 0 0.662 0 0 0 0 0.35 0 0 0 0.29 0"/>
<feBlend mode="normal" in2="BackgroundImageFix" result="effect1_dropShadow_472_24040"/>
<feBlend mode="normal" in="SourceGraphic" in2="effect1_dropShadow_472_24040" result="shape"/>
</filter>
<filter id="filter3_d_472_24040" x="0" y="100.812" width="242.275" height="111.832" filterUnits="userSpaceOnUse" color-interpolation-filters="sRGB">
<feFlood flood-opacity="0" result="BackgroundImageFix"/>
<feColorMatrix in="SourceAlpha" type="matrix" values="0 0 0 0 0 0 0 0 0 0 0 0 0 0 0 0 0 0 127 0" result="hardAlpha"/>
<feOffset dx="38" dy="24"/>
<feGaussianBlur stdDeviation="10"/>
<feComposite in2="hardAlpha" operator="out"/>
<feColorMatrix type="matrix" values="0 0 0 0 1 0 0 0 0 0.662 0 0 0 0 0.35 0 0 0 0.29 0"/>
<feBlend mode="normal" in2="BackgroundImageFix" result="effect1_dropShadow_472_24040"/>
<feBlend mode="normal" in="SourceGraphic" in2="effect1_dropShadow_472_24040" result="shape"/>
</filter>
<filter id="filter4_d_472_24040" x="216" y="101" width="265" height="112" filterUnits="userSpaceOnUse" color-interpolation-filters="sRGB">
<feFlood flood-opacity="0" result="BackgroundImageFix"/>
<feColorMatrix in="SourceAlpha" type="matrix" values="0 0 0 0 0 0 0 0 0 0 0 0 0 0 0 0 0 0 127 0" result="hardAlpha"/>
<feOffset dx="38" dy="24"/>
<feGaussianBlur stdDeviation="10"/>
<feComposite in2="hardAlpha" operator="out"/>
<feColorMatrix type="matrix" values="0 0 0 0 1 0 0 0 0 0.662 0 0 0 0 0.35 0 0 0 0.29 0"/>
<feBlend mode="normal" in2="BackgroundImageFix" result="effect1_dropShadow_472_24040"/>
<feBlend mode="normal" in="SourceGraphic" in2="effect1_dropShadow_472_24040" result="shape"/>
</filter>
<filter id="filter5_d_472_24040" x="454.725" y="101" width="343" height="112" filterUnits="userSpaceOnUse" color-interpolation-filters="sRGB">
<feFlood flood-opacity="0" result="BackgroundImageFix"/>
<feColorMatrix in="SourceAlpha" type="matrix" values="0 0 0 0 0 0 0 0 0 0 0 0 0 0 0 0 0 0 127 0" result="hardAlpha"/>
<feOffset dx="38" dy="24"/>
<feGaussianBlur stdDeviation="10"/>
<feComposite in2="hardAlpha" operator="out"/>
<feColorMatrix type="matrix" values="0 0 0 0 1 0 0 0 0 0.662 0 0 0 0 0.35 0 0 0 0.29 0"/>
<feBlend mode="normal" in2="BackgroundImageFix" result="effect1_dropShadow_472_24040"/>
<feBlend mode="normal" in="SourceGraphic" in2="effect1_dropShadow_472_24040" result="shape"/>
</filter>
</defs>
</svg>
