<svg width="479" height="697" viewBox="0 0 479 697" fill="none" xmlns="http://www.w3.org/2000/svg">
<g clip-path="url(#clip0_407_25858)">
<rect width="824" height="696" transform="translate(0 0.0722656)" fill="white"/>
<g clip-path="url(#clip1_407_25858)">
<rect width="784" height="696" transform="translate(20 0.0722656)" fill="white"/>
<path d="M24.7639 54.6473C26.9639 54.6638 28.5684 55.9871 28.5684 57.9059C28.5684 59.8247 26.9639 61.148 24.7639 61.148C22.5308 61.148 20.9429 59.8247 20.9429 57.9059C20.9429 55.9871 22.5308 54.6638 24.7639 54.6473ZM24.7639 55.739C23.2917 55.739 22.2 56.6322 22.2165 57.9059C22.2 59.1961 23.2917 60.0894 24.7639 60.0894C26.2195 60.0894 27.3113 59.1961 27.3113 57.9059C27.3113 56.6322 26.2195 55.739 24.7639 55.739ZM32.7368 54.1014V61.6608H31.4466V54.1014H32.7368ZM32.7368 62.3721V65.9119H24.4827V67.566H33.2662V68.6081H23.209V64.936H31.4466V63.4142H23.1759V62.3721H32.7368ZM47.2562 54.1014V62.8683H45.9494V59.0142H42.9885V57.939H45.9494V54.1014H47.2562ZM42.3765 63.3315C45.4366 63.3315 47.3058 64.3239 47.3058 66.0608C47.3058 67.7976 45.4366 68.7901 42.3765 68.8066C39.3163 68.7901 37.4472 67.7976 37.4472 66.0608C37.4472 64.3239 39.3163 63.3315 42.3765 63.3315ZM42.3765 64.3405C40.1269 64.3405 38.7208 64.9856 38.7374 66.0608C38.7208 67.1194 40.1269 67.7645 42.3765 67.7645C44.6261 67.7645 46.0156 67.1194 46.0156 66.0608C46.0156 64.9856 44.6261 64.3405 42.3765 64.3405ZM40.1765 56.7976C40.1765 58.7164 41.6487 60.536 43.799 61.2803L43.1208 62.3224C41.4667 61.7269 40.1847 60.4946 39.5644 58.9645C38.9193 60.6931 37.5547 62.0743 35.8096 62.736L35.1314 61.6939C37.3148 60.8999 38.8697 58.9149 38.8697 56.8142V56.2683H35.5449V55.1766H43.4682V56.2683H40.1765V56.7976ZM57.6898 55.2427V56.0202C57.6733 56.9796 57.6733 58.4518 57.3093 60.3706L56.0026 60.2713C56.3582 58.5097 56.3913 57.2608 56.4161 56.3345H50.362V55.2427H57.6898ZM53.9018 58.5014V61.6608C55.5311 61.5946 57.2184 61.4788 58.7484 61.2638L58.8311 62.2232C55.7545 62.7525 52.1981 62.8187 49.5845 62.8187L49.4522 61.7435C50.4033 61.7352 51.4785 61.7269 52.6116 61.6939V58.5014H53.9018ZM61.0642 54.1014V58.8984H63.2146V60.0066H61.0642V65.1675H59.7409V54.1014H61.0642ZM61.5439 67.4006V68.4924H51.7184V64.1751H53.0251V67.4006H61.5439ZM76.146 54.1014V68.8397H74.8557V54.1014H76.146ZM71.6798 55.4743V60.7014H66.1881V64.1751C68.6279 64.1751 70.8031 64.0675 73.4332 63.6457L73.5655 64.7375C70.8527 65.1675 68.6197 65.2668 66.0888 65.2668H64.8648V59.6427H70.373V56.5495H64.8317V55.4743H71.6798Z" fill="#1E1E1E"/>
<path d="M394.582 103.975L394.566 102.961L398.36 98.9673C399.681 97.5696 400.311 96.8169 400.311 95.7878C400.311 94.6512 399.343 93.8986 398.099 93.8986C396.778 93.8986 395.933 94.7434 395.933 95.9875H394.628C394.612 94.0214 396.133 92.7005 398.145 92.7005C400.157 92.7005 401.601 94.0522 401.601 95.7878C401.601 97.032 401.018 97.9996 399.051 100.027L396.502 102.654V102.746H401.801V103.975H394.582ZM407.296 104.128C404.823 104.128 403.41 102.055 403.41 98.4144C403.41 94.8048 404.854 92.7005 407.296 92.7005C409.738 92.7005 411.182 94.8048 411.182 98.4144C411.182 102.055 409.754 104.128 407.296 104.128ZM407.296 102.899C408.893 102.899 409.83 101.287 409.83 98.4144C409.83 95.5421 408.893 93.8986 407.296 93.8986C405.699 93.8986 404.746 95.5421 404.746 98.4144C404.746 101.287 405.683 102.899 407.296 102.899ZM412.868 103.975L412.853 102.961L416.646 98.9673C417.967 97.5696 418.597 96.8169 418.597 95.7878C418.597 94.6512 417.629 93.8986 416.385 93.8986C415.064 93.8986 414.22 94.7434 414.22 95.9875H412.914C412.899 94.0214 414.419 92.7005 416.431 92.7005C418.444 92.7005 419.887 94.0522 419.887 95.7878C419.887 97.032 419.304 97.9996 417.338 100.027L414.788 102.654V102.746H420.087V103.975H412.868ZM421.42 101.701V100.565L426.427 92.8541H428.132V100.488H429.683V101.701H428.132V103.975H426.811V101.701H421.42ZM422.91 100.488H426.811V94.6051H426.673L422.91 100.396V100.488Z" fill="#666666"/>
<path d="M352.303 131.703V129.685L360.507 126.046V128.378L354.933 130.628V130.727L360.507 132.993V135.326L352.303 131.703Z" fill="#1E1E1E"/>
<path d="M396.397 137.975L404.635 122.12V121.996H395.132V120.011H406.942V122.095L398.729 137.975H396.397ZM426.984 117.951V130.953H425.024V129.737H420.558V128.447H425.024V117.951H426.984ZM408.723 126.263C412.99 126.288 418.449 126.239 423.213 125.717L423.337 126.983C421.178 127.293 418.933 127.479 416.737 127.578V131.027H414.827V127.653C412.742 127.727 410.745 127.74 408.946 127.727L408.723 126.263ZM426.984 131.747V136.312H414.107V138.297H427.704V139.736H412.196V134.948H425.049V133.161H412.097V131.747H426.984ZM415.918 118.373C419.193 118.373 421.377 119.663 421.402 121.698C421.377 123.757 419.193 124.998 415.918 124.998C412.593 124.998 410.435 123.757 410.435 121.698C410.435 119.663 412.593 118.373 415.918 118.373ZM415.918 119.738C413.685 119.738 412.246 120.507 412.271 121.698C412.246 122.864 413.685 123.658 415.918 123.658C418.127 123.658 419.566 122.864 419.566 121.698C419.566 120.507 418.127 119.738 415.918 119.738Z" fill="#1E1E1E"/>
<path d="M471.701 131.703V129.685L463.497 126.046V128.378L469.071 130.628V130.727L463.497 132.993V135.326L471.701 131.703Z" fill="#1E1E1E"/>
<rect width="112" height="24.1976" transform="translate(20 157.357)" fill="#EEEEEE"/>
<path d="M73.9028 164.3C75.4742 164.312 76.6203 165.257 76.6203 166.628C76.6203 167.998 75.4742 168.944 73.9028 168.944C72.3077 168.944 71.1735 167.998 71.1735 166.628C71.1735 165.257 72.3077 164.312 73.9028 164.3ZM73.9028 165.08C72.8512 165.08 72.0714 165.718 72.0832 166.628C72.0714 167.549 72.8512 168.187 73.9028 168.187C74.9425 168.187 75.7223 167.549 75.7223 166.628C75.7223 165.718 74.9425 165.08 73.9028 165.08ZM79.5977 163.91V169.31H78.6762V163.91H79.5977ZM79.5977 169.818V172.346H73.7019V173.528H79.9758V174.272H72.7922V171.649H78.6762V170.562H72.7685V169.818H79.5977Z" fill="#FF0000"/>
<rect width="112" height="24.1976" transform="translate(132 157.357)" fill="#EEEEEE"/>
<path d="M191.586 163.922V170.113H190.653V169.534H188.526V168.92H190.653V163.922H191.586ZM182.89 167.88C184.922 167.892 187.521 167.868 189.79 167.62L189.849 168.223C188.821 168.371 187.752 168.459 186.706 168.506V170.149H185.796V168.542C184.804 168.577 183.853 168.583 182.996 168.577L182.89 167.88ZM191.586 170.491V172.665H185.454V173.611H191.929V174.296H184.544V172.016H190.664V171.165H184.497V170.491H191.586ZM186.316 164.123C187.876 164.123 188.916 164.737 188.927 165.706C188.916 166.687 187.876 167.278 186.316 167.278C184.733 167.278 183.705 166.687 183.705 165.706C183.705 164.737 184.733 164.123 186.316 164.123ZM186.316 164.773C185.253 164.773 184.568 165.139 184.579 165.706C184.568 166.262 185.253 166.64 186.316 166.64C187.368 166.64 188.053 166.262 188.053 165.706C188.053 165.139 187.368 164.773 186.316 164.773Z" fill="#1E1E1E"/>
<rect width="112" height="24.1976" transform="translate(244 157.357)" fill="#EEEEEE"/>
<path d="M303.078 163.91V168.388H304.756V169.168H303.078V174.414H302.144V163.91H303.078ZM294.795 171.614C295.652 171.614 296.65 171.614 297.69 171.578V170.409C296.467 170.273 295.67 169.558 295.682 168.518C295.67 167.337 296.674 166.569 298.163 166.569C299.628 166.569 300.644 167.337 300.656 168.518C300.644 169.558 299.835 170.273 298.624 170.421V171.543C299.604 171.496 300.591 171.419 301.506 171.283L301.566 171.992C299.273 172.382 296.792 172.405 294.949 172.405L294.795 171.614ZM301.317 165.198V165.954H294.984V165.198H297.69V163.934H298.624V165.198H301.317ZM298.163 167.289C297.194 167.289 296.544 167.786 296.544 168.518C296.544 169.251 297.194 169.723 298.163 169.712C299.12 169.723 299.77 169.251 299.77 168.518C299.77 167.786 299.12 167.289 298.163 167.289Z" fill="#1E1E1E"/>
<rect width="112" height="24.1976" transform="translate(356.002 157.357)" fill="#EEEEEE"/>
<path d="M412.197 164.891C412.197 166.368 414.135 167.656 416.025 167.916L415.647 168.672C414.016 168.4 412.404 167.496 411.724 166.202C411.051 167.502 409.432 168.4 407.802 168.672L407.424 167.916C409.314 167.656 411.24 166.392 411.24 164.891V164.288H412.197V164.891ZM416.498 169.83V170.61H412.15V174.414H411.24V170.61H406.927V169.83H416.498Z" fill="#1E1E1E"/>
<rect width="112" height="24.1976" transform="translate(468.002 157.357)" fill="#EEEEEE"/>
<rect x="20" y="181.555" width="111.914" height="111.309" stroke="#DDDDDD" stroke-width="0.604941"/>
<path opacity="0.3" d="M25.4826 194.975L25.4731 194.351L27.8078 191.893C28.6207 191.033 29.0083 190.57 29.0083 189.937C29.0083 189.237 28.4128 188.774 27.6471 188.774C26.8343 188.774 26.3144 189.294 26.3144 190.059H25.5109C25.5015 188.85 26.4373 188.037 27.6755 188.037C28.9137 188.037 29.8022 188.868 29.8022 189.937C29.8022 190.702 29.4431 191.298 28.2332 192.545L26.6641 194.162V194.218H29.9251V194.975H25.4826ZM33.354 195.069C31.9173 195.069 30.9153 194.275 30.9248 193.16C30.9153 192.271 31.5297 191.543 32.3143 191.421V191.383C31.6337 191.222 31.1895 190.598 31.1895 189.852C31.1895 188.802 32.1063 188.037 33.354 188.037C34.6017 188.037 35.5186 188.802 35.528 189.852C35.5186 190.598 35.0649 191.222 34.3937 191.383V191.421C35.1688 191.543 35.7832 192.271 35.7927 193.16C35.7832 194.275 34.7813 195.069 33.354 195.069ZM33.354 194.322C34.337 194.322 34.942 193.831 34.942 193.113C34.942 192.356 34.2709 191.799 33.354 191.799C32.4371 191.799 31.7566 192.356 31.7755 193.113C31.7566 193.831 32.371 194.322 33.354 194.322ZM33.354 191.08C34.1291 191.08 34.6962 190.608 34.6962 189.918C34.6962 189.237 34.1574 188.774 33.354 188.774C32.5411 188.774 32.0118 189.237 32.0118 189.918C32.0118 190.608 32.5695 191.08 33.354 191.08Z" fill="#FF0000"/>
<rect x="131.914" y="181.555" width="111.914" height="111.309" stroke="#DDDDDD" stroke-width="0.604941"/>
<path opacity="0.3" d="M137.397 194.975L137.387 194.351L139.722 191.893C140.535 191.033 140.922 190.57 140.922 189.937C140.922 189.237 140.327 188.774 139.561 188.774C138.748 188.774 138.228 189.294 138.228 190.059H137.425C137.416 188.85 138.351 188.037 139.59 188.037C140.828 188.037 141.716 188.868 141.716 189.937C141.716 190.702 141.357 191.298 140.147 192.545L138.578 194.162V194.218H141.839V194.975H137.397ZM145.259 188.037C146.44 188.046 147.745 188.755 147.745 191.279C147.745 193.708 146.752 195.069 145.145 195.069C143.945 195.069 143.094 194.332 142.924 193.245H143.765C143.916 193.859 144.38 194.313 145.145 194.313C146.261 194.313 146.941 193.349 146.951 191.685H146.856C146.459 192.252 145.835 192.593 145.107 192.593C143.879 192.593 142.867 191.657 142.867 190.334C142.867 189.058 143.803 188.027 145.259 188.037ZM145.259 188.783C144.361 188.783 143.69 189.483 143.699 190.324C143.699 191.175 144.332 191.846 145.23 191.846C146.119 191.846 146.818 191.109 146.818 190.305C146.818 189.521 146.166 188.783 145.259 188.783Z" fill="#1E1E1E"/>
<rect x="243.828" y="181.555" width="111.914" height="111.309" stroke="#DDDDDD" stroke-width="0.604941"/>
<path opacity="0.3" d="M251.674 195.069C250.313 195.069 249.339 194.341 249.292 193.254H250.152C250.199 193.907 250.851 194.313 251.664 194.313C252.562 194.313 253.224 193.821 253.224 193.113C253.224 192.366 252.628 191.836 251.56 191.836H251.003V191.09H251.56C252.392 191.09 252.969 190.627 252.969 189.918C252.969 189.237 252.468 188.774 251.693 188.774C250.965 188.774 250.294 189.18 250.256 189.852H249.434C249.481 188.765 250.483 188.037 251.702 188.037C253.007 188.037 253.801 188.887 253.791 189.87C253.801 190.646 253.347 191.222 252.628 191.421V191.468C253.517 191.61 254.065 192.243 254.056 193.113C254.065 194.237 253.035 195.069 251.674 195.069ZM257.428 195.069C255.906 195.069 255.036 193.793 255.036 191.553C255.036 189.332 255.925 188.037 257.428 188.037C258.931 188.037 259.819 189.332 259.819 191.553C259.819 193.793 258.94 195.069 257.428 195.069ZM257.428 194.313C258.411 194.313 258.988 193.32 258.988 191.553C258.988 189.785 258.411 188.774 257.428 188.774C256.445 188.774 255.859 189.785 255.859 191.553C255.859 193.32 256.435 194.313 257.428 194.313Z" fill="#1E1E1E"/>
<rect x="355.742" y="181.555" width="111.914" height="111.309" stroke="#DDDDDD" stroke-width="0.604941"/>
<path d="M363.645 188.131V194.975H362.784V189.02H362.747L361.083 190.126V189.265L362.784 188.131H363.645Z" fill="#1E1E1E"/>
<rect x="467.656" y="181.555" width="111.914" height="111.309" stroke="#DDDDDD" stroke-width="0.604941"/>
<path d="M473.139 194.975L473.129 194.351L475.464 191.893C476.277 191.033 476.665 190.57 476.665 189.937C476.665 189.237 476.069 188.774 475.303 188.774C474.491 188.774 473.971 189.294 473.971 190.059H473.167C473.158 188.85 474.094 188.037 475.332 188.037C476.57 188.037 477.458 188.868 477.458 189.937C477.458 190.702 477.099 191.298 475.889 192.545L474.32 194.162V194.218H477.581V194.975H473.139Z" fill="#1E1E1E"/>
<rect x="20" y="292.863" width="111.914" height="111.309" stroke="#DDDDDD" stroke-width="0.604941"/>
<path d="M27.7133 306.378C26.4751 306.378 25.5393 305.612 25.492 304.563H26.3144C26.3806 305.177 26.976 305.631 27.7133 305.631C28.6018 305.631 29.2446 304.979 29.2446 304.119C29.2446 303.23 28.5735 302.578 27.6566 302.568C27.08 302.559 26.6358 302.739 26.3806 303.183H25.5582L26.0403 299.44H29.7455V300.196H26.7492L26.494 302.2H26.5601C26.8626 301.964 27.3258 301.803 27.8078 301.803C29.1122 301.803 30.0764 302.767 30.0764 304.1C30.0764 305.423 29.0744 306.378 27.7133 306.378Z" fill="#FF0000"/>
<rect x="131.914" y="292.863" width="111.914" height="111.309" stroke="#DDDDDD" stroke-width="0.604941"/>
<rect x="136.754" y="296.734" width="12.0988" height="12.0988" rx="6.04941" fill="#FF0000"/>
<path d="M142.827 306.378C141.636 306.359 140.332 305.659 140.332 303.126C140.332 300.706 141.325 299.345 142.931 299.345C144.132 299.345 144.973 300.083 145.153 301.16H144.311C144.151 300.555 143.697 300.101 142.931 300.101C141.807 300.101 141.135 301.066 141.135 302.71H141.221C141.618 302.143 142.241 301.803 142.979 301.803C144.198 301.803 145.209 302.748 145.209 304.071C145.209 305.357 144.264 306.387 142.827 306.378ZM142.827 305.631C143.716 305.631 144.378 304.932 144.387 304.081C144.378 303.24 143.744 302.55 142.846 302.55C141.948 302.55 141.258 303.277 141.249 304.09C141.249 304.894 141.911 305.631 142.827 305.631Z" fill="white"/>
<path d="M161.215 298.646V307.049H160.506V302.644H159.268V306.614H158.588V298.835H159.268V302.03H160.506V298.646H161.215ZM157.491 299.676V300.291H155.081V304.336C156.239 304.331 157.042 304.289 157.973 304.1L158.039 304.724C157.028 304.932 156.168 304.969 154.882 304.969H154.344V299.676H157.491ZM164.758 301.236C164.758 302.587 165.448 303.967 166.591 304.582L166.166 305.139C165.33 304.686 164.725 303.816 164.417 302.805C164.115 303.882 163.515 304.818 162.678 305.329L162.234 304.761C163.378 304.1 164.049 302.625 164.058 301.236V300.82H162.461V300.205H164.058V298.958H164.767V300.205H166.336V300.82H164.758V301.236ZM169.484 298.646V307.049H168.775V298.646H169.484ZM167.782 298.854V306.614H167.083V302.597H165.76V301.964H167.083V298.854H167.782ZM177.781 299.582V300.187H170.965V299.582H174.028V298.599H174.756V299.582H177.781ZM178.263 304.015V304.629H176.23V307.068H175.493V304.629H173.319V307.068H172.572V304.629H170.568V304.015H178.263ZM174.397 300.669C176.107 300.669 177.138 301.16 177.138 302.058C177.138 302.947 176.107 303.448 174.397 303.448C172.676 303.448 171.646 302.947 171.656 302.058C171.646 301.16 172.676 300.669 174.397 300.669ZM174.397 301.236C173.139 301.245 172.412 301.538 172.421 302.058C172.412 302.578 173.139 302.871 174.397 302.871C175.635 302.871 176.363 302.578 176.372 302.058C176.363 301.538 175.635 301.245 174.397 301.236ZM181.219 298.958C182.476 298.967 183.393 299.723 183.393 300.82C183.393 301.916 182.476 302.672 181.219 302.672C179.943 302.672 179.035 301.916 179.035 300.82C179.035 299.723 179.943 298.967 181.219 298.958ZM181.219 299.582C180.378 299.582 179.754 300.092 179.763 300.82C179.754 301.557 180.378 302.068 181.219 302.068C182.051 302.068 182.674 301.557 182.674 300.82C182.674 300.092 182.051 299.582 181.219 299.582ZM185.775 298.646V302.965H185.038V298.646H185.775ZM185.775 303.372V305.395H181.058V306.34H186.077V306.935H180.33V304.837H185.038V303.967H180.311V303.372H185.775Z" fill="#FF0000"/>
<rect x="243.828" y="292.863" width="111.914" height="111.309" stroke="#DDDDDD" stroke-width="0.604941"/>
<path d="M249.528 306.283L252.666 300.243V300.196H249.046V299.44H253.545V300.234L250.417 306.283H249.528Z" fill="#1E1E1E"/>
<path d="M249.642 328.051V318.987H252.25V320.036H250.984V327.002H252.25V328.051H249.642ZM255.736 319.743C255.736 320.783 256.341 321.784 257.702 322.21L257.059 323.146C256.147 322.843 255.509 322.257 255.14 321.501C254.767 322.371 254.101 323.051 253.118 323.382L252.465 322.437C253.902 321.955 254.517 320.811 254.526 319.629V318.845H255.736V319.743ZM259.422 318.391V320.404H260.585V321.406H259.422V323.495H258.212V318.391H259.422ZM256.606 323.665C258.383 323.665 259.507 324.28 259.507 325.329C259.507 326.388 258.383 326.993 256.606 326.993C254.791 326.993 253.656 326.388 253.656 325.329C253.656 324.28 254.791 323.665 256.606 323.665ZM256.606 324.611C255.471 324.611 254.857 324.856 254.866 325.329C254.857 325.821 255.471 326.047 256.606 326.047C257.721 326.047 258.316 325.821 258.316 325.329C258.316 324.856 257.721 324.611 256.606 324.611ZM267.691 318.391V320.329H268.853V321.321H267.691V323.221H266.481V318.391H267.691ZM265.035 318.93V319.885H262.407V321.936C263.962 321.926 264.817 321.87 265.781 321.671L265.904 322.616C264.827 322.862 263.834 322.9 261.925 322.9H261.197V318.93H265.035ZM267.691 323.58V326.889H262.067V323.58H267.691ZM263.258 324.535V325.943H266.5V324.535H263.258ZM271.677 328.051H269.068V327.002H270.335V320.036H269.068V318.987H271.677V328.051Z" fill="#3586FF"/>
<path d="M279.898 319.138V319.951C279.898 321.028 279.898 322.238 279.549 324.062L278.339 323.94C278.665 322.314 278.679 321.104 278.689 320.093H273.622V319.138H279.898ZM280.655 324.96V325.943H272.809V324.96H275.617V322.002H276.817V324.96H280.655ZM288.469 318.401V323.439H287.326V321.359H286.55V323.401H285.416V318.552H286.55V320.376H287.326V318.401H288.469ZM288.469 323.769V326.993H287.269V324.743H282.467V323.769H288.469ZM284.83 318.987C284.83 321.151 283.79 322.607 281.55 323.495L280.983 322.597C282.604 322.002 283.417 321.113 283.601 319.951H281.399V318.987H284.83ZM296.539 318.391V323.221H295.339V318.391H296.539ZM291.047 318.883V321.784C292.352 321.775 293.458 321.681 294.611 321.435L294.753 322.408C293.411 322.692 292.125 322.796 290.584 322.796H289.838V318.883H291.047ZM296.539 323.571V326.889H290.792V323.571H296.539ZM291.974 324.516V325.943H295.358V324.516H291.974ZM302.887 319.743C302.887 320.783 303.491 321.784 304.853 322.21L304.21 323.146C303.298 322.843 302.66 322.257 302.291 321.501C301.918 322.371 301.251 323.051 300.268 323.382L299.616 322.437C301.053 321.955 301.667 320.811 301.677 319.629V318.845H302.887V319.743ZM306.573 318.391V320.404H307.736V321.406H306.573V323.495H305.363V318.391H306.573ZM303.756 323.665C305.533 323.665 306.658 324.28 306.658 325.329C306.658 326.388 305.533 326.993 303.756 326.993C301.941 326.993 300.807 326.388 300.807 325.329C300.807 324.28 301.941 323.665 303.756 323.665ZM303.756 324.611C302.622 324.611 302.007 324.856 302.017 325.329C302.007 325.821 302.622 326.047 303.756 326.047C304.871 326.047 305.467 325.821 305.467 325.329C305.467 324.856 304.871 324.611 303.756 324.611ZM314.841 318.391V320.329H316.004V321.321H314.841V323.221H313.631V318.391H314.841ZM312.185 318.93V319.885H309.558V321.936C311.112 321.926 311.968 321.87 312.932 321.671L313.055 322.616C311.977 322.862 310.985 322.9 309.075 322.9H308.348V318.93H312.185ZM314.841 323.58V326.889H309.217V323.58H314.841ZM310.408 324.535V325.943H313.65V324.535H310.408Z" fill="#1E1E1E"/>
<rect x="355.742" y="292.863" width="111.914" height="111.309" stroke="#DDDDDD" stroke-width="0.604941"/>
<path d="M363.512 306.378C362.075 306.378 361.074 305.584 361.083 304.468C361.074 303.58 361.688 302.852 362.472 302.729V302.691C361.792 302.531 361.348 301.907 361.348 301.16C361.348 300.111 362.265 299.345 363.512 299.345C364.76 299.345 365.677 300.111 365.686 301.16C365.677 301.907 365.223 302.531 364.552 302.691V302.729C365.327 302.852 365.941 303.58 365.951 304.468C365.941 305.584 364.939 306.378 363.512 306.378ZM363.512 305.631C364.495 305.631 365.1 305.139 365.1 304.421C365.1 303.665 364.429 303.107 363.512 303.107C362.595 303.107 361.915 303.665 361.934 304.421C361.915 305.139 362.529 305.631 363.512 305.631ZM363.512 302.389C364.287 302.389 364.854 301.916 364.854 301.226C364.854 300.546 364.316 300.083 363.512 300.083C362.699 300.083 362.17 300.546 362.17 301.226C362.17 301.916 362.728 302.389 363.512 302.389Z" fill="#1E1E1E"/>
<path d="M361.556 328.051V318.987H364.164V320.036H362.898V327.002H364.164V328.051H361.556ZM367.65 319.743C367.65 320.783 368.255 321.784 369.616 322.21L368.973 323.146C368.061 322.843 367.423 322.257 367.055 321.501C366.681 322.371 366.015 323.051 365.032 323.382L364.38 322.437C365.816 321.955 366.431 320.811 366.44 319.629V318.845H367.65V319.743ZM371.336 318.391V320.404H372.499V321.406H371.336V323.495H370.126V318.391H371.336ZM368.52 323.665C370.297 323.665 371.421 324.28 371.421 325.329C371.421 326.388 370.297 326.993 368.52 326.993C366.705 326.993 365.571 326.388 365.571 325.329C365.571 324.28 366.705 323.665 368.52 323.665ZM368.52 324.611C367.385 324.611 366.771 324.856 366.78 325.329C366.771 325.821 367.385 326.047 368.52 326.047C369.635 326.047 370.23 325.821 370.23 325.329C370.23 324.856 369.635 324.611 368.52 324.611ZM379.605 318.391V320.329H380.767V321.321H379.605V323.221H378.395V318.391H379.605ZM376.949 318.93V319.885H374.321V321.936C375.876 321.926 376.731 321.87 377.695 321.671L377.818 322.616C376.741 322.862 375.748 322.9 373.839 322.9H373.111V318.93H376.949ZM379.605 323.58V326.889H373.981V323.58H379.605ZM375.172 324.535V325.943H378.414V324.535H375.172ZM383.591 328.051H380.983V327.002H382.249V320.036H380.983V318.987H383.591V328.051Z" fill="#3586FF"/>
<path d="M391.812 319.138V319.951C391.812 321.028 391.812 322.238 391.463 324.062L390.253 323.94C390.579 322.314 390.593 321.104 390.603 320.093H385.536V319.138H391.812ZM392.569 324.96V325.943H384.723V324.96H387.531V322.002H388.731V324.96H392.569ZM400.383 318.401V323.439H399.24V321.359H398.465V323.401H397.33V318.552H398.465V320.376H399.24V318.401H400.383ZM400.383 323.769V326.993H399.183V324.743H394.381V323.769H400.383ZM396.744 318.987C396.744 321.151 395.705 322.607 393.464 323.495L392.897 322.597C394.518 322.002 395.331 321.113 395.515 319.951H393.313V318.987H396.744ZM408.453 318.391V323.221H407.253V318.391H408.453ZM402.962 318.883V321.784C404.266 321.775 405.372 321.681 406.525 321.435L406.667 322.408C405.325 322.692 404.039 322.796 402.498 322.796H401.752V318.883H402.962ZM408.453 323.571V326.889H402.706V323.571H408.453ZM403.888 324.516V325.943H407.272V324.516H403.888ZM414.801 319.743C414.801 320.783 415.406 321.784 416.767 322.21L416.124 323.146C415.212 322.843 414.574 322.257 414.205 321.501C413.832 322.371 413.165 323.051 412.182 323.382L411.53 322.437C412.967 321.955 413.581 320.811 413.591 319.629V318.845H414.801V319.743ZM418.487 318.391V320.404H419.65V321.406H418.487V323.495H417.277V318.391H418.487ZM415.67 323.665C417.447 323.665 418.572 324.28 418.572 325.329C418.572 326.388 417.447 326.993 415.67 326.993C413.855 326.993 412.721 326.388 412.721 325.329C412.721 324.28 413.855 323.665 415.67 323.665ZM415.67 324.611C414.536 324.611 413.922 324.856 413.931 325.329C413.922 325.821 414.536 326.047 415.67 326.047C416.786 326.047 417.381 325.821 417.381 325.329C417.381 324.856 416.786 324.611 415.67 324.611ZM426.755 318.391V320.329H427.918V321.321H426.755V323.221H425.545V318.391H426.755ZM424.099 318.93V319.885H421.472V321.936C423.026 321.926 423.882 321.87 424.846 321.671L424.969 322.616C423.891 322.862 422.899 322.9 420.99 322.9H420.262V318.93H424.099ZM426.755 323.58V326.889H421.131V323.58H426.755ZM422.322 324.535V325.943H425.564V324.535H422.322Z" fill="#1E1E1E"/>
<path d="M361.556 347.891V338.826H364.164V339.876H362.898V346.842H364.164V347.891H361.556ZM371.932 338.231V346.832H370.769V342.456H369.985V346.454H368.86V338.458H369.985V341.492H370.769V338.231H371.932ZM368.255 339.29C368.245 341.69 367.527 343.657 365.107 345.065L364.408 344.233C366.161 343.203 366.913 341.941 367.083 340.254H364.843V339.29H368.255ZM379.983 338.24V344.422H378.773V338.24H379.983ZM380.21 345.717V346.681H374.217V343.798H375.436V345.717H380.21ZM375.266 338.789C376.59 338.789 377.62 339.696 377.62 340.953C377.62 342.239 376.59 343.137 375.266 343.137C373.943 343.137 372.913 342.239 372.913 340.953C372.913 339.696 373.943 338.789 375.266 338.789ZM375.266 339.838C374.595 339.828 374.085 340.254 374.094 340.953C374.085 341.672 374.595 342.087 375.266 342.087C375.918 342.087 376.429 341.672 376.429 340.953C376.429 340.254 375.918 339.828 375.266 339.838ZM383.591 347.891H380.983V346.842H382.249V339.876H380.983V338.826H383.591V347.891Z" fill="#29A084"/>
<path d="M387.19 338.637C388.447 338.647 389.364 339.403 389.364 340.5C389.364 341.596 388.447 342.352 387.19 342.352C385.914 342.352 385.007 341.596 385.007 340.5C385.007 339.403 385.914 338.647 387.19 338.637ZM387.19 339.261C386.349 339.261 385.725 339.772 385.735 340.5C385.725 341.237 386.349 341.747 387.19 341.747C388.022 341.747 388.646 341.237 388.646 340.5C388.646 339.772 388.022 339.261 387.19 339.261ZM391.746 338.326V342.645H391.009V338.326H391.746ZM391.746 343.052V345.074H387.03V346.02H392.049V346.615H386.302V344.517H391.009V343.647H386.283V343.052H391.746ZM400.043 338.326V343.335H399.296V341.133H397.604V340.518H399.296V338.326H400.043ZM397.255 343.6C399.003 343.6 400.071 344.167 400.071 345.159C400.071 346.152 399.003 346.719 397.255 346.729C395.506 346.719 394.438 346.152 394.438 345.159C394.438 344.167 395.506 343.6 397.255 343.6ZM397.255 344.176C395.969 344.176 395.166 344.545 395.175 345.159C395.166 345.764 395.969 346.133 397.255 346.133C398.54 346.133 399.334 345.764 399.334 345.159C399.334 344.545 398.54 344.176 397.255 344.176ZM395.998 339.866C395.998 340.963 396.839 342.002 398.068 342.428L397.68 343.023C396.735 342.683 396.002 341.979 395.648 341.104C395.279 342.092 394.499 342.881 393.502 343.26L393.115 342.664C394.362 342.21 395.251 341.076 395.251 339.876V339.564H393.351V338.94H397.879V339.564H395.998V339.866ZM408.519 338.326V346.729H407.792V342.381H406.582V346.294H405.882V338.515H406.582V341.747H407.792V338.326H408.519ZM402.508 339.356V343.893C403.344 343.883 404.233 343.827 405.258 343.619L405.353 344.28C404.181 344.488 403.217 344.555 402.29 344.555H401.771V339.356H402.508ZM417.27 342.484V343.099H409.614V342.484H411.514V341.303C410.842 341.043 410.464 340.613 410.464 340.046C410.464 339.053 411.599 338.486 413.442 338.486C415.266 338.486 416.41 339.053 416.41 340.046C416.41 340.608 416.036 341.038 415.37 341.294V342.484H417.27ZM413.442 343.742C415.247 343.742 416.325 344.261 416.334 345.226C416.325 346.18 415.247 346.71 413.442 346.71C411.617 346.71 410.54 346.18 410.54 345.226C410.54 344.261 411.617 343.742 413.442 343.742ZM413.442 344.309C412.09 344.318 411.287 344.649 411.296 345.226C411.287 345.793 412.09 346.133 413.442 346.133C414.775 346.133 415.587 345.793 415.587 345.226C415.587 344.649 414.775 344.318 413.442 344.309ZM413.442 339.072C412.071 339.072 411.22 339.441 411.23 340.046C411.22 340.66 412.071 341.019 413.442 341.019C414.803 341.019 415.654 340.66 415.654 340.046C415.654 339.441 414.803 339.072 413.442 339.072ZM412.251 342.484H414.633V341.501C414.278 341.563 413.881 341.596 413.442 341.596C413.002 341.596 412.605 341.563 412.251 341.501V342.484ZM427.152 338.326V342.834H426.415V338.326H427.152ZM422.445 343.26V344.28H426.415V343.26H427.152V346.615H421.708V343.26H422.445ZM422.445 346.01H426.415V344.876H422.445V346.01ZM422.615 338.741C423.891 338.732 424.818 339.516 424.818 340.67C424.818 341.813 423.891 342.598 422.615 342.598C421.339 342.598 420.413 341.813 420.413 340.67C420.413 339.516 421.339 338.732 422.615 338.741ZM422.615 339.365C421.755 339.356 421.131 339.904 421.141 340.67C421.131 341.435 421.755 341.984 422.615 341.984C423.466 341.984 424.09 341.435 424.09 340.67C424.09 339.904 423.466 339.356 422.615 339.365ZM435.411 338.326V346.729H434.674V338.326H435.411ZM429.759 339.157V343.921C431.04 343.916 432.368 343.813 433.776 343.515L433.88 344.148C432.387 344.46 431.054 344.564 429.712 344.564H429.031V339.157H429.759ZM443.254 338.326V341.653H444.663V342.277H443.254V346.747H442.517V338.326H443.254ZM441.043 339.148V339.762H437.857V344.016C439.379 344.016 440.457 343.945 441.704 343.713L441.799 344.356C440.485 344.592 439.379 344.64 437.782 344.64H437.12V339.148H441.043ZM445.908 346.02C445.577 346.02 445.294 345.745 445.303 345.405C445.294 345.074 445.577 344.8 445.908 344.8C446.239 344.8 446.513 345.074 446.513 345.405C446.513 345.745 446.239 346.02 445.908 346.02Z" fill="#1E1E1E"/>
<path d="M361.556 367.249V358.184H364.164V359.233H362.898V366.199H364.164V367.249H361.556ZM371.743 357.588V366.19H370.523V357.588H371.743ZM369.162 358.486C369.162 361.095 368.245 363.26 365.174 364.715L364.54 363.751C366.762 362.702 367.74 361.341 367.934 359.432H365.003V358.486H369.162ZM374.491 357.957V361.426C375.531 361.412 376.457 361.36 377.469 361.199L377.591 362.144C376.372 362.362 375.285 362.418 373.962 362.409H373.272V357.957H374.491ZM380.03 357.588V362.617H378.83V360.783H376.722V359.876H378.83V359.28H376.722V358.382H378.83V357.588H380.03ZM380.03 362.967V366.095H374.302V362.967H380.03ZM375.484 363.921V365.131H378.839V363.921H375.484ZM383.591 367.249H380.983V366.199H382.249V359.233H380.983V358.184H383.591V367.249Z" fill="#EA4652"/>
<path d="M391.812 358.335V359.148C391.812 360.226 391.812 361.435 391.463 363.26L390.253 363.137C390.579 361.511 390.593 360.301 390.603 359.29H385.536V358.335H391.812ZM392.569 364.158V365.141H384.723V364.158H387.531V361.199H388.731V364.158H392.569ZM400.383 357.598V362.636H399.24V360.556H398.465V362.598H397.33V357.749H398.465V359.573H399.24V357.598H400.383ZM400.383 362.967V366.19H399.183V363.94H394.381V362.967H400.383ZM396.744 358.184C396.744 360.348 395.705 361.804 393.464 362.693L392.897 361.795C394.518 361.199 395.331 360.311 395.515 359.148H393.313V358.184H396.744ZM408.453 357.588V362.418H407.253V357.588H408.453ZM402.962 358.08V360.982C404.266 360.972 405.372 360.878 406.525 360.632L406.667 361.606C405.325 361.889 404.039 361.993 402.498 361.993H401.752V358.08H402.962ZM408.453 362.768V366.086H402.706V362.768H408.453ZM403.888 363.713V365.141H407.272V363.713H403.888ZM418.893 357.588V366.19H417.674V357.588H418.893ZM416.313 358.486C416.313 361.095 415.396 363.26 412.324 364.715L411.691 363.751C413.912 362.702 414.89 361.341 415.084 359.432H412.154V358.486H416.313ZM421.642 357.957V361.426C422.681 361.412 423.608 361.36 424.619 361.199L424.742 362.144C423.523 362.362 422.436 362.418 421.112 362.409H420.422V357.957H421.642ZM427.181 357.588V362.617H425.98V360.783H423.872V359.876H425.98V359.28H423.872V358.382H425.98V357.588H427.181ZM427.181 362.967V366.095H421.453V362.967H427.181ZM422.634 363.921V365.131H425.99V363.921H422.634ZM430.647 357.844C431.952 357.844 432.944 358.657 432.944 359.81C432.944 360.944 431.952 361.766 430.647 361.766C429.315 361.766 428.332 360.944 428.332 359.81C428.332 358.657 429.315 357.844 430.647 357.844ZM430.647 358.827C429.986 358.827 429.494 359.186 429.504 359.81C429.494 360.424 429.986 360.793 430.647 360.793C431.3 360.793 431.782 360.424 431.782 359.81C431.782 359.186 431.3 358.827 430.647 358.827ZM435.402 357.588V361.899H434.192V357.588H435.402ZM435.402 362.258V364.592H430.827V365.15H435.638V366.095H429.645V363.713H434.201V363.184H429.627V362.258H435.402Z" fill="#1E1E1E"/>
<path d="M363.153 384.111V382.343H361.385V381.162H363.153V379.394H364.335V381.162H366.102V382.343H364.335V384.111H363.153ZM369.919 385.255C368.359 385.255 367.234 384.432 367.234 383.317C367.234 382.457 367.896 381.757 368.746 381.625V381.578C368.009 381.436 367.499 380.812 367.499 380.065C367.499 378.997 368.52 378.222 369.919 378.222C371.317 378.222 372.338 378.997 372.348 380.065C372.338 380.822 371.818 381.436 371.1 381.578V381.625C371.932 381.757 372.603 382.457 372.603 383.317C372.603 384.432 371.478 385.255 369.919 385.255ZM369.919 384.168C370.637 384.168 371.119 383.761 371.119 383.175C371.119 382.58 370.618 382.145 369.919 382.145C369.219 382.145 368.709 382.58 368.718 383.175C368.709 383.761 369.191 384.168 369.919 384.168ZM369.919 381.143C370.523 381.143 370.958 380.755 370.958 380.207C370.958 379.678 370.533 379.3 369.919 379.3C369.304 379.3 368.888 379.668 368.888 380.207C368.888 380.755 369.314 381.143 369.919 381.143Z" fill="#1E1E1E"/>
<rect x="467.656" y="292.863" width="111.914" height="111.309" stroke="#DDDDDD" stroke-width="0.604941"/>
<path d="M475.417 299.345C476.598 299.355 477.903 300.064 477.903 302.587C477.903 305.017 476.91 306.378 475.303 306.378C474.103 306.378 473.252 305.64 473.082 304.553H473.923C474.075 305.168 474.538 305.622 475.303 305.622C476.419 305.622 477.099 304.657 477.109 302.994H477.014C476.617 303.561 475.993 303.901 475.266 303.901C474.037 303.901 473.025 302.965 473.025 301.642C473.025 300.366 473.961 299.336 475.417 299.345ZM475.417 300.092C474.519 300.092 473.848 300.791 473.857 301.633C473.857 302.483 474.491 303.155 475.388 303.155C476.277 303.155 476.976 302.417 476.976 301.614C476.976 300.829 476.324 300.092 475.417 300.092Z" fill="#1E1E1E"/>
<rect x="20" y="404.174" width="111.914" height="111.309" stroke="#DDDDDD" stroke-width="0.604941"/>
<path d="M27.9024 410.75V417.594H27.0422V411.639H27.0044L25.3408 412.745V411.885L27.0422 410.75H27.9024ZM29.6298 417.594L29.6204 416.97L31.9551 414.512C32.768 413.652 33.1555 413.189 33.1555 412.556C33.1555 411.856 32.56 411.393 31.7944 411.393C30.9815 411.393 30.4616 411.913 30.4616 412.679H29.6582C29.6487 411.469 30.5845 410.656 31.8228 410.656C33.061 410.656 33.9495 411.488 33.9495 412.556C33.9495 413.321 33.5903 413.917 32.3804 415.165L30.8114 416.781V416.838H34.0724V417.594H29.6298Z" fill="#FF0000"/>
<rect x="131.914" y="404.174" width="111.914" height="111.309" stroke="#DDDDDD" stroke-width="0.604941"/>
<path d="M139.816 410.75V417.594H138.956V411.639H138.918L137.255 412.745V411.885L138.956 410.75H139.816ZM143.907 417.688C142.546 417.688 141.572 416.96 141.525 415.873H142.385C142.432 416.526 143.085 416.932 143.898 416.932C144.795 416.932 145.457 416.441 145.457 415.732C145.457 414.985 144.862 414.456 143.794 414.456H143.236V413.709H143.794C144.625 413.709 145.202 413.246 145.202 412.537C145.202 411.856 144.701 411.393 143.926 411.393C143.198 411.393 142.527 411.8 142.489 412.471H141.667C141.714 411.384 142.716 410.656 143.935 410.656C145.24 410.656 146.034 411.507 146.024 412.49C146.034 413.265 145.58 413.841 144.862 414.04V414.087C145.75 414.229 146.298 414.862 146.289 415.732C146.298 416.856 145.268 417.688 143.907 417.688Z" fill="#1E1E1E"/>
<rect x="243.828" y="404.174" width="111.914" height="111.309" stroke="#DDDDDD" stroke-width="0.604941"/>
<path d="M251.73 410.75V417.594H250.87V411.639H250.833L249.169 412.745V411.885L250.87 410.75H251.73ZM253.288 416.195V415.495L256.369 410.75H257.418V415.448H258.373V416.195H257.418V417.594H256.606V416.195H253.288ZM254.205 415.448H256.606V411.828H256.52L254.205 415.391V415.448Z" fill="#1E1E1E"/>
<rect x="355.742" y="404.174" width="111.914" height="111.309" stroke="#DDDDDD" stroke-width="0.604941"/>
<path d="M364.693 410.75V417.594H363.833V411.639H363.795L362.132 412.745V411.885L363.833 410.75H364.693ZM368.652 417.688C367.413 417.688 366.478 416.923 366.43 415.873H367.253C367.319 416.488 367.914 416.942 368.652 416.942C369.54 416.942 370.183 416.289 370.183 415.429C370.183 414.541 369.512 413.888 368.595 413.879C368.018 413.87 367.574 414.049 367.319 414.493H366.496L366.979 410.75H370.684V411.507H367.687L367.432 413.51H367.498C367.801 413.274 368.264 413.113 368.746 413.113C370.051 413.113 371.015 414.078 371.015 415.41C371.015 416.734 370.013 417.688 368.652 417.688Z" fill="#FF0000"/>
<path d="M380.724 411.308C380.724 412.471 381.584 413.539 382.803 413.955L382.397 414.55C381.461 414.205 380.733 413.487 380.374 412.594C380.02 413.586 379.263 414.361 378.276 414.749L377.869 414.134C379.145 413.681 379.987 412.575 379.996 411.28V410.391H380.724V411.308ZM384.826 415.391V418.359H384.079V415.987H379.174V415.391H384.826ZM384.826 409.956V414.928H384.079V412.348H382.208V411.724H384.079V409.956H384.826ZM392.631 409.956V413.378H393.992V414.002H392.631V418.359H391.894V409.956H392.631ZM390.457 410.864C390.457 413.246 389.342 415.41 386.601 416.762L386.185 416.176C388.359 415.094 389.54 413.477 389.711 411.488H386.572V410.864H390.457ZM398.66 410.637V411.232H395.531V412.423H398.499V413.038H395.531V414.295C397.185 414.285 398.107 414.243 399.208 414.049L399.293 414.645C398.13 414.862 397.166 414.9 395.427 414.9H394.794V410.637H398.66ZM400.966 409.956V412.575H402.232V413.198H400.966V416.176H400.229V409.956H400.966ZM401.353 417.556V418.18H395.71V415.618H396.438V417.556H401.353ZM409.603 409.966V416.129H408.866V409.966H409.603ZM409.868 417.556V418.18H404.177V415.562H404.915V417.556H409.868ZM405.642 411.28C405.633 412.556 406.512 413.709 407.76 414.163L407.372 414.758C406.399 414.385 405.642 413.629 405.274 412.66C404.9 413.69 404.135 414.517 403.157 414.909L402.75 414.333C404.026 413.841 404.886 412.603 404.886 411.28V410.438H405.642V411.28ZM413.315 410.268C414.573 410.278 415.489 411.034 415.489 412.13C415.489 413.227 414.573 413.983 413.315 413.983C412.039 413.983 411.132 413.227 411.132 412.13C411.132 411.034 412.039 410.278 413.315 410.268ZM413.315 410.892C412.474 410.892 411.85 411.403 411.86 412.13C411.85 412.868 412.474 413.378 413.315 413.378C414.147 413.378 414.771 412.868 414.771 412.13C414.771 411.403 414.147 410.892 413.315 410.892ZM417.871 409.956V414.276H417.134V409.956H417.871ZM417.871 414.682V416.705H413.155V417.65H418.174V418.246H412.427V416.148H417.134V415.278H412.408V414.682H417.871Z" fill="#FF0000"/>
<rect x="467.656" y="404.174" width="111.914" height="111.309" stroke="#DDDDDD" stroke-width="0.604941"/>
<path d="M475.559 410.75V417.594H474.698V411.639H474.661L472.997 412.745V411.885L474.698 410.75H475.559ZM479.668 417.688C478.477 417.669 477.173 416.97 477.173 414.437C477.173 412.017 478.165 410.656 479.772 410.656C480.972 410.656 481.814 411.393 481.993 412.471H481.152C480.991 411.866 480.538 411.412 479.772 411.412C478.647 411.412 477.976 412.376 477.976 414.021H478.061C478.458 413.454 479.082 413.113 479.819 413.113C481.039 413.113 482.05 414.059 482.05 415.382C482.05 416.667 481.105 417.698 479.668 417.688ZM479.668 416.942C480.557 416.942 481.218 416.242 481.228 415.391C481.218 414.55 480.585 413.86 479.687 413.86C478.789 413.86 478.099 414.588 478.09 415.401C478.09 416.204 478.751 416.942 479.668 416.942Z" fill="#1E1E1E"/>
<rect x="20" y="515.482" width="111.914" height="111.309" stroke="#DDDDDD" stroke-width="0.604941"/>
<path d="M27.9024 522.059V528.902H27.0422V522.947H27.0044L25.3408 524.053V523.193L27.0422 522.059H27.9024ZM31.9078 521.964C33.0893 521.974 34.3937 522.683 34.3937 525.207C34.3937 527.636 33.4013 528.997 31.7944 528.997C30.594 528.997 29.7433 528.26 29.5731 527.173H30.4144C30.5656 527.787 31.0288 528.241 31.7944 528.241C32.9098 528.241 33.5903 527.277 33.5998 525.613H33.5052C33.1083 526.18 32.4844 526.52 31.7566 526.52C30.5278 526.52 29.5164 525.585 29.5164 524.261C29.5164 522.985 30.4522 521.955 31.9078 521.964ZM31.9078 522.711C31.0099 522.711 30.3388 523.411 30.3482 524.252C30.3482 525.103 30.9815 525.774 31.8795 525.774C32.768 525.774 33.4674 525.036 33.4674 524.233C33.4674 523.448 32.8152 522.711 31.9078 522.711Z" fill="#FF0000"/>
<rect x="131.914" y="515.482" width="111.914" height="111.309" stroke="#DDDDDD" stroke-width="0.604941"/>
<path d="M137.397 528.902L137.387 528.278L139.722 525.821C140.535 524.961 140.922 524.498 140.922 523.864C140.922 523.165 140.327 522.702 139.561 522.702C138.748 522.702 138.228 523.222 138.228 523.987H137.425C137.416 522.777 138.351 521.964 139.59 521.964C140.828 521.964 141.716 522.796 141.716 523.864C141.716 524.63 141.357 525.225 140.147 526.473L138.578 528.089V528.146H141.839V528.902H137.397ZM145.221 528.997C143.699 528.997 142.829 527.721 142.829 525.481C142.829 523.259 143.718 521.964 145.221 521.964C146.724 521.964 147.612 523.259 147.612 525.481C147.612 527.721 146.733 528.997 145.221 528.997ZM145.221 528.241C146.204 528.241 146.78 527.248 146.78 525.481C146.78 523.713 146.204 522.702 145.221 522.702C144.238 522.702 143.652 523.713 143.652 525.481C143.652 527.248 144.228 528.241 145.221 528.241Z" fill="#1E1E1E"/>
<rect x="243.828" y="515.482" width="111.914" height="111.309" stroke="#DDDDDD" stroke-width="0.604941"/>
<path d="M249.311 528.902L249.301 528.278L251.636 525.821C252.449 524.961 252.836 524.498 252.836 523.864C252.836 523.165 252.241 522.702 251.475 522.702C250.662 522.702 250.143 523.222 250.143 523.987H249.339C249.33 522.777 250.265 521.964 251.504 521.964C252.742 521.964 253.63 522.796 253.63 523.864C253.63 524.63 253.271 525.225 252.061 526.473L250.492 528.089V528.146H253.753V528.902H249.311ZM257.314 522.059V528.902H256.454V522.947H256.417L254.753 524.053V523.193L256.454 522.059H257.314Z" fill="#1E1E1E"/>
<rect x="355.742" y="515.482" width="111.914" height="111.309" stroke="#DDDDDD" stroke-width="0.604941"/>
<path d="M361.225 528.902L361.215 528.278L363.55 525.821C364.363 524.961 364.75 524.498 364.75 523.864C364.75 523.165 364.155 522.702 363.389 522.702C362.576 522.702 362.057 523.222 362.057 523.987H361.253C361.244 522.777 362.179 521.964 363.418 521.964C364.656 521.964 365.544 522.796 365.544 523.864C365.544 524.63 365.185 525.225 363.975 526.473L362.406 528.089V528.146H365.667V528.902H361.225ZM366.809 528.902L366.799 528.278L369.134 525.821C369.947 524.961 370.334 524.498 370.334 523.864C370.334 523.165 369.739 522.702 368.973 522.702C368.16 522.702 367.641 523.222 367.641 523.987H366.837C366.828 522.777 367.763 521.964 369.002 521.964C370.24 521.964 371.128 522.796 371.128 523.864C371.128 524.63 370.769 525.225 369.559 526.473L367.99 528.089V528.146H371.251V528.902H366.809Z" fill="#1E1E1E"/>
<rect x="467.656" y="515.482" width="111.914" height="111.309" stroke="#DDDDDD" stroke-width="0.604941"/>
<path d="M473.139 528.902L473.129 528.278L475.464 525.821C476.277 524.961 476.665 524.498 476.665 523.864C476.665 523.165 476.069 522.702 475.303 522.702C474.491 522.702 473.971 523.222 473.971 523.987H473.167C473.158 522.777 474.094 521.964 475.332 521.964C476.57 521.964 477.458 522.796 477.458 523.864C477.458 524.63 477.099 525.225 475.889 526.473L474.32 528.089V528.146H477.581V528.902H473.139ZM481.086 528.997C479.725 528.997 478.751 528.269 478.704 527.182H479.564C479.611 527.834 480.264 528.241 481.076 528.241C481.974 528.241 482.636 527.749 482.636 527.04C482.636 526.294 482.041 525.764 480.972 525.764H480.415V525.017H480.972C481.804 525.017 482.381 524.554 482.381 523.845C482.381 523.165 481.88 522.702 481.105 522.702C480.377 522.702 479.706 523.108 479.668 523.779H478.846C478.893 522.692 479.895 521.964 481.114 521.964C482.419 521.964 483.213 522.815 483.203 523.798C483.213 524.573 482.759 525.15 482.041 525.348V525.396C482.929 525.537 483.477 526.171 483.468 527.04C483.477 528.165 482.447 528.997 481.086 528.997Z" fill="#1E1E1E"/>
<rect x="20" y="626.791" width="111.914" height="111.309" stroke="#DDDDDD" stroke-width="0.604941"/>
<path d="M25.4826 640.211L25.4731 639.587L27.8078 637.13C28.6207 636.269 29.0083 635.806 29.0083 635.173C29.0083 634.473 28.4128 634.01 27.6471 634.01C26.8343 634.01 26.3144 634.53 26.3144 635.296H25.5109C25.5015 634.086 26.4373 633.273 27.6755 633.273C28.9137 633.273 29.8022 634.105 29.8022 635.173C29.8022 635.939 29.4431 636.534 28.2332 637.782L26.6641 639.398V639.455H29.9251V640.211H25.4826ZM33.4485 640.305C32.2576 640.287 30.9531 639.587 30.9531 637.054C30.9531 634.634 31.9456 633.273 33.5525 633.273C34.7529 633.273 35.5942 634.01 35.7738 635.088H34.9325C34.7718 634.483 34.3181 634.029 33.5525 634.029C32.4277 634.029 31.7566 634.993 31.7566 636.638H31.8417C32.2386 636.071 32.8625 635.731 33.5998 635.731C34.8191 635.731 35.8305 636.676 35.8305 637.999C35.8305 639.285 34.8853 640.315 33.4485 640.305ZM33.4485 639.559C34.337 639.559 34.9987 638.859 35.0081 638.009C34.9987 637.167 34.3654 636.477 33.4674 636.477C32.5695 636.477 31.8795 637.205 31.87 638.018C31.87 638.821 32.5317 639.559 33.4485 639.559Z" fill="#FF0000"/>
<rect x="131.914" y="626.791" width="111.914" height="111.309" stroke="#DDDDDD" stroke-width="0.604941"/>
<path d="M137.397 640.211L137.387 639.587L139.722 637.13C140.535 636.269 140.922 635.806 140.922 635.173C140.922 634.473 140.327 634.01 139.561 634.01C138.748 634.01 138.228 634.53 138.228 635.296H137.425C137.416 634.086 138.351 633.273 139.59 633.273C140.828 633.273 141.716 634.105 141.716 635.173C141.716 635.939 141.357 636.534 140.147 637.782L138.578 639.398V639.455H141.839V640.211H137.397ZM143.198 640.211L146.336 634.171V634.124H142.716V633.368H147.215V634.162L144.087 640.211H143.198Z" fill="#1E1E1E"/>
<rect x="243.828" y="626.791" width="111.914" height="111.309" stroke="#DDDDDD" stroke-width="0.604941"/>
<path d="M249.311 640.211L249.301 639.587L251.636 637.13C252.449 636.269 252.836 635.806 252.836 635.173C252.836 634.473 252.241 634.01 251.475 634.01C250.662 634.01 250.143 634.53 250.143 635.296H249.339C249.33 634.086 250.265 633.273 251.504 633.273C252.742 633.273 253.63 634.105 253.63 635.173C253.63 635.939 253.271 636.534 252.061 637.782L250.492 639.398V639.455H253.753V640.211H249.311ZM257.182 640.305C255.745 640.305 254.743 639.511 254.753 638.396C254.743 637.508 255.358 636.78 256.142 636.657V636.619C255.462 636.458 255.018 635.835 255.018 635.088C255.018 634.039 255.934 633.273 257.182 633.273C258.43 633.273 259.347 634.039 259.356 635.088C259.347 635.835 258.893 636.458 258.222 636.619V636.657C258.997 636.78 259.611 637.508 259.621 638.396C259.611 639.511 258.609 640.305 257.182 640.305ZM257.182 639.559C258.165 639.559 258.77 639.067 258.77 638.349C258.77 637.593 258.099 637.035 257.182 637.035C256.265 637.035 255.585 637.593 255.604 638.349C255.585 639.067 256.199 639.559 257.182 639.559ZM257.182 636.317C257.957 636.317 258.524 635.844 258.524 635.154C258.524 634.473 257.986 634.01 257.182 634.01C256.369 634.01 255.84 634.473 255.84 635.154C255.84 635.844 256.398 636.317 257.182 636.317Z" fill="#1E1E1E"/>
<rect x="355.742" y="626.791" width="111.914" height="111.309" stroke="#DDDDDD" stroke-width="0.604941"/>
<path d="M361.225 640.211L361.215 639.587L363.55 637.13C364.363 636.269 364.75 635.806 364.75 635.173C364.75 634.473 364.155 634.01 363.389 634.01C362.576 634.01 362.057 634.53 362.057 635.296H361.253C361.244 634.086 362.179 633.273 363.418 633.273C364.656 633.273 365.544 634.105 365.544 635.173C365.544 635.939 365.185 636.534 363.975 637.782L362.406 639.398V639.455H365.667V640.211H361.225ZM369.087 633.273C370.268 633.282 371.573 633.991 371.573 636.515C371.573 638.944 370.58 640.305 368.973 640.305C367.773 640.305 366.922 639.568 366.752 638.481H367.593C367.745 639.096 368.208 639.549 368.973 639.549C370.089 639.549 370.769 638.585 370.779 636.922H370.684C370.287 637.489 369.663 637.829 368.936 637.829C367.707 637.829 366.695 636.893 366.695 635.57C366.695 634.294 367.631 633.264 369.087 633.273ZM369.087 634.02C368.189 634.02 367.518 634.719 367.527 635.56C367.527 636.411 368.16 637.082 369.058 637.082C369.947 637.082 370.646 636.345 370.646 635.542C370.646 634.757 369.994 634.02 369.087 634.02Z" fill="#1E1E1E"/>
<rect x="467.656" y="626.791" width="111.914" height="111.309" stroke="#DDDDDD" stroke-width="0.604941"/>
<path d="M475.502 640.305C474.141 640.305 473.167 639.578 473.12 638.491H473.98C474.027 639.143 474.68 639.549 475.492 639.549C476.39 639.549 477.052 639.058 477.052 638.349C477.052 637.602 476.457 637.073 475.388 637.073H474.831V636.326H475.388C476.22 636.326 476.797 635.863 476.797 635.154C476.797 634.473 476.296 634.01 475.521 634.01C474.793 634.01 474.122 634.417 474.084 635.088H473.262C473.309 634.001 474.311 633.273 475.53 633.273C476.835 633.273 477.629 634.124 477.619 635.107C477.629 635.882 477.175 636.458 476.457 636.657V636.704C477.345 636.846 477.893 637.479 477.884 638.349C477.893 639.474 476.863 640.305 475.502 640.305ZM481.256 640.305C479.734 640.305 478.865 639.029 478.865 636.789C478.865 634.568 479.753 633.273 481.256 633.273C482.759 633.273 483.647 634.568 483.647 636.789C483.647 639.029 482.768 640.305 481.256 640.305ZM481.256 639.549C482.239 639.549 482.816 638.557 482.816 636.789C482.816 635.022 482.239 634.01 481.256 634.01C480.273 634.01 479.687 635.022 479.687 636.789C479.687 638.557 480.264 639.549 481.256 639.549Z" fill="#1E1E1E"/>
</g>
</g>
<defs>
<clipPath id="clip0_407_25858">
<rect width="824" height="696" fill="white" transform="translate(0 0.0722656)"/>
</clipPath>
<clipPath id="clip1_407_25858">
<rect width="784" height="696" fill="white" transform="translate(20 0.0722656)"/>
</clipPath>
</defs>
</svg>
