<svg width="325" height="347" viewBox="0 0 325 347" fill="none" xmlns="http://www.w3.org/2000/svg">
<g filter="url(#filter0_d_407_25969)">
<rect x="51.1641" y="0.0722656" width="222.67" height="222.67" rx="47.8392" fill="url(#paint0_linear_407_25969)"/>
<path d="M228.244 33.5723H203.074V70.2423H239.904V43.9123C239.914 43.9123 238.084 34.5723 228.244 33.5723Z" fill="#1967D2"/>
<path d="M203.084 189.072V189.162V189.242L239.914 152.572H239.584L203.084 189.072Z" fill="#1967D2"/>
<path d="M239.914 152.572V152.242L239.584 152.572H239.914Z" fill="#FBBC05"/>
<path d="M239.914 70.2422H203.084V152.242H239.914V70.2422Z" fill="#FBBC05"/>
<path d="M239.584 152.572H203.084V189.072L239.584 152.572Z" fill="#EA4335"/>
<path d="M203.084 152.572H239.584L239.914 152.242H203.084V152.572Z" fill="#EA4335"/>
<path d="M202.994 189.162H203.084V189.072L202.994 189.162Z" fill="#34A853"/>
<path d="M121.084 152.242V189.162H202.994L203.084 152.242H121.084Z" fill="#34A853"/>
<path d="M203.084 152.572V152.242L202.994 189.162L203.084 189.072V152.572Z" fill="#34A853"/>
<path d="M85.084 152.242V177.912C85.414 186.242 94.374 189.162 94.374 189.162H121.084V152.242H85.084Z" fill="#188038"/>
<path d="M121.084 70.2423H203.084V33.5723H95.414C95.414 33.5723 85.744 34.5723 85.084 44.9023V152.242H121.084V70.2423Z" fill="#4285F4"/>
<path d="M147.911 135.644C146.035 135.644 144.226 135.398 142.484 134.907C140.787 134.416 139.223 133.679 137.794 132.696C136.365 131.669 135.092 130.396 133.975 128.877C132.903 127.358 132.077 125.594 131.496 123.584L139.737 120.301C140.318 122.534 141.3 124.232 142.685 125.393C144.07 126.51 145.812 127.068 147.911 127.068C148.849 127.068 149.742 126.934 150.591 126.666C151.44 126.353 152.177 125.929 152.802 125.393C153.427 124.857 153.919 124.232 154.276 123.517C154.678 122.758 154.879 121.909 154.879 120.971C154.879 119.006 154.142 117.465 152.668 116.348C151.239 115.231 149.251 114.673 146.705 114.673H142.752V106.7H146.37C147.263 106.7 148.134 106.588 148.983 106.365C149.832 106.142 150.569 105.807 151.194 105.36C151.864 104.869 152.378 104.266 152.735 103.551C153.137 102.792 153.338 101.921 153.338 100.938C153.338 99.4192 152.802 98.1909 151.73 97.2529C150.658 96.2702 149.206 95.7789 147.375 95.7789C145.41 95.7789 143.891 96.3149 142.819 97.3869C141.792 98.4142 141.077 99.5755 140.675 100.871L132.635 97.5879C133.037 96.4712 133.64 95.3322 134.444 94.1709C135.248 92.9649 136.253 91.8929 137.459 90.9549C138.71 89.9722 140.161 89.1905 141.814 88.6099C143.467 87.9845 145.365 87.6719 147.509 87.6719C149.698 87.6719 151.685 87.9845 153.472 88.6099C155.303 89.2352 156.867 90.1062 158.162 91.2229C159.457 92.2949 160.462 93.5902 161.177 95.1089C161.892 96.5829 162.249 98.1909 162.249 99.9329C162.249 101.273 162.07 102.479 161.713 103.551C161.4 104.623 160.976 105.583 160.44 106.432C159.904 107.281 159.279 108.018 158.564 108.643C157.894 109.224 157.202 109.693 156.487 110.05V110.586C158.631 111.435 160.395 112.797 161.78 114.673C163.209 116.549 163.924 118.916 163.924 121.775C163.924 123.785 163.544 125.639 162.785 127.336C162.026 128.989 160.931 130.44 159.502 131.691C158.117 132.942 156.442 133.902 154.477 134.572C152.512 135.287 150.323 135.644 147.911 135.644Z" fill="#4285F4"/>
<path d="M179.924 134.572V99.0619L171.817 102.479L168.601 95.0419L182.068 88.7439H188.701V134.572H179.924Z" fill="#4285F4"/>
</g>
<g filter="url(#filter1_d_407_25969)">
<rect x="5.99805" y="262.742" width="313.003" height="73.3396" rx="36.6698" fill="#FF4D35" shape-rendering="crispEdges"/>
<path d="M83.9959 290.301V292.189C83.9959 294.146 83.9959 296.287 83.4664 299.21H86.2289V301.581H78.0565V310.053H75.1098V301.581H67.1216V299.21H80.4967C81.0262 296.505 81.0723 294.456 81.0723 292.649H69.3086V290.301H83.9959ZM104.157 289.933V291.36C104.157 292.707 104.157 294.387 103.765 296.494H106.436V298.796H87.2594V296.494H100.796C101.141 294.79 101.21 293.42 101.233 292.258H89.6075V289.933H104.157ZM104.065 300.269V306.139H92.37V307.613H104.64V309.869H89.4464V303.929H101.164V302.548H89.4233V300.269H104.065ZM121.895 290.232C121.895 295.458 119.501 298.888 113.884 300.937L112.594 298.934C114.85 298.128 116.427 297.138 117.475 295.941L113.055 296.448L112.709 294.123L118.695 293.823C118.822 293.42 118.925 293.006 118.994 292.58H113.584V290.232H121.895ZM130.597 289.104V299.878H127.811V295.78H125.923V299.763H123.161V289.472H125.923V293.409H127.811V289.104H130.597ZM130.597 300.614V306.209H119.201V307.544H131.31V309.8H116.278V304.091H127.696V302.894H116.255V300.614H130.597ZM150.251 289.104V304.528H147.327V289.104H150.251ZM150.804 307.314V309.662H136.162V303.239H139.086V307.314H150.804ZM143.529 290.462V297.138H136.715V299.463C140.456 299.452 142.85 299.348 145.555 298.819L145.877 301.167C142.838 301.742 140.122 301.858 135.679 301.858H133.837V294.974H140.605V292.81H133.814V290.462H143.529ZM163.414 290.923V293.317H156.83V302.617C159.88 302.583 162.078 302.445 164.542 301.996L164.841 304.367C161.963 304.919 159.431 305.034 155.563 305.011H153.86V290.923H163.414ZM170.573 289.081V310.076H167.649V298.727H162.378V296.333H167.649V289.081H170.573ZM195.862 289.104V304.413H192.938V299.44H188.15C187.137 300.511 185.675 301.167 184.052 301.167C180.875 301.167 178.458 298.865 178.481 295.757C178.458 292.603 180.875 290.324 184.052 290.301C185.675 290.313 187.126 290.957 188.15 292.028H192.938V289.104H195.862ZM196.369 307.314V309.662H181.957V302.871H184.904V307.314H196.369ZM184.052 292.925C182.418 292.925 181.244 293.984 181.267 295.757C181.244 297.507 182.418 298.566 184.052 298.566C185.595 298.566 186.792 297.507 186.792 295.757C186.792 293.984 185.595 292.925 184.052 292.925ZM189.416 294.376C189.52 294.813 189.577 295.274 189.577 295.757C189.577 296.217 189.52 296.666 189.416 297.092H192.938V294.376H189.416ZM217.496 298.98V301.282H198.343V298.98H206.492V297.184H200.668V290.002H215.194V292.281H203.592V294.882H215.309V297.184H209.37V298.98H217.496ZM207.873 302.341C212.409 302.341 215.148 303.722 215.171 306.209C215.148 308.649 212.409 310.053 207.873 310.053C203.292 310.053 200.53 308.649 200.53 306.209C200.53 303.722 203.292 302.341 207.873 302.341ZM207.873 304.574C204.973 304.574 203.499 305.127 203.522 306.209C203.499 307.314 204.973 307.82 207.873 307.82C210.705 307.82 212.201 307.314 212.224 306.209C212.201 305.127 210.705 304.574 207.873 304.574ZM235.01 289.081V297.276H238.094V299.694H235.01V310.03H232.109V289.081H235.01ZM230.682 292.212V294.56H218.365V292.212H223.108V289.403H226.054V292.212H230.682ZM224.581 295.734C227.643 295.734 229.922 297.806 229.922 300.73C229.922 303.653 227.643 305.725 224.581 305.725C221.496 305.725 219.217 303.653 219.217 300.73C219.217 297.806 221.496 295.734 224.581 295.734ZM224.581 298.105C223.108 298.128 222.026 299.118 222.026 300.73C222.026 302.364 223.108 303.331 224.581 303.308C226.054 303.331 227.113 302.364 227.113 300.73C227.113 299.118 226.054 298.128 224.581 298.105ZM256.229 289.081V310.03H253.26V289.081H256.229ZM249.945 291.268C249.945 297.622 247.712 302.894 240.23 306.439L238.687 304.091C244.097 301.535 246.48 298.22 246.952 293.57H239.815V291.268H249.945Z" fill="white"/>
</g>
<defs>
<filter id="filter0_d_407_25969" x="22.1641" y="0.0722656" width="282.67" height="315.67" filterUnits="userSpaceOnUse" color-interpolation-filters="sRGB">
<feFlood flood-opacity="0" result="BackgroundImageFix"/>
<feColorMatrix in="SourceAlpha" type="matrix" values="0 0 0 0 0 0 0 0 0 0 0 0 0 0 0 0 0 0 127 0" result="hardAlpha"/>
<feOffset dx="1" dy="63"/>
<feGaussianBlur stdDeviation="15"/>
<feComposite in2="hardAlpha" operator="out"/>
<feColorMatrix type="matrix" values="0 0 0 0 0 0 0 0 0 0 0 0 0 0 0 0 0 0 0.05 0"/>
<feBlend mode="normal" in2="BackgroundImageFix" result="effect1_dropShadow_407_25969"/>
<feBlend mode="normal" in="SourceGraphic" in2="effect1_dropShadow_407_25969" result="shape"/>
</filter>
<filter id="filter1_d_407_25969" x="0.759504" y="262.742" width="323.479" height="83.8169" filterUnits="userSpaceOnUse" color-interpolation-filters="sRGB">
<feFlood flood-opacity="0" result="BackgroundImageFix"/>
<feColorMatrix in="SourceAlpha" type="matrix" values="0 0 0 0 0 0 0 0 0 0 0 0 0 0 0 0 0 0 127 0" result="hardAlpha"/>
<feOffset dy="5.23854"/>
<feGaussianBlur stdDeviation="2.61927"/>
<feComposite in2="hardAlpha" operator="out"/>
<feColorMatrix type="matrix" values="0 0 0 0 0 0 0 0 0 0 0 0 0 0 0 0 0 0 0.25 0"/>
<feBlend mode="normal" in2="BackgroundImageFix" result="effect1_dropShadow_407_25969"/>
<feBlend mode="normal" in="SourceGraphic" in2="effect1_dropShadow_407_25969" result="shape"/>
</filter>
<linearGradient id="paint0_linear_407_25969" x1="162.499" y1="0.0722656" x2="162.499" y2="222.742" gradientUnits="userSpaceOnUse">
<stop stop-color="white"/>
<stop offset="1" stop-color="#EAEAEA"/>
</linearGradient>
</defs>
</svg>
