<svg width="147" height="40" viewBox="0 0 147 40" fill="none" xmlns="http://www.w3.org/2000/svg">
<g id="CCRM">
<path id="Vector" d="M140.196 38.0781V11.7091L129.304 31.7204H125.865L114.921 11.7091V38.0781H109.084V1.07812H115.338L127.584 23.695L139.831 1.07812H146.084V38.0781H140.196Z" fill="black"/>
<path id="Vector_2" d="M75.0845 38.0781V1.07812H91.1724C92.8385 1.07812 94.3657 1.42554 95.7541 2.12038C97.1425 2.81521 98.34 3.73587 99.3466 4.88235C100.388 6.02883 101.186 7.31428 101.742 8.73869C102.332 10.1631 102.627 11.6223 102.627 13.1162C102.627 14.749 102.332 16.3124 101.742 17.8063C101.151 19.3002 100.301 20.5856 99.1904 21.6626C98.1144 22.7396 96.8475 23.5213 95.3897 24.0077L104.084 38.0781H97.5243L89.5064 25.2063H80.9157V38.0781H75.0845ZM80.9157 20.0471H91.1204C92.1964 20.0471 93.1509 19.7345 93.9839 19.1091C94.817 18.4838 95.4765 17.65 95.9624 16.6077C96.4483 15.5307 96.6913 14.3669 96.6913 13.1162C96.6913 11.8307 96.4136 10.6842 95.8583 9.67672C95.3029 8.63446 94.574 7.80066 93.6715 7.17531C92.8038 6.54996 91.8493 6.23728 90.808 6.23728H80.9157V20.0471Z" fill="black"/>
<path id="Vector_3" d="M36.386 19.3751C36.386 17.0034 36.8056 14.6864 37.6448 12.4241C38.484 10.1254 39.7064 8.04558 41.3118 6.1847C42.9538 4.28733 44.9424 2.79132 47.2776 1.69669C49.6128 0.565562 52.2582 0 55.2137 0C58.7166 0 61.7451 0.802734 64.2992 2.4082C66.8534 3.97718 68.7507 6.00226 69.9913 8.48343L65.1749 11.7126C64.4452 10.1436 63.5147 8.90304 62.3836 7.99085C61.289 7.07865 60.0849 6.44011 58.7713 6.07523C57.4942 5.71035 56.2354 5.52791 54.9948 5.52791C52.9515 5.52791 51.1636 5.94752 49.6311 6.78675C48.0986 7.58948 46.8033 8.66587 45.7451 10.0159C44.7235 11.366 43.939 12.8802 43.3917 14.5587C42.8808 16.2371 42.6254 17.9155 42.6254 19.594C42.6254 21.4549 42.9356 23.261 43.5559 25.0124C44.1761 26.7274 45.0336 28.2599 46.1282 29.6099C47.2594 30.9235 48.5912 31.9634 50.1237 32.7296C51.6562 33.4959 53.3346 33.879 55.159 33.879C56.3996 33.879 57.6949 33.6601 59.045 33.2222C60.395 32.7844 61.6356 32.1093 62.7667 31.1971C63.9343 30.2484 64.8465 29.0079 65.5033 27.4754L70.5934 30.3762C69.7906 32.31 68.5318 33.952 66.8169 35.302C65.1384 36.6521 63.2411 37.6737 61.1248 38.367C59.045 39.0603 56.9834 39.4069 54.9401 39.4069C52.2035 39.4069 49.7041 38.8413 47.4418 37.7102C45.1796 36.5426 43.2275 35.0101 41.5855 33.1127C39.9436 31.1789 38.6665 29.0261 37.7543 26.6544C36.8421 24.2462 36.386 21.8198 36.386 19.3751Z" fill="black"/>
<path id="Vector_4" d="M0 19.3751C0 17.0034 0.419611 14.6864 1.25883 12.4241C2.09805 10.1254 3.3204 8.04558 4.92586 6.1847C6.56782 4.28733 8.55641 2.79132 10.8916 1.69669C13.2269 0.565562 15.8722 0 18.8277 0C22.3306 0 25.3591 0.802734 27.9132 2.4082C30.4674 3.97718 32.3647 6.00226 33.6053 8.48343L28.7889 11.7126C28.0592 10.1436 27.1287 8.90304 25.9976 7.99085C24.903 7.07865 23.6989 6.44011 22.3853 6.07523C21.1082 5.71035 19.8494 5.52791 18.6088 5.52791C16.5655 5.52791 14.7776 5.94752 13.2451 6.78675C11.7126 7.58948 10.4173 8.66587 9.35914 10.0159C8.33748 11.366 7.55299 12.8802 7.00567 14.5587C6.49484 16.2371 6.23943 17.9155 6.23943 19.594C6.23943 21.4549 6.54957 23.261 7.16987 25.0124C7.79016 26.7274 8.64763 28.2599 9.74226 29.6099C10.8734 30.9235 12.2052 31.9634 13.7377 32.7296C15.2702 33.4959 16.9486 33.879 18.773 33.879C20.0136 33.879 21.3089 33.6601 22.659 33.2222C24.009 32.7844 25.2496 32.1093 26.3807 31.1971C27.5483 30.2484 28.4605 29.0079 29.1173 27.4754L34.2074 30.3762C33.4046 32.31 32.1458 33.952 30.4309 35.302C28.7524 36.6521 26.8551 37.6737 24.7388 38.367C22.659 39.0603 20.5974 39.4069 18.5541 39.4069C15.8175 39.4069 13.3181 38.8413 11.0558 37.7102C8.79358 36.5426 6.84148 35.0101 5.19952 33.1127C3.55757 31.1789 2.28049 29.0261 1.3683 26.6544C0.456098 24.2462 0 21.8198 0 19.3751Z" fill="black"/>
</g>
</svg>
