<svg width="61" height="17" viewBox="0 0 61 17" fill="none" xmlns="http://www.w3.org/2000/svg">
<path d="M58.5408 15.8992V4.88836L53.9929 13.2444H52.5567L47.987 4.88836V15.8992H45.5498V0.449219H48.1611L53.2748 9.89327L58.3885 0.449219H60.9997V15.8992H58.5408Z" fill="white"/>
<path d="M31.3525 15.8992V0.449219H38.0703C38.766 0.449219 39.4037 0.594288 39.9835 0.884428C40.5632 1.17457 41.0633 1.559 41.4836 2.03773C41.9184 2.51646 42.2517 3.05322 42.4836 3.64801C42.73 4.2428 42.8532 4.85209 42.8532 5.47589C42.8532 6.15772 42.73 6.81053 42.4836 7.43433C42.2372 8.05813 41.8821 8.59489 41.4184 9.04461C40.9691 9.49433 40.44 9.82073 39.8313 10.0238L43.462 15.8992H40.7227L37.3746 10.5243H33.7875V15.8992H31.3525ZM33.7875 8.37003H38.0486C38.4979 8.37003 38.8965 8.23947 39.2443 7.97835C39.5922 7.71722 39.8675 7.36905 40.0704 6.93384C40.2734 6.48413 40.3748 5.99814 40.3748 5.47589C40.3748 4.93913 40.2589 4.4604 40.027 4.0397C39.7951 3.60449 39.4907 3.25632 39.1139 2.99519C38.7515 2.73407 38.353 2.60351 37.9181 2.60351H33.7875V8.37003Z" fill="white"/>
<path d="M15.1934 8.09037C15.1934 7.10002 15.3686 6.13253 15.719 5.18789C16.0694 4.22802 16.5798 3.35956 17.2502 2.58252C17.9359 1.79024 18.7662 1.16556 19.7413 0.708479C20.7164 0.23616 21.8211 0 23.0552 0C24.5178 0 25.7824 0.335194 26.849 1.00558C27.9155 1.66073 28.7078 2.50634 29.2258 3.54239L27.2146 4.89079C26.9099 4.23563 26.5214 3.71761 26.0491 3.33671C25.592 2.9558 25.0892 2.68917 24.5407 2.53681C24.0074 2.38445 23.4818 2.30827 22.9638 2.30827C22.1105 2.30827 21.364 2.48348 20.7241 2.83391C20.0841 3.16911 19.5433 3.61857 19.1014 4.18231C18.6748 4.74604 18.3472 5.37834 18.1187 6.0792C17.9054 6.78006 17.7987 7.48092 17.7987 8.18178C17.7987 8.95882 17.9282 9.71301 18.1873 10.4443C18.4463 11.1604 18.8043 11.8004 19.2614 12.3641C19.7337 12.9126 20.2898 13.3468 20.9297 13.6668C21.5697 13.9867 22.2705 14.1467 23.0323 14.1467C23.5504 14.1467 24.0912 14.0553 24.655 13.8725C25.2187 13.6896 25.7367 13.4078 26.2091 13.0269C26.6966 12.6307 27.0775 12.1127 27.3518 11.4728L29.4772 12.684C29.142 13.4916 28.6164 14.1772 27.9003 14.7409C27.1994 15.3047 26.4071 15.7313 25.5234 16.0208C24.655 16.3102 23.7941 16.455 22.9409 16.455C21.7982 16.455 20.7545 16.2188 19.8099 15.7465C18.8653 15.2589 18.0501 14.619 17.3645 13.8268C16.6789 13.0192 16.1456 12.1203 15.7647 11.13C15.3838 10.1244 15.1934 9.11119 15.1934 8.09037Z" fill="white"/>
<path d="M0 8.09037C0 7.10002 0.175215 6.13253 0.525645 5.18789C0.876075 4.22802 1.38648 3.35956 2.05687 2.58252C2.7425 1.79024 3.57286 1.16556 4.54797 0.708479C5.52308 0.23616 6.6277 0 7.86182 0C9.32449 0 10.5891 0.335194 11.6556 1.00558C12.7221 1.66073 13.5144 2.50634 14.0324 3.54239L12.0213 4.89079C11.7166 4.23563 11.328 3.71761 10.8557 3.33671C10.3986 2.9558 9.89584 2.68917 9.34735 2.53681C8.81408 2.38445 8.28844 2.30827 7.77041 2.30827C6.91719 2.30827 6.17062 2.48348 5.5307 2.83391C4.89079 3.16911 4.34991 3.61857 3.90806 4.18231C3.48145 4.74604 3.15387 5.37834 2.92533 6.0792C2.71203 6.78006 2.60537 7.48092 2.60537 8.18178C2.60537 8.95882 2.73488 9.71301 2.99389 10.4443C3.25291 11.1604 3.61095 11.8004 4.06804 12.3641C4.54036 12.9126 5.09647 13.3468 5.73639 13.6668C6.37631 13.9867 7.07717 14.1467 7.83897 14.1467C8.357 14.1467 8.89788 14.0553 9.46162 13.8725C10.0254 13.6896 10.5434 13.4078 11.0157 13.0269C11.5033 12.6307 11.8842 12.1127 12.1584 11.4728L14.2838 12.684C13.9486 13.4916 13.423 14.1772 12.7069 14.7409C12.006 15.3047 11.2138 15.7313 10.3301 16.0208C9.46162 16.3102 8.60078 16.455 7.74755 16.455C6.60485 16.455 5.56118 16.2188 4.61654 15.7465C3.6719 15.2589 2.85677 14.619 2.17114 13.8268C1.48552 13.0192 0.952256 12.1203 0.571354 11.13C0.190451 10.1244 0 9.11119 0 8.09037Z" fill="white"/>
</svg>
