<svg width="79" height="23" viewBox="0 0 79 23" fill="none" xmlns="http://www.w3.org/2000/svg">
<path d="M75.8154 21.2902V7.03031L69.9254 17.8521H68.0655L62.1473 7.03031V21.2902H58.991V1.28125H62.3728L68.9955 13.5121L75.6181 1.28125H78.9999V21.2902H75.8154Z" fill="black"/>
<path d="M40.6045 21.2902V1.28125H49.3046C50.2056 1.28125 51.0315 1.46913 51.7823 1.84488C52.5331 2.22064 53.1807 2.71851 53.725 3.33851C54.2881 3.95851 54.7199 4.65365 55.0202 5.42395C55.3393 6.19425 55.4988 6.98334 55.4988 7.79121C55.4988 8.67424 55.3393 9.51969 55.0202 10.3276C54.7011 11.1354 54.2412 11.8306 53.6406 12.413C53.0587 12.9954 52.3736 13.4181 51.5852 13.6812L56.2872 21.2902H52.7396L48.4036 14.3294H43.7579V21.2902H40.6045ZM43.7579 11.5394H49.2764C49.8583 11.5394 50.3745 11.3703 50.825 11.0321C51.2755 10.6939 51.6321 10.243 51.8949 9.67938C52.1577 9.09696 52.2891 8.46757 52.2891 7.79121C52.2891 7.09606 52.1389 6.47607 51.8386 5.93122C51.5383 5.36759 51.1441 4.91668 50.6561 4.5785C50.1868 4.24032 49.6706 4.07123 49.1075 4.07123H43.7579V11.5394Z" fill="black"/>
<path d="M19.677 11.1769C19.677 9.89434 19.9039 8.64136 20.3578 7.41797C20.8116 6.17486 21.4726 5.05013 22.3408 4.0438C23.2288 3.01773 24.3042 2.20872 25.567 1.61676C26.8299 1.00507 28.2604 0.699219 29.8587 0.699219C31.753 0.699219 33.3908 1.13332 34.772 2.00153C36.1532 2.85001 37.1793 3.94514 37.8502 5.28691L35.2456 7.0332C34.8509 6.18472 34.3478 5.51383 33.7361 5.02053C33.1441 4.52723 32.493 4.18192 31.7826 3.9846C31.092 3.78728 30.4112 3.68862 29.7403 3.68862C28.6353 3.68862 27.6685 3.91554 26.8397 4.36938C26.011 4.80348 25.3105 5.38557 24.7383 6.11566C24.1858 6.84574 23.7615 7.66462 23.4655 8.5723C23.1893 9.47997 23.0512 10.3876 23.0512 11.2953C23.0512 12.3016 23.2189 13.2784 23.5543 14.2255C23.8898 15.1529 24.3535 15.9817 24.9455 16.7118C25.5571 17.4221 26.2774 17.9845 27.1061 18.3988C27.9349 18.8132 28.8425 19.0204 29.8291 19.0204C30.5 19.0204 31.2005 18.902 31.9306 18.6652C32.6607 18.4284 33.3316 18.0634 33.9433 17.5701C34.5747 17.0571 35.068 16.3862 35.4232 15.5574L38.1758 17.1261C37.7417 18.1719 37.0609 19.0599 36.1335 19.7899C35.2258 20.52 34.1998 21.0725 33.0553 21.4474C31.9306 21.8223 30.8157 22.0098 29.7107 22.0098C28.2308 22.0098 26.8792 21.704 25.6558 21.0923C24.4324 20.4608 23.3768 19.6321 22.4888 18.606C21.6009 17.5602 20.9103 16.396 20.417 15.1135C19.9237 13.8111 19.677 12.499 19.677 11.1769Z" fill="black"/>
<path d="M0 11.1769C0 9.89434 0.226918 8.64136 0.680755 7.41797C1.13459 6.17486 1.79561 5.05013 2.66382 4.0438C3.55176 3.01773 4.62716 2.20872 5.89001 1.61676C7.15286 1.00507 8.58343 0.699219 10.1817 0.699219C12.076 0.699219 13.7138 1.13332 15.095 2.00153C16.4762 2.85001 17.5023 3.94514 18.1732 5.28691L15.5686 7.0332C15.1739 6.18472 14.6708 5.51383 14.0591 5.02053C13.4671 4.52723 12.816 4.18192 12.1056 3.9846C11.415 3.78728 10.7342 3.68862 10.0633 3.68862C8.95834 3.68862 7.99147 3.91554 7.16272 4.36938C6.33398 4.80348 5.63349 5.38557 5.06126 6.11566C4.50877 6.84574 4.08453 7.66462 3.78855 8.5723C3.5123 9.47997 3.37418 10.3876 3.37418 11.2953C3.37418 12.3016 3.5419 13.2784 3.87734 14.2255C4.21279 15.1529 4.67649 15.9817 5.26845 16.7118C5.88014 17.4221 6.60036 17.9845 7.42911 18.3988C8.25785 18.8132 9.16553 19.0204 10.1521 19.0204C10.823 19.0204 11.5235 18.902 12.2536 18.6652C12.9837 18.4284 13.6546 18.0634 14.2663 17.5701C14.8977 17.0571 15.391 16.3862 15.7462 15.5574L18.4988 17.1261C18.0647 18.1719 17.3839 19.0599 16.4565 19.7899C15.5488 20.52 14.5228 21.0725 13.3783 21.4474C12.2536 21.8223 11.1387 22.0098 10.0337 22.0098C8.55383 22.0098 7.20219 21.704 5.9788 21.0923C4.75542 20.4608 3.69975 19.6321 2.81181 18.606C1.92387 17.5602 1.23325 16.396 0.739951 15.1135C0.24665 13.8111 0 12.499 0 11.1769Z" fill="black"/>
</svg>
