<svg width="0" height="0" viewBox="0 0 37 37" xmlns="http://www.w3.org/2000/svg">
<path fill-rule="evenodd" clip-rule="evenodd" d="M18.6475 3.29688C10.3675 3.29688 3.64746 10.0169 3.64746 18.2969C3.64746 26.5769 10.3675 33.2969 18.6475 33.2969C26.9275 33.2969 33.6475 26.5769 33.6475 18.2969C33.6475 10.0169 26.9275 3.29688 18.6475 3.29688ZM28.1875 25.5419C26.0425 22.9319 20.8375 22.0469 18.6475 22.0469C16.4575 22.0469 11.2525 22.9319 9.10746 25.5419C7.57746 23.5319 6.64746 21.0269 6.64746 18.2969C6.64746 11.6819 12.0325 6.29688 18.6475 6.29688C25.2625 6.29688 30.6475 11.6819 30.6475 18.2969C30.6475 21.0269 29.7175 23.5319 28.1875 25.5419ZM13.3975 14.5469C13.3975 11.6369 15.7375 9.29688 18.6475 9.29688C21.5575 9.29688 23.8975 11.6369 23.8975 14.5469C23.8975 17.4569 21.5575 19.7969 18.6475 19.7969C15.7375 19.7969 13.3975 17.4569 13.3975 14.5469Z" fill="black"/>
</svg>
