<svg width="0" height="0" viewBox="0 0 21 21"  xmlns="http://www.w3.org/2000/svg">
<path d="M13.1476 3.62891C12.2636 3.62891 11.4157 3.9801 10.7906 4.60522C10.1655 5.23034 9.81429 6.07818 9.81429 6.96224C9.81429 7.84629 10.1655 8.69414 10.7906 9.31926C11.4157 9.94438 12.2636 10.2956 13.1476 10.2956C14.0317 10.2956 14.8795 9.94438 15.5046 9.31926C16.1298 8.69414 16.481 7.84629 16.481 6.96224C16.481 6.07818 16.1298 5.23034 15.5046 4.60522C14.8795 3.9801 14.0317 3.62891 13.1476 3.62891ZM13.1476 5.21224C14.1143 5.21224 14.8976 5.99557 14.8976 6.96224C14.8976 7.92891 14.1143 8.71224 13.1476 8.71224C12.6835 8.71224 12.2384 8.52786 11.9102 8.19968C11.582 7.87149 11.3976 7.42637 11.3976 6.96224C11.3976 6.49811 11.582 6.05299 11.9102 5.7248C12.2384 5.39661 12.6835 5.21224 13.1476 5.21224ZM3.98096 6.12891V8.62891H1.48096V10.2956H3.98096V12.7956H5.64762V10.2956H8.14762V8.62891H5.64762V6.12891H3.98096ZM13.1476 11.1289C10.9226 11.1289 6.48096 12.2372 6.48096 14.4622V16.9622H19.8143V14.4622C19.8143 12.2372 15.3726 11.1289 13.1476 11.1289ZM13.1476 12.7122C15.6226 12.7122 18.231 13.9289 18.231 14.4622V15.3789H8.06429V14.4622C8.06429 13.9289 10.6476 12.7122 13.1476 12.7122Z" fill="black"/>
</svg>
