<svg  viewBox="0 0 25 25"  xmlns="http://www.w3.org/2000/svg">
<path fill-rule="evenodd" clip-rule="evenodd" d="M12.6475 2.29688C7.12746 2.29688 2.64746 6.77688 2.64746 12.2969C2.64746 17.8169 7.12746 22.2969 12.6475 22.2969C18.1675 22.2969 22.6475 17.8169 22.6475 12.2969C22.6475 6.77688 18.1675 2.29688 12.6475 2.29688ZM7.71746 18.5769C8.14746 17.6769 10.7675 16.7969 12.6475 16.7969C14.5275 16.7969 17.1575 17.6769 17.5775 18.5769C16.2175 19.6569 14.5075 20.2969 12.6475 20.2969C10.7875 20.2969 9.07746 19.6569 7.71746 18.5769ZM12.6475 14.7969C14.1075 14.7969 17.5775 15.3869 19.0075 17.1269C20.0275 15.7869 20.6475 14.1169 20.6475 12.2969C20.6475 7.88688 17.0575 4.29688 12.6475 4.29688C8.23746 4.29688 4.64746 7.88688 4.64746 12.2969C4.64746 14.1169 5.26746 15.7869 6.28746 17.1269C7.71746 15.3869 11.1875 14.7969 12.6475 14.7969ZM12.6475 6.29688C10.7075 6.29688 9.14746 7.85687 9.14746 9.79688C9.14746 11.7369 10.7075 13.2969 12.6475 13.2969C14.5875 13.2969 16.1475 11.7369 16.1475 9.79688C16.1475 7.85687 14.5875 6.29688 12.6475 6.29688ZM11.1475 9.79688C11.1475 10.6269 11.8175 11.2969 12.6475 11.2969C13.4775 11.2969 14.1475 10.6269 14.1475 9.79688C14.1475 8.96688 13.4775 8.29688 12.6475 8.29688C11.8175 8.29688 11.1475 8.96688 11.1475 9.79688Z" fill="black"/>
</svg>
