<svg viewBox="0 0 20 20" xmlns="http://www.w3.org/2000/svg">
<path fill-rule="evenodd" clip-rule="evenodd" d="M11.8193 2.05532C11.6159 2.00649 11.3882 2.00006 10.6068 2.00006H8.39501C7.53843 2.00006 6.95614 2.00084 6.50605 2.03761C6.06763 2.07343 5.84343 2.13836 5.68703 2.21805C5.3107 2.4098 5.00474 2.71576 4.813 3.09208C4.73331 3.24848 4.66838 3.47269 4.63256 3.9111C4.59579 4.36119 4.59501 4.94348 4.59501 5.80006V9.00006H2.59501L2.59501 5.75876C2.595 4.95379 2.59499 4.28943 2.6392 3.74824C2.68513 3.18614 2.78369 2.66944 3.03098 2.1841C3.41448 1.43145 4.0264 0.81953 4.77905 0.436037C5.26438 0.188746 5.78109 0.0901819 6.34318 0.0442567C6.88438 3.9354e-05 7.54874 4.98449e-05 8.35371 6.26003e-05L10.6068 6.30771e-05C10.6412 6.30771e-05 10.6751 4.68646e-05 10.7087 3.08906e-05C11.3437 -0.000271186 11.8235 -0.000499591 12.2862 0.110583C12.6943 0.20857 13.0845 0.370188 13.4424 0.589502C13.8481 0.838129 14.1872 1.17756 14.636 1.62678C14.6597 1.65049 14.6837 1.67451 14.708 1.69884L16.8962 3.88707C16.9206 3.9114 16.9446 3.9354 16.9683 3.95909C17.4175 4.40789 17.7569 4.74699 18.0056 5.15271C18.2249 5.5106 18.3865 5.90078 18.4845 6.30892C18.5956 6.77162 18.5953 7.25141 18.595 7.8864C18.595 7.91993 18.595 7.95388 18.595 7.98829V12.2413C18.595 13.0463 18.595 13.7107 18.5508 14.2519C18.5049 14.814 18.4063 15.3307 18.159 15.816C17.7755 16.5687 17.1636 17.1806 16.411 17.5641C15.9256 17.8114 15.4089 17.9099 14.8468 17.9559C14.3056 18.0001 13.6413 18.0001 12.8363 18.0001H11.595V16.0001H12.795C13.6516 16.0001 14.2339 15.9993 14.684 15.9625C15.1224 15.9267 15.3466 15.8618 15.503 15.7821C15.8793 15.5903 16.1853 15.2844 16.377 14.908C16.4567 14.7516 16.5216 14.5274 16.5575 14.089C16.5942 13.6389 16.595 13.0566 16.595 12.2001V7.98829C16.595 7.20692 16.5886 6.97922 16.5398 6.77581C16.4908 6.57174 16.4099 6.37665 16.3003 6.19771C16.191 6.01935 16.0345 5.85379 15.482 5.30128L13.2938 3.11306C12.7413 2.56055 12.5757 2.40408 12.3974 2.29478C12.2184 2.18513 12.0233 2.10432 11.8193 2.05532Z" />
<path fill-rule="evenodd" clip-rule="evenodd" d="M4.12067 13.5257L5.0258 10.8103H6.16422L7.06935 13.5257L9.78475 14.4309V15.5693L7.06935 16.4744L6.16422 19.1898H5.0258L4.12067 16.4744L1.40527 15.5693V14.4309L4.12067 13.5257Z" />
<path fill-rule="evenodd" clip-rule="evenodd" d="M12.595 2.00006V6.00006H16.595V8.00006H11.595C11.0427 8.00006 10.595 7.55235 10.595 7.00006V2.00006H12.595Z" />
</svg>
