<svg viewBox="0 0 18 19"  xmlns="http://www.w3.org/2000/svg">
<path fill-rule="evenodd" clip-rule="evenodd" d="M14.2408 5.0313C13.8657 5.00065 13.3805 5.00001 12.6667 5.00001H11.6667C11.2064 5.00001 10.8333 4.62691 10.8333 4.16667C10.8333 3.70644 11.2064 3.33334 11.6667 3.33334L12.7011 3.33334C13.3719 3.33333 13.9255 3.33332 14.3765 3.37017C14.8449 3.40844 15.2755 3.49058 15.68 3.69665C16.3072 4.01623 16.8171 4.52616 17.1367 5.15337C17.3428 5.55782 17.4249 5.9884 17.4632 6.45682C17.5 6.90781 17.5 7.46144 17.5 8.13224V11.034C17.5 11.7048 17.5 12.2584 17.4632 12.7094C17.4249 13.1778 17.3428 13.6084 17.1367 14.0128C16.8171 14.64 16.3072 15.15 15.68 15.4696C15.2755 15.6756 14.8449 15.7578 14.3765 15.796C13.9255 15.8329 13.3719 15.8329 12.701 15.8329H12.5262L10.6328 18.0423C10.4744 18.227 10.2433 18.3333 9.99999 18.3333C9.75669 18.3333 9.52554 18.227 9.36722 18.0423L7.47381 15.8329H7.05452C6.49647 15.8329 6.03584 15.8329 5.65874 15.8072C5.26774 15.7805 4.90606 15.7234 4.55794 15.5792C3.74099 15.2409 3.09195 14.5919 2.75363 13.7749C2.60946 13.4268 2.55237 13.0651 2.5257 12.6741C2.49997 12.297 2.49998 11.8364 2.49999 11.2783L2.49999 11.2498C2.49999 10.7895 2.87308 10.4164 3.33332 10.4164C3.79356 10.4164 4.16665 10.7895 4.16665 11.2498C4.16665 11.8435 4.16711 12.2471 4.1885 12.5607C4.20939 12.8668 4.24741 13.026 4.29348 13.1372C4.46263 13.5457 4.78716 13.8702 5.19563 14.0394C5.30686 14.0854 5.46601 14.1235 5.77217 14.1444C6.08581 14.1658 6.48937 14.1662 7.08309 14.1662H7.85714C8.10044 14.1662 8.33159 14.2725 8.48991 14.4573L9.99999 16.2194L11.5101 14.4573C11.6684 14.2725 11.8996 14.1662 12.1429 14.1662H12.6667C13.3805 14.1662 13.8657 14.1656 14.2408 14.1349C14.6061 14.1051 14.793 14.051 14.9233 13.9845C15.2369 13.8248 15.4919 13.5698 15.6517 13.2562C15.7181 13.1259 15.7722 12.939 15.802 12.5737C15.8327 12.1986 15.8333 11.7134 15.8333 10.9995V8.16667C15.8333 7.45286 15.8327 6.96761 15.802 6.59254C15.7722 6.22719 15.7181 6.04036 15.6517 5.91002C15.4919 5.59642 15.2369 5.34145 14.9233 5.18166C14.793 5.11525 14.6061 5.06115 14.2408 5.0313Z" />
<path fill-rule="evenodd" clip-rule="evenodd" d="M4.58333 0C4.94203 0 5.26047 0.229525 5.3739 0.56981L6.17964 2.98703L8.59686 3.79276C8.93714 3.90619 9.16667 4.22464 9.16667 4.58333C9.16667 4.94203 8.93714 5.26047 8.59686 5.3739L6.17964 6.17964L5.3739 8.59686C5.26047 8.93714 4.94203 9.16667 4.58333 9.16667C4.22464 9.16667 3.90619 8.93714 3.79276 8.59686L2.98703 6.17964L0.56981 5.3739C0.229525 5.26047 0 4.94203 0 4.58333C0 4.22464 0.229525 3.90619 0.56981 3.79276L2.98703 2.98703L3.79276 0.56981C3.90619 0.229525 4.22464 0 4.58333 0ZM4.58333 3.46856L4.4364 3.90936C4.35346 4.15819 4.15819 4.35346 3.90936 4.4364L3.46856 4.58333L3.90936 4.73026C4.15819 4.81321 4.35346 5.00847 4.4364 5.25731L4.58333 5.6981L4.73026 5.25731C4.81321 5.00847 5.00847 4.81321 5.25731 4.73026L5.6981 4.58333L5.25731 4.4364C5.00847 4.35346 4.81321 4.15819 4.73026 3.90936L4.58333 3.46856Z" />
<path fill-rule="evenodd" clip-rule="evenodd" d="M10 7C10.2152 7 10.4063 7.13771 10.4743 7.34189L11.0203 8.97971L12.6581 9.52566C12.8623 9.59371 13 9.78478 13 10C13 10.2152 12.8623 10.4063 12.6581 10.4743L11.0203 11.0203L10.4743 12.6581C10.4063 12.8623 10.2152 13 10 13C9.78478 13 9.59371 12.8623 9.52566 12.6581L8.97971 11.0203L7.34189 10.4743C7.13771 10.4063 7 10.2152 7 10C7 9.78478 7.13771 9.59371 7.34189 9.52566L8.97971 8.97971L9.52566 7.34189C9.59371 7.13771 9.78478 7 10 7Z" />
</svg>
