<svg viewBox="0 0 20 20" xmlns="http://www.w3.org/2000/svg">
<path fill-rule="evenodd" clip-rule="evenodd" d="M5.90354 9.23694L7.12595 5.56972H8.70709L9.92949 9.23694L13.5967 10.4593V12.0405L9.92949 13.2629L8.70709 16.9301H7.12595L5.90354 13.2629L2.23633 12.0405V10.4593L5.90354 9.23694ZM7.91652 8.46847L7.35292 10.1593L6.82587 10.6863L5.13508 11.2499L6.82587 11.8135L7.35292 12.3406L7.91652 14.0313L8.48012 12.3406L9.00716 11.8135L10.698 11.2499L9.00716 10.6863L8.48012 10.1593L7.91652 8.46847Z"/>
<path fill-rule="evenodd" clip-rule="evenodd" d="M13.4587 4.29213L14.1088 2.3418H15.0575L15.7076 4.29213L17.658 4.94224V5.89092L15.7076 6.54103L15.0575 8.49136H14.1088L13.4587 6.54103L11.5084 5.89092V4.94224L13.4587 4.29213Z" />
</svg>
