<svg  viewBox="0 0 24 24" fill="none" xmlns="http://www.w3.org/2000/svg">
<g clip-path="url(#clip0_407_32187)">
<path d="M21.1875 6.09375H19.875V4.78125C19.875 4.05638 19.2874 3.46875 18.5625 3.46875H12V2.8125C12 2.45004 11.7062 2.15625 11.3438 2.15625H2.15625C1.79379 2.15625 1.5 2.45004 1.5 2.8125V20.5312C1.5 21.2561 2.08763 21.8438 2.8125 21.8438H8.34213V20.5312H2.8125V3.46875H10.6875V6.09375H4.78125V7.40625H21.1875V8.71875H22.5V7.40625C22.5 6.68138 21.9124 6.09375 21.1875 6.09375ZM18.5625 6.09375H12V4.78125H18.5625V6.09375Z" fill="white"/>
<path d="M21.8438 10.0312H17.9062C17.5438 10.0312 17.25 10.325 17.25 10.6875V13.9688H13.9688C13.6063 13.9688 13.3125 14.2625 13.3125 14.625V16.5938H10.0312C9.66879 16.5938 9.375 16.8875 9.375 17.25V21.1875C9.375 21.55 9.66879 21.8438 10.0312 21.8438H21.8438C22.2062 21.8438 22.5 21.55 22.5 21.1875V10.6875C22.5 10.325 22.2062 10.0312 21.8438 10.0312ZM13.3125 20.5312H10.6875V17.9062H13.3125V20.5312ZM17.25 20.5312H14.625V15.2812H17.25V20.5312ZM21.1875 20.5312H18.5625V11.3438H21.1875V20.5312Z" fill="white"/>
</g>
<defs>
<clipPath id="clip0_407_32187">
<rect width="21" height="21" fill="white" transform="translate(1.5 1.5)"/>
</clipPath>
</defs>
</svg>
