<svg viewBox="0 0 20 20" xmlns="http://www.w3.org/2000/svg">
<path d="M9.16634 7.49967H10.833V4.99967H13.333V3.33301H10.833V0.833008H9.16634V3.33301H6.66634V4.99967H9.16634V7.49967ZM5.83301 14.9997C5.39098 14.9997 4.96706 15.1753 4.6545 15.4878C4.34194 15.8004 4.16634 16.2243 4.16634 16.6663C4.16634 17.1084 4.34194 17.5323 4.6545 17.8449C4.96706 18.1574 5.39098 18.333 5.83301 18.333C6.27504 18.333 6.69896 18.1574 7.01152 17.8449C7.32408 17.5323 7.49967 17.1084 7.49967 16.6663C7.49967 16.2243 7.32408 15.8004 7.01152 15.4878C6.69896 15.1753 6.27504 14.9997 5.83301 14.9997ZM14.1663 14.9997C13.7243 14.9997 13.3004 15.1753 12.9878 15.4878C12.6753 15.8004 12.4997 16.2243 12.4997 16.6663C12.4997 17.1084 12.6753 17.5323 12.9878 17.8449C13.3004 18.1574 13.7243 18.333 14.1663 18.333C14.6084 18.333 15.0323 18.1574 15.3449 17.8449C15.6574 17.5323 15.833 17.1084 15.833 16.6663C15.833 16.2243 15.6574 15.8004 15.3449 15.4878C15.0323 15.1753 14.6084 14.9997 14.1663 14.9997ZM5.97467 12.2913L5.99967 12.1913L6.74967 10.833H12.958C13.583 10.833 14.133 10.4913 14.4163 9.97467L17.633 4.13301L16.183 3.33301H16.1747L15.258 4.99967L12.958 9.16634H7.10801L6.99967 8.94134L5.13301 4.99967L4.34134 3.33301L3.55801 1.66634H0.833008V3.33301H2.49967L5.49967 9.65801L4.37467 11.6997C4.24134 11.933 4.16634 12.208 4.16634 12.4997C4.16634 12.9417 4.34194 13.3656 4.6545 13.6782C4.96706 13.9907 5.39098 14.1663 5.83301 14.1663H15.833V12.4997H6.18301C6.07467 12.4997 5.97467 12.408 5.97467 12.2913Z" />
</svg>
