<svg viewBox="0 0 20 20" xmlns="http://www.w3.org/2000/svg">
<path d="M10.0003 16.667C13.667 16.667 16.667 13.667 16.667 10.0003C16.667 6.33366 13.667 3.33366 10.0003 3.33366C6.33366 3.33366 3.33366 6.33366 3.33366 10.0003C3.33366 13.667 6.33366 16.667 10.0003 16.667ZM10.0003 1.66699C14.5837 1.66699 18.3337 5.41699 18.3337 10.0003C18.3337 14.5837 14.5837 18.3337 10.0003 18.3337C5.41699 18.3337 1.66699 14.5837 1.66699 10.0003C1.66699 5.41699 5.41699 1.66699 10.0003 1.66699ZM10.417 10.667L6.41699 13.0003L5.83366 11.8337L9.16699 9.91699V5.83366H10.417V10.667Z" />
</svg>
