<svg viewBox="0 0 20 20" xmlns="http://www.w3.org/2000/svg">
<path d="M13.1253 10.8333C13.1253 10.4882 12.8455 10.2083 12.5003 10.2083H7.50033C7.15515 10.2083 6.87533 10.4882 6.87533 10.8333C6.87533 11.1785 7.15515 11.4583 7.50033 11.4583H12.5003C12.8455 11.4583 13.1253 11.1785 13.1253 10.8333Z" />
<path d="M13.1253 14.1667C13.1253 13.8215 12.8455 13.5417 12.5003 13.5417H7.50033C7.15515 13.5417 6.87533 13.8215 6.87533 14.1667C6.87533 14.5118 7.15515 14.7917 7.50033 14.7917H12.5003C12.8455 14.7917 13.1253 14.5118 13.1253 14.1667Z" />
<path fill-rule="evenodd" clip-rule="evenodd" d="M5.83366 1.875C4.56801 1.875 3.54199 2.90101 3.54199 4.16667V15.8333C3.54199 17.099 4.56801 18.125 5.83366 18.125H14.167C15.4326 18.125 16.4587 17.099 16.4587 15.8333V6.63971C16.4587 6.32241 16.3552 6.01375 16.1639 5.76058L13.6657 2.4542C13.3901 2.08941 12.9594 1.875 12.5022 1.875H5.83366ZM4.79199 4.16667C4.79199 3.59137 5.25836 3.125 5.83366 3.125H11.8753V6.7892C11.8753 7.13438 12.1551 7.4142 12.5003 7.4142H15.2087V15.8333C15.2087 16.4086 14.7423 16.875 14.167 16.875H5.83366C5.25836 16.875 4.79199 16.4086 4.79199 15.8333V4.16667Z" />
</svg>
