<svg viewBox="0 0 20 20" fill="none" xmlns="http://www.w3.org/2000/svg">
<path d="M4.16706 10.9844V13.326C4.16706 13.9344 4.50039 14.501 5.03372 14.7927L9.20039 17.0677C9.70039 17.3427 10.3004 17.3427 10.8004 17.0677L14.9671 14.7927C15.5004 14.501 15.8337 13.9344 15.8337 13.326V10.9844L10.8004 13.7344C10.3004 14.0094 9.70039 14.0094 9.20039 13.7344L4.16706 10.9844ZM9.20039 2.93437L2.17539 6.76771C1.60039 7.08437 1.60039 7.91771 2.17539 8.23438L9.20039 12.0677C9.70039 12.3427 10.3004 12.3427 10.8004 12.0677L17.5004 8.40937V13.3344C17.5004 13.7927 17.8754 14.1677 18.3337 14.1677C18.7921 14.1677 19.1671 13.7927 19.1671 13.3344V7.99271C19.1671 7.68437 19.0004 7.40937 18.7337 7.25937L10.8004 2.93437C10.3004 2.66771 9.70039 2.66771 9.20039 2.93437Z" fill="white"/>
</svg>
