<svg  viewBox="0 0 21 21"  xmlns="http://www.w3.org/2000/svg">
<path d="M13.1473 11.9622C14.2556 11.9622 16.4806 12.5206 16.4806 13.6289V14.4622H9.81396V13.6289C9.81396 12.5206 12.039 11.9622 13.1473 11.9622ZM13.1473 11.1289C14.0723 11.1289 14.814 10.3872 14.814 9.46224C14.814 8.53724 14.0723 7.79557 13.1473 7.79557C12.2306 7.79557 11.4806 8.53724 11.4806 9.46224C11.4806 10.3872 12.2306 11.1289 13.1473 11.1289ZM18.9806 6.96224V15.2956C18.9806 16.2206 18.239 16.9622 17.314 16.9622H3.98063C3.06396 16.9622 2.31396 16.2206 2.31396 15.2956V5.29557C2.31396 4.37057 3.06396 3.62891 3.98063 3.62891H8.98063L10.6473 5.29557H17.314C18.239 5.29557 18.9806 6.04557 18.9806 6.96224ZM17.314 6.96224H3.98063V15.2956H17.314V6.96224Z" fill="black"/>
</svg>
