<svg width="0" height="0" viewBox="0 0 21 21"  xmlns="http://www.w3.org/2000/svg">
<path d="M10.7306 15.7552L10.6473 15.8385L10.5556 15.7552C6.5973 12.1635 3.98063 9.78854 3.98063 7.38021C3.98063 5.71354 5.23063 4.46354 6.8973 4.46354C8.18063 4.46354 9.43063 5.29688 9.8723 6.43021H11.4223C11.864 5.29688 13.114 4.46354 14.3973 4.46354C16.064 4.46354 17.314 5.71354 17.314 7.38021C17.314 9.78854 14.6973 12.1635 10.7306 15.7552ZM14.3973 2.79688C12.9473 2.79688 11.5556 3.47187 10.6473 4.53021C9.73896 3.47187 8.3473 2.79688 6.8973 2.79688C4.33063 2.79688 2.31396 4.80521 2.31396 7.38021C2.31396 10.5219 5.1473 13.0969 9.43896 16.9885L10.6473 18.0885L11.8556 16.9885C16.1473 13.0969 18.9806 10.5219 18.9806 7.38021C18.9806 4.80521 16.964 2.79688 14.3973 2.79688Z" fill="black"/>
</svg>
