<svg viewBox="0 0 20 20" fill="none" xmlns="http://www.w3.org/2000/svg">
<path fill-rule="evenodd" clip-rule="evenodd" d="M1.66675 10.0013C1.66675 5.4013 5.40008 1.66797 10.0001 1.66797C14.6001 1.66797 18.3334 5.4013 18.3334 10.0013C18.3334 14.6013 14.6001 18.3346 10.0001 18.3346C5.40008 18.3346 1.66675 14.6013 1.66675 10.0013ZM11.1751 16.668V15.0763C12.6251 14.8013 13.7667 13.968 13.7751 12.443C13.7751 10.343 11.9751 9.61797 10.2917 9.18464C8.60841 8.7513 8.06675 8.29297 8.06675 7.59297C8.06675 6.79297 8.81675 6.2263 10.0667 6.2263C11.3834 6.2263 11.8751 6.85964 11.9167 7.78464H13.5501C13.5001 6.50964 12.7251 5.33464 11.1751 4.95964V3.33464H8.95008V4.94297C7.51675 5.2513 6.35841 6.18464 6.35841 7.61797C6.35841 9.3263 7.77508 10.1763 9.84175 10.6763C11.7001 11.118 12.0667 11.768 12.0667 12.4596C12.0667 12.968 11.7001 13.7846 10.0667 13.7846C8.54175 13.7846 7.94175 13.1013 7.85841 12.2263H6.22508C6.31675 13.843 7.52508 14.7596 8.95008 15.0596V16.668H11.1751Z" fill="white"/>
</svg>
