<svg viewBox="0 0 20 20" fill="none" xmlns="http://www.w3.org/2000/svg">
<path fill-rule="evenodd" clip-rule="evenodd" d="M16.6667 4.9987H10.0001L8.33341 3.33203H3.33341C2.41675 3.33203 1.67508 4.08203 1.67508 4.9987L1.66675 14.9987C1.66675 15.9154 2.41675 16.6654 3.33341 16.6654H16.6667C17.5834 16.6654 18.3334 15.9154 18.3334 14.9987V6.66536C18.3334 5.7487 17.5834 4.9987 16.6667 4.9987ZM12.5001 7.4987C13.4167 7.4987 14.1667 8.2487 14.1667 9.16536C14.1667 10.082 13.4167 10.832 12.5001 10.832C11.5834 10.832 10.8334 10.082 10.8334 9.16536C10.8334 8.2487 11.5834 7.4987 12.5001 7.4987ZM9.16675 13.332V14.1654H15.8334V13.332C15.8334 12.2237 13.6084 11.6654 12.5001 11.6654C11.3917 11.6654 9.16675 12.2237 9.16675 13.332Z" fill="white"/>
</svg>
