<svg  viewBox="0 0 37 37"  xmlns="http://www.w3.org/2000/svg">
<path fill-rule="evenodd" clip-rule="evenodd" d="M6.64746 31.7969V4.79688C6.64746 3.14687 7.99746 1.81187 9.64746 1.81187L24.6475 1.79688C26.2975 1.79688 27.6475 3.14687 27.6475 4.79688V10.7969H24.6475V9.29688H9.64746V27.2969H24.6475V25.7969H27.6475V31.7969C27.6475 33.4469 26.2975 34.7969 24.6475 34.7969H9.64746C7.99746 34.7969 6.64746 33.4469 6.64746 31.7969ZM24.6475 31.7969V30.2969H9.64746V31.7969H24.6475ZM9.64746 4.79688H24.6475V6.29688H9.64746V4.79688ZM32.4475 14.6219L30.3475 12.5219L22.7725 20.0969L19.2475 16.5719L17.1475 18.6719L22.7725 24.2969L32.4475 14.6219Z" fill="black"/>
</svg>
