<svg viewBox="0 0 20 20" fill="none" xmlns="http://www.w3.org/2000/svg">
<path d="M7.5 9.16406H5.83333V10.8307H7.5V9.16406ZM10.8333 9.16406H9.16667V10.8307H10.8333V9.16406ZM14.1667 9.16406H12.5V10.8307H14.1667V9.16406ZM15.8333 3.33073H15V1.66406H13.3333V3.33073H6.66667V1.66406H5V3.33073H4.16667C3.24167 3.33073 2.50833 4.08073 2.50833 4.9974L2.5 16.6641C2.5 17.5807 3.24167 18.3307 4.16667 18.3307H15.8333C16.75 18.3307 17.5 17.5807 17.5 16.6641V4.9974C17.5 4.08073 16.75 3.33073 15.8333 3.33073ZM15.8333 16.6641H4.16667V7.4974H15.8333V16.6641Z" fill="white"/>
</svg>
