<svg width="0" height="0" viewBox="0 0 21 21"  xmlns="http://www.w3.org/2000/svg">
<path d="M13.5637 11.9641H12.9053L12.672 11.7391C13.672 10.5724 14.1887 8.98073 13.9053 7.28906C13.5137 4.9724 11.5803 3.1224 9.24701 2.83906C5.72201 2.40573 2.75534 5.3724 3.18867 8.8974C3.47201 11.2307 5.32201 13.1641 7.63867 13.5557C9.33034 13.8391 10.922 13.3224 12.0887 12.3224L12.3137 12.5557V13.2141L15.8553 16.7557C16.197 17.0974 16.7553 17.0974 17.097 16.7557C17.4387 16.4141 17.4387 15.8557 17.097 15.5141L13.5637 11.9641ZM8.56367 11.9641C6.48867 11.9641 4.81367 10.2891 4.81367 8.21406C4.81367 6.13906 6.48867 4.46406 8.56367 4.46406C10.6387 4.46406 12.3137 6.13906 12.3137 8.21406C12.3137 10.2891 10.6387 11.9641 8.56367 11.9641Z" fill="black"/>
</svg>
