<svg  viewBox="0 0 21 21"  xmlns="http://www.w3.org/2000/svg">
<path d="M15.6475 13.6982C15.0141 13.6982 14.4475 13.9482 14.0141 14.3398L8.07246 10.8815C8.11413 10.6898 8.14746 10.4982 8.14746 10.2982C8.14746 10.0982 8.11413 9.90651 8.07246 9.71484L13.9475 6.28984C14.3975 6.70651 14.9891 6.96484 15.6475 6.96484C17.0308 6.96484 18.1475 5.84818 18.1475 4.46484C18.1475 3.08151 17.0308 1.96484 15.6475 1.96484C14.2641 1.96484 13.1475 3.08151 13.1475 4.46484C13.1475 4.66484 13.1808 4.85651 13.2225 5.04818L7.34746 8.47318C6.89746 8.05651 6.30579 7.79818 5.64746 7.79818C4.26413 7.79818 3.14746 8.91484 3.14746 10.2982C3.14746 11.6815 4.26413 12.7982 5.64746 12.7982C6.30579 12.7982 6.89746 12.5398 7.34746 12.1232L13.2808 15.5815C13.2391 15.7565 13.2141 15.9398 13.2141 16.1315C13.2141 17.4732 14.3058 18.5565 15.6475 18.5565C16.9891 18.5565 18.0808 17.4732 18.0808 16.1315C18.0808 14.7898 16.9891 13.6982 15.6475 13.6982ZM15.6475 3.63151C16.1058 3.63151 16.4808 4.00651 16.4808 4.46484C16.4808 4.92318 16.1058 5.29818 15.6475 5.29818C15.1891 5.29818 14.8141 4.92318 14.8141 4.46484C14.8141 4.00651 15.1891 3.63151 15.6475 3.63151ZM5.64746 11.1315C5.18913 11.1315 4.81413 10.7565 4.81413 10.2982C4.81413 9.83984 5.18913 9.46484 5.64746 9.46484C6.10579 9.46484 6.48079 9.83984 6.48079 10.2982C6.48079 10.7565 6.10579 11.1315 5.64746 11.1315ZM15.6475 16.9648C15.1891 16.9648 14.8141 16.5898 14.8141 16.1315C14.8141 15.6732 15.1891 15.2982 15.6475 15.2982C16.1058 15.2982 16.4808 15.6732 16.4808 16.1315C16.4808 16.5898 16.1058 16.9648 15.6475 16.9648Z" fill="black"/>
</svg>
