<svg  viewBox="0 0 21 21"  xmlns="http://www.w3.org/2000/svg">
<path fill-rule="evenodd" clip-rule="evenodd" d="M16.4808 3.63151H15.6475V1.96484H13.9808V3.63151H7.31413V1.96484H5.64746V3.63151H4.81413C3.88913 3.63151 3.14746 4.38151 3.14746 5.29818V16.9648C3.14746 17.8815 3.88913 18.6315 4.81413 18.6315H16.4808C17.3975 18.6315 18.1475 17.8815 18.1475 16.9648V5.29818C18.1475 4.38151 17.3975 3.63151 16.4808 3.63151ZM16.4808 16.9648H4.81413V7.79818H16.4808V16.9648ZM6.06413 11.1315C6.06413 9.98151 6.99746 9.04818 8.14746 9.04818C9.29746 9.04818 10.2308 9.98151 10.2308 11.1315C10.2308 12.2815 9.29746 13.2148 8.14746 13.2148C6.99746 13.2148 6.06413 12.2815 6.06413 11.1315Z" fill="black"/>
</svg>
