<svg width="57" height="57" viewBox="0 0 57 57" fill="none" xmlns="http://www.w3.org/2000/svg">
<g clip-path="url(#clip0_407_32979)">
<path opacity="0.3" d="M0.5 28.5C0.5 13.036 13.036 0.5 28.5 0.5C43.964 0.5 56.5 13.036 56.5 28.5C56.5 43.964 43.964 56.5 28.5 56.5C13.036 56.5 0.5 43.964 0.5 28.5Z" fill="white"/>
<path d="M28.4984 34.9134C34.4618 34.9134 39.292 30.0833 39.292 24.1198C39.292 18.1563 34.4618 13.3262 28.4984 13.3262C22.5349 13.3262 17.7048 18.1563 17.7048 24.1198C17.7048 30.0833 22.5349 34.9134 28.4984 34.9134ZM28.4984 40.3102C21.2936 40.3102 6.91113 43.9261 6.91113 51.1038V56.5006H50.0856V51.1038C50.0856 43.9261 35.7031 40.3102 28.4984 40.3102Z" fill="white"/>
</g>
<defs>
<clipPath id="clip0_407_32979">
<rect x="0.5" y="0.5" width="56" height="56" rx="28" fill="white"/>
</clipPath>
</defs>
</svg>
