<svg width="73" height="65" viewBox="0 0 73 65" fill="none" xmlns="http://www.w3.org/2000/svg">
<path d="M24.5924 31.6271L27.0335 24.1489L29.4489 31.6271H24.5924Z" fill="black"/>
<path fill-rule="evenodd" clip-rule="evenodd" d="M36.6413 0.21875C16.727 0.21875 0.666992 12.6823 0.666992 27.8131C0.666992 37.6345 7.34793 46.2344 17.3693 51.1451L13.9775 63.4344C13.9135 63.6185 13.9037 63.8162 13.9491 64.0055C13.9945 64.1948 14.0933 64.3681 14.2344 64.5061C14.4403 64.6822 14.7052 64.7796 14.9796 64.7802C15.2072 64.7625 15.4231 64.6753 15.5963 64.531L30.1916 54.984C32.3461 55.2724 34.5178 55.4222 36.6927 55.4325C56.5813 55.4325 72.667 42.9689 72.667 27.8131C72.667 12.6573 56.53 0.21875 36.6413 0.21875ZM25.2091 19.8861C24.8423 20.1178 24.5769 20.4731 24.4639 20.8833L19.0164 35.2165C18.9875 35.2935 18.9525 35.3725 18.9171 35.4525C18.8267 35.6569 18.7337 35.8671 18.7337 36.0642C18.6896 36.3116 18.6896 36.5644 18.7337 36.8118C18.7201 36.9528 18.7201 37.0948 18.7337 37.2357C18.809 37.649 19.0375 38.0212 19.3761 38.2825C19.7237 38.5357 20.1493 38.6675 20.5838 38.6564C20.9849 38.7053 21.3912 38.6178 21.7332 38.4087C22.0752 38.1997 22.332 37.882 22.4596 37.5099L23.5388 34.4439H30.2969L31.3761 37.5099C31.5069 37.8748 31.7606 38.1864 32.0962 38.3944C32.4318 38.6025 32.8299 38.6947 33.2262 38.6564C33.4839 38.6624 33.7402 38.6169 33.9789 38.5225C34.2176 38.4282 34.4338 38.2871 34.6138 38.1081C34.7996 37.945 34.9464 37.7444 35.0441 37.5205C35.1417 37.2966 35.1878 37.0548 35.1791 36.8118C35.1879 36.6541 35.1879 36.4961 35.1791 36.3384C35.0898 35.9586 34.9783 35.5839 34.8451 35.2165L29.7059 21.1325C29.583 20.6334 29.2711 20.1974 28.8322 19.9111C28.418 19.6826 27.9465 19.5704 27.4703 19.587H26.4939C26.0451 19.5676 25.5999 19.6712 25.2091 19.8861ZM9.3254 23.4508H13.2569L13.2826 36.5626C13.2572 36.7446 13.2572 36.9289 13.2826 37.1109C13.367 37.5537 13.6134 37.9522 13.9764 38.2328C14.3576 38.5201 14.83 38.6697 15.3125 38.6564C15.5884 38.667 15.8636 38.6216 16.1203 38.5228C16.377 38.4241 16.6095 38.2743 16.8029 38.0831C17.0046 37.8832 17.1613 37.6447 17.2631 37.3829C17.3648 37.1212 17.4094 36.8419 17.3939 36.5626V23.4508H21.1969C21.7404 23.4749 22.2759 23.3163 22.713 23.002C22.9161 22.8447 23.0778 22.6431 23.185 22.4135C23.2922 22.1838 23.3418 21.9329 23.3297 21.6811C23.3422 21.5567 23.3422 21.4314 23.3297 21.3071C23.2952 21.0957 23.2128 20.8944 23.0884 20.7177C22.9639 20.5409 22.8006 20.3931 22.6102 20.285C22.1983 20.0249 21.7138 19.8943 21.2226 19.911H9.37678C8.82371 19.9038 8.28301 20.0701 7.83503 20.3848C7.63238 20.5368 7.47051 20.7339 7.36315 20.9596C7.25579 21.1852 7.20612 21.4328 7.21833 21.6811C7.20585 21.8137 7.20585 21.947 7.21833 22.0797C7.2592 22.2889 7.3442 22.4877 7.46801 22.6636C7.59183 22.8395 7.75177 22.9887 7.93782 23.1018C8.35685 23.3434 8.83811 23.4645 9.3254 23.4508ZM35.7676 21.6814C35.7415 21.122 35.9447 20.5753 36.3329 20.1608C36.5302 19.9678 36.7671 19.8169 37.0282 19.7181C37.2894 19.6194 37.569 19.5747 37.8489 19.5873C38.3303 19.5818 38.8 19.7309 39.1851 20.0111C39.542 20.3035 39.7791 20.7103 39.8532 21.1577C39.8785 21.3313 39.8785 21.5077 39.8532 21.6814V34.7932H46.9196C47.4094 34.7869 47.8909 34.9164 48.3072 35.1668C48.4943 35.2787 48.655 35.4277 48.779 35.6038C48.9029 35.7799 48.9873 35.9792 49.0267 36.1889V36.5629C49.0389 36.8111 48.9892 37.0584 48.8818 37.2841C48.7745 37.5097 48.6126 37.7071 48.41 37.8592C47.962 38.1739 47.4213 38.3399 46.8682 38.3326H38.183C37.6298 38.3672 37.08 38.2275 36.6155 37.934C36.2001 37.6327 35.9233 37.1851 35.8447 36.6877C35.8258 36.4138 35.8258 36.1388 35.8447 35.8649L35.7676 21.6814ZM50.055 20.161C49.6761 20.5808 49.4743 21.1237 49.4897 21.6815L49.3355 36.4383C49.3101 36.6203 49.3101 36.8049 49.3355 36.9869C49.42 37.4297 49.6663 37.8279 50.0293 38.1085C50.4026 38.3922 50.8656 38.542 51.3398 38.5324C51.6235 38.5439 51.9066 38.4989 52.1718 38.4003C52.4369 38.3017 52.6785 38.1513 52.8815 37.9588C53.2604 37.539 53.4622 36.9961 53.4469 36.4383V32.2756L55.7338 29.9572L60.5132 37.4354C60.7112 37.786 60.9933 38.0852 61.3355 38.3078C61.6518 38.4691 62.0064 38.5467 62.3633 38.5324C62.9006 38.5397 63.425 38.3729 63.8537 38.0586C64.0816 37.8706 64.2591 37.6319 64.371 37.3627C64.4829 37.0935 64.5258 36.8019 64.4961 36.5131V36.3887C64.3543 35.9695 64.1462 35.5741 63.8794 35.2169V34.9677L58.7402 27.2402L63.0057 22.7033C63.1938 22.4973 63.3576 22.2718 63.494 22.0305C63.6278 21.8026 63.6986 21.5449 63.6995 21.2826C63.687 21.2251 63.687 21.1658 63.6995 21.1082C63.7099 21.0589 63.7099 21.0079 63.6995 20.9585C63.6629 20.7573 63.5849 20.5654 63.4701 20.3941C63.3553 20.2227 63.2061 20.0755 63.0314 19.9614C62.6606 19.7155 62.2214 19.585 61.7723 19.5874C61.4652 19.5816 61.1626 19.6595 60.8987 19.812C60.6186 20.0285 60.3526 20.2614 60.1021 20.5097L53.601 27.7886V21.6815C53.6137 21.5072 53.6137 21.3321 53.601 21.1578C53.518 20.7076 53.2719 20.3011 52.9072 20.0113C52.4867 19.714 51.9733 19.5665 51.4537 19.5938C50.9341 19.621 50.4401 19.8215 50.055 20.161Z" fill="black"/>
</svg>
